<?xml version="1.0" encoding="utf-8"?>
<!-- Generator: Adobe Illustrator 23.0.4, SVG Export Plug-In . SVG Version: 6.00 Build 0)  -->
<svg version="1.1" id="Ebene_1" xmlns="http://www.w3.org/2000/svg" xmlns:xlink="http://www.w3.org/1999/xlink" x="0px" y="0px"
	 viewBox="0 0 652.1 135.6" style="enable-background:new 0 0 652.1 135.6;" xml:space="preserve">
<style type="text/css">
	.st0{clip-path:url(#SVGID_2_);fill:url(#SVGID_3_);}
	.st1{clip-path:url(#SVGID_5_);fill:url(#SVGID_6_);}
	.st2{clip-path:url(#SVGID_8_);fill:url(#SVGID_9_);}
	.st3{clip-path:url(#SVGID_11_);fill:url(#SVGID_12_);}
	.st4{fill:none;}
</style>
<g>
	<defs>
		<rect id="SVGID_1_" x="195.5" y="-0.1" width="133.2" height="135.8"/>
	</defs>
	<clipPath id="SVGID_2_">
		<use xlink:href="#SVGID_1_"  style="overflow:visible;"/>
	</clipPath>
	
		<linearGradient id="SVGID_3_" gradientUnits="userSpaceOnUse" x1="-31.0784" y1="284.2199" x2="-30.0782" y2="284.2199" gradientTransform="matrix(144.4141 0 0 144.4141 4683.6309 -40977.6055)">
		<stop  offset="0" style="stop-color:#FFFFFF"/>
		<stop  offset="8.323833e-02" style="stop-color:#F5F6FC"/>
		<stop  offset="0.2346" style="stop-color:#D8DFF2"/>
		<stop  offset="0.4368" style="stop-color:#A9BAE1"/>
		<stop  offset="0.6792" style="stop-color:#618BC8"/>
		<stop  offset="0.9212" style="stop-color:#0060AC"/>
		<stop  offset="1" style="stop-color:#0060AC"/>
	</linearGradient>
	<rect x="195.5" y="-0.1" class="st0" width="133.2" height="135.8"/>
</g>
<g>
	<defs>
		<polygon id="SVGID_4_" points="125.7,-0.1 125.7,135.6 296.2,135.6 217.2,57.5 276.5,-0.1 		"/>
	</defs>
	<clipPath id="SVGID_5_">
		<use xlink:href="#SVGID_4_"  style="overflow:visible;"/>
	</clipPath>
	
		<linearGradient id="SVGID_6_" gradientUnits="userSpaceOnUse" x1="-31.0652" y1="284.126" x2="-30.0652" y2="284.126" gradientTransform="matrix(170.5229 0 0 170.5229 5423.0586 -48382.2656)">
		<stop  offset="0" style="stop-color:#FFFFFF"/>
		<stop  offset="4.705849e-02" style="stop-color:#F0F2FA"/>
		<stop  offset="0.2384" style="stop-color:#B3C1E4"/>
		<stop  offset="0.4196" style="stop-color:#7C9BD1"/>
		<stop  offset="0.5854" style="stop-color:#4A7FC1"/>
		<stop  offset="0.7328" style="stop-color:#186DB6"/>
		<stop  offset="0.8563" style="stop-color:#0064AF"/>
		<stop  offset="0.9409" style="stop-color:#0060AC"/>
		<stop  offset="1" style="stop-color:#0060AC"/>
	</linearGradient>
	<rect x="125.7" y="-0.1" class="st1" width="170.5" height="135.7"/>
</g>
<g>
	<defs>
		<polygon id="SVGID_7_" points="0,-0.1 0,135.6 150.3,135.6 150.3,88.9 185.2,88.9 185.2,57.2 150.3,57.2 150.3,34.4 204.1,34.4 
			204.1,-0.1 		"/>
	</defs>
	<clipPath id="SVGID_8_">
		<use xlink:href="#SVGID_7_"  style="overflow:visible;"/>
	</clipPath>
	
		<linearGradient id="SVGID_9_" gradientUnits="userSpaceOnUse" x1="-31.0546" y1="284.0398" x2="-30.0546" y2="284.0398" gradientTransform="matrix(204.1518 0 0 204.1518 6339.8403 -57919.5)">
		<stop  offset="0" style="stop-color:#FFFFFF"/>
		<stop  offset="0.266" style="stop-color:#FFFFFF"/>
		<stop  offset="0.5025" style="stop-color:#AFBFE3"/>
		<stop  offset="0.7389" style="stop-color:#5A88C6"/>
		<stop  offset="0.9045" style="stop-color:#016AB3"/>
		<stop  offset="0.9852" style="stop-color:#0060AC"/>
		<stop  offset="1" style="stop-color:#0060AC"/>
	</linearGradient>
	<rect x="0" y="-0.1" class="st2" width="204.2" height="135.7"/>
</g>
<g>
	<defs>
		<path id="SVGID_10_" d="M58.6-0.1L58.6-0.1L0-0.1v135.7h58.9c31.4,0,56.9-30.4,56.9-67.9c0-37.5-25.5-67.8-56.9-67.8
			C58.8-0.1,58.7-0.1,58.6-0.1"/>
	</defs>
	<clipPath id="SVGID_11_">
		<use xlink:href="#SVGID_10_"  style="overflow:visible;"/>
	</clipPath>
	
		<linearGradient id="SVGID_12_" gradientUnits="userSpaceOnUse" x1="-31.0964" y1="284.3737" x2="-30.0964" y2="284.3737" gradientTransform="matrix(115.833 0 0 115.833 3601.97 -32872.1445)">
		<stop  offset="0" style="stop-color:#9AAFDB"/>
		<stop  offset="0.1366" style="stop-color:#92A9D8"/>
		<stop  offset="0.3607" style="stop-color:#7999CF"/>
		<stop  offset="0.6445" style="stop-color:#4C80C1"/>
		<stop  offset="0.9741" style="stop-color:#0063AE"/>
		<stop  offset="1" style="stop-color:#0060AC"/>
	</linearGradient>
	<rect x="0" y="-0.1" class="st3" width="115.8" height="135.7"/>
</g>
<g>
	<path d="M349.5,6.4h7.9c1.8,0,3.1,0.1,4.1,0.4c1.3,0.4,2.3,1,3.2,2c0.9,0.9,1.6,2.1,2.1,3.5c0.5,1.4,0.7,3.1,0.7,5.1
		c0,1.8-0.2,3.3-0.7,4.6c-0.5,1.6-1.3,2.8-2.3,3.8c-0.8,0.7-1.8,1.3-3,1.7c-1,0.3-2.2,0.5-3.8,0.5h-8.2V6.4z M353.9,10v14.2h3.2
		c1.2,0,2.1-0.1,2.6-0.2c0.7-0.2,1.3-0.5,1.8-0.9c0.5-0.4,0.8-1.1,1.1-2.1c0.3-1,0.4-2.3,0.4-3.9c0-1.7-0.1-2.9-0.4-3.8
		c-0.3-0.9-0.7-1.6-1.2-2.1c-0.5-0.5-1.2-0.8-2-1c-0.6-0.1-1.8-0.2-3.6-0.2H353.9z"/>
	<path d="M380.2,22.9l4.1,0.7c-0.5,1.5-1.4,2.6-2.5,3.4c-1.1,0.8-2.6,1.2-4.3,1.2c-2.7,0-4.7-0.9-6-2.7c-1-1.4-1.5-3.2-1.5-5.4
		c0-2.6,0.7-4.6,2-6.1c1.3-1.5,3.1-2.2,5.1-2.2c2.3,0,4.1,0.8,5.5,2.3c1.3,1.5,2,3.9,1.9,7h-10.3c0,1.2,0.4,2.2,1,2.8
		c0.6,0.7,1.4,1,2.4,1c0.6,0,1.2-0.2,1.6-0.5C379.7,24.2,380,23.7,380.2,22.9 M380.4,18.7c0-1.2-0.3-2.1-0.9-2.7
		c-0.6-0.6-1.3-0.9-2.1-0.9c-0.9,0-1.6,0.3-2.2,1c-0.6,0.7-0.9,1.5-0.9,2.7H380.4z"/>
	<path d="M398.1,27.8v-2.3c-0.6,0.8-1.3,1.5-2.2,2c-0.9,0.5-1.9,0.7-2.9,0.7c-1,0-2-0.2-2.8-0.7c-0.8-0.5-1.4-1.1-1.8-1.9
		c-0.4-0.8-0.6-2-0.6-3.4v-9.8h4.1v7.1c0,2.2,0.1,3.5,0.2,4c0.2,0.5,0.4,0.9,0.8,1.2c0.4,0.3,0.9,0.4,1.5,0.4c0.7,0,1.3-0.2,1.9-0.6
		c0.6-0.4,0.9-0.9,1.1-1.4c0.2-0.6,0.3-2,0.3-4.2v-6.6h4.1v15.6H398.1z"/>
	<path d="M413.3,12.3v3.3h-2.8v6.3c0,1.3,0,2,0.1,2.2c0.1,0.2,0.2,0.4,0.4,0.5c0.2,0.1,0.4,0.2,0.7,0.2c0.4,0,0.9-0.1,1.7-0.4
		l0.4,3.2c-1,0.4-2,0.6-3.3,0.6c-0.7,0-1.4-0.1-2-0.4c-0.6-0.2-1-0.6-1.3-1c-0.3-0.4-0.5-0.9-0.6-1.6c-0.1-0.5-0.1-1.4-0.1-2.9v-6.8
		h-1.9v-3.3h1.9V9.2l4.1-2.4v5.5H413.3z"/>
	<path d="M414.8,23.4l4.1-0.6c0.2,0.8,0.5,1.4,1.1,1.8c0.5,0.4,1.3,0.6,2.3,0.6c1.1,0,1.9-0.2,2.4-0.6c0.4-0.3,0.5-0.6,0.5-1.1
		c0-0.3-0.1-0.6-0.3-0.8c-0.2-0.2-0.7-0.4-1.4-0.5c-3.3-0.7-5.4-1.4-6.3-2c-1.2-0.8-1.8-2-1.8-3.5c0-1.3,0.5-2.5,1.6-3.4
		c1.1-0.9,2.7-1.4,5-1.4c2.1,0,3.7,0.3,4.7,1c1,0.7,1.7,1.7,2.1,3.1l-3.9,0.7c-0.2-0.6-0.5-1.1-0.9-1.4c-0.5-0.3-1.1-0.5-2-0.5
		c-1.1,0-1.9,0.2-2.3,0.5c-0.3,0.2-0.5,0.5-0.5,0.8c0,0.3,0.1,0.5,0.4,0.7c0.4,0.3,1.7,0.7,3.8,1.2c2.2,0.5,3.7,1.1,4.6,1.8
		c0.9,0.7,1.3,1.8,1.3,3.1c0,1.4-0.6,2.7-1.8,3.7c-1.2,1-3,1.5-5.3,1.5c-2.1,0-3.8-0.4-5-1.3C415.9,26,415.1,24.9,414.8,23.4"/>
	<path d="M446.4,16.9l-4.1,0.7c-0.1-0.8-0.4-1.4-0.9-1.8c-0.5-0.4-1.1-0.6-1.9-0.6c-1,0-1.8,0.4-2.5,1.1c-0.6,0.7-0.9,1.9-0.9,3.6
		c0,1.8,0.3,3.1,0.9,3.9c0.6,0.8,1.5,1.1,2.5,1.1c0.8,0,1.4-0.2,1.9-0.7c0.5-0.4,0.8-1.2,1.1-2.3l4,0.7c-0.4,1.9-1.2,3.3-2.4,4.2
		c-1.2,0.9-2.8,1.4-4.8,1.4c-2.3,0-4.1-0.7-5.4-2.2c-1.4-1.4-2-3.4-2-6c0-2.6,0.7-4.6,2-6c1.4-1.4,3.2-2.1,5.5-2.1
		c1.9,0,3.4,0.4,4.5,1.2C445.2,14,446,15.2,446.4,16.9"/>
	<path d="M453.7,6.4v7.9c1.3-1.6,2.9-2.3,4.8-2.3c0.9,0,1.8,0.2,2.6,0.5c0.8,0.4,1.3,0.8,1.7,1.3c0.4,0.5,0.7,1.2,0.8,1.8
		c0.1,0.7,0.2,1.7,0.2,3.1v9.1h-4.1v-8.2c0-1.6-0.1-2.7-0.2-3.1c-0.2-0.4-0.4-0.8-0.8-1c-0.4-0.3-0.9-0.4-1.5-0.4
		c-0.7,0-1.3,0.2-1.8,0.5c-0.5,0.3-0.9,0.8-1.2,1.5c-0.2,0.7-0.4,1.7-0.4,3v7.8h-4.1V6.4H453.7z"/>
	<path d="M476.9,22.9l4.1,0.7c-0.5,1.5-1.4,2.6-2.5,3.4c-1.1,0.8-2.6,1.2-4.3,1.2c-2.7,0-4.7-0.9-6-2.7c-1-1.4-1.5-3.2-1.5-5.4
		c0-2.6,0.7-4.6,2-6.1c1.3-1.5,3.1-2.2,5.1-2.2c2.3,0,4.1,0.8,5.5,2.3c1.3,1.5,2,3.9,1.9,7h-10.3c0,1.2,0.4,2.2,1,2.8
		c0.6,0.7,1.4,1,2.4,1c0.6,0,1.2-0.2,1.6-0.5C476.3,24.2,476.7,23.7,476.9,22.9 M477.1,18.7c0-1.2-0.3-2.1-0.9-2.7
		c-0.6-0.6-1.3-0.9-2.1-0.9c-0.9,0-1.6,0.3-2.2,1c-0.6,0.7-0.9,1.5-0.9,2.7H477.1z"/>
	<path d="M483.1,23.4l4.1-0.6c0.2,0.8,0.5,1.4,1.1,1.8c0.5,0.4,1.3,0.6,2.3,0.6c1.1,0,1.9-0.2,2.4-0.6c0.4-0.3,0.5-0.6,0.5-1.1
		c0-0.3-0.1-0.6-0.3-0.8c-0.2-0.2-0.7-0.4-1.4-0.5c-3.3-0.7-5.4-1.4-6.3-2c-1.2-0.8-1.8-2-1.8-3.5c0-1.3,0.5-2.5,1.6-3.4
		c1.1-0.9,2.7-1.4,5-1.4c2.1,0,3.7,0.3,4.7,1c1,0.7,1.7,1.7,2.1,3.1l-3.9,0.7c-0.2-0.6-0.5-1.1-0.9-1.4c-0.5-0.3-1.1-0.5-2-0.5
		c-1.1,0-1.9,0.2-2.3,0.5c-0.3,0.2-0.5,0.5-0.5,0.8c0,0.3,0.1,0.5,0.4,0.7c0.4,0.3,1.7,0.7,3.8,1.2c2.2,0.5,3.7,1.1,4.6,1.8
		c0.9,0.7,1.3,1.8,1.3,3.1c0,1.4-0.6,2.7-1.8,3.7c-1.2,1-3,1.5-5.3,1.5c-2.1,0-3.8-0.4-5-1.3C484.3,26,483.5,24.9,483.1,23.4"/>
	<polygon points="349.6,61.3 349.6,39.9 364.3,39.9 364.3,43.5 353.9,43.5 353.9,48.6 362.9,48.6 362.9,52.2 353.9,52.2 353.9,61.3 
			"/>
	<path d="M366.9,53.3c0-1.4,0.3-2.7,1-4c0.7-1.3,1.6-2.3,2.9-2.9c1.2-0.7,2.6-1,4.1-1c2.4,0,4.3,0.8,5.8,2.3
		c1.5,1.5,2.3,3.5,2.3,5.8c0,2.4-0.8,4.3-2.3,5.9c-1.5,1.5-3.4,2.3-5.7,2.3c-1.4,0-2.8-0.3-4.1-1c-1.3-0.6-2.3-1.6-3-2.8
		C367.2,56.6,366.9,55.1,366.9,53.3 M371.1,53.6c0,1.5,0.4,2.7,1.1,3.5c0.7,0.8,1.6,1.2,2.7,1.2c1.1,0,2-0.4,2.7-1.2
		c0.7-0.8,1.1-2,1.1-3.6c0-1.5-0.4-2.7-1.1-3.5c-0.7-0.8-1.6-1.2-2.7-1.2c-1.1,0-2,0.4-2.7,1.2C371.5,50.8,371.1,52,371.1,53.6"/>
	<path d="M390.1,61.3H386V45.8h3.8V48c0.7-1,1.2-1.7,1.8-2.1c0.5-0.3,1.1-0.5,1.8-0.5c0.9,0,1.8,0.3,2.7,0.8l-1.3,3.6
		c-0.7-0.4-1.3-0.7-1.9-0.7c-0.6,0-1.1,0.2-1.5,0.5c-0.4,0.3-0.7,0.9-0.9,1.7c-0.2,0.8-0.3,2.6-0.3,5.2V61.3z"/>
	<path d="M396.4,56.9l4.1-0.6c0.2,0.8,0.5,1.4,1.1,1.8c0.5,0.4,1.3,0.6,2.3,0.6c1.1,0,1.9-0.2,2.4-0.6c0.4-0.3,0.5-0.6,0.5-1.1
		c0-0.3-0.1-0.6-0.3-0.8c-0.2-0.2-0.7-0.4-1.4-0.5c-3.3-0.7-5.4-1.4-6.3-2c-1.2-0.8-1.8-2-1.8-3.5c0-1.3,0.5-2.5,1.6-3.4
		c1.1-0.9,2.7-1.4,5-1.4c2.1,0,3.7,0.3,4.7,1c1,0.7,1.7,1.7,2.1,3.1l-3.9,0.7c-0.2-0.6-0.5-1.1-0.9-1.4c-0.5-0.3-1.1-0.5-2-0.5
		c-1.1,0-1.9,0.2-2.3,0.5c-0.3,0.2-0.5,0.5-0.5,0.8c0,0.3,0.1,0.5,0.4,0.7c0.4,0.3,1.7,0.7,3.8,1.2c2.2,0.5,3.7,1.1,4.6,1.8
		c0.9,0.7,1.3,1.8,1.3,3.1c0,1.4-0.6,2.7-1.8,3.7s-3,1.5-5.3,1.5c-2.1,0-3.8-0.4-5-1.3C397.6,59.5,396.8,58.4,396.4,56.9"/>
	<path d="M428.1,50.4l-4.1,0.7c-0.1-0.8-0.4-1.4-0.9-1.8c-0.5-0.4-1.1-0.6-1.9-0.6c-1,0-1.8,0.4-2.5,1.1c-0.6,0.7-0.9,1.9-0.9,3.6
		c0,1.8,0.3,3.1,0.9,3.9c0.6,0.8,1.5,1.1,2.5,1.1c0.8,0,1.4-0.2,1.9-0.7c0.5-0.4,0.8-1.2,1.1-2.3l4,0.7c-0.4,1.9-1.2,3.3-2.4,4.2
		c-1.2,0.9-2.8,1.4-4.8,1.4c-2.3,0-4.1-0.7-5.4-2.2c-1.4-1.4-2-3.4-2-6c0-2.6,0.7-4.6,2-6c1.4-1.4,3.2-2.1,5.5-2.1
		c1.9,0,3.4,0.4,4.5,1.2C426.8,47.5,427.6,48.7,428.1,50.4"/>
	<path d="M435.3,39.9v7.9c1.3-1.6,2.9-2.3,4.8-2.3c0.9,0,1.8,0.2,2.6,0.5c0.8,0.4,1.3,0.8,1.7,1.3c0.4,0.5,0.7,1.2,0.8,1.8
		c0.1,0.7,0.2,1.7,0.2,3.1v9.1h-4.1v-8.2c0-1.6-0.1-2.7-0.2-3.1c-0.2-0.4-0.4-0.8-0.8-1c-0.4-0.3-0.9-0.4-1.5-0.4
		c-0.7,0-1.3,0.2-1.8,0.5c-0.5,0.3-0.9,0.8-1.2,1.5c-0.2,0.7-0.4,1.7-0.4,3v7.8h-4.1V39.9H435.3z"/>
	<path d="M459.8,61.3V59c-0.6,0.8-1.3,1.5-2.2,2c-0.9,0.5-1.9,0.7-2.9,0.7c-1,0-2-0.2-2.8-0.7c-0.8-0.5-1.4-1.1-1.8-1.9
		c-0.4-0.8-0.6-2-0.6-3.4v-9.8h4.1v7.1c0,2.2,0.1,3.5,0.2,4c0.2,0.5,0.4,0.9,0.8,1.2c0.4,0.3,0.9,0.4,1.5,0.4c0.7,0,1.3-0.2,1.9-0.6
		c0.6-0.4,0.9-0.9,1.1-1.4c0.2-0.6,0.3-2,0.3-4.2v-6.6h4.1v15.6H459.8z"/>
	<path d="M482,61.3h-4.1v-7.9c0-1.7-0.1-2.8-0.3-3.3c-0.2-0.5-0.5-0.9-0.9-1.2c-0.4-0.3-0.9-0.4-1.4-0.4c-0.7,0-1.4,0.2-1.9,0.6
		c-0.6,0.4-1,0.9-1.2,1.6c-0.2,0.6-0.3,1.8-0.3,3.6v7h-4.1V45.8h3.8v2.3c1.4-1.8,3.1-2.6,5.1-2.6c0.9,0,1.7,0.2,2.5,0.5
		c0.8,0.3,1.3,0.7,1.7,1.3c0.4,0.5,0.7,1.1,0.8,1.7c0.2,0.6,0.2,1.6,0.2,2.8V61.3z"/>
	<path d="M485.8,62.4l4.7,0.6c0.1,0.5,0.3,0.9,0.5,1.1c0.4,0.3,1,0.4,1.8,0.4c1.1,0,1.9-0.2,2.4-0.5c0.4-0.2,0.6-0.6,0.8-1
		c0.1-0.3,0.2-1,0.2-1.9v-2.3c-1.2,1.7-2.8,2.5-4.7,2.5c-2.1,0-3.7-0.9-5-2.7c-1-1.4-1.4-3.1-1.4-5.2c0-2.6,0.6-4.6,1.9-6
		c1.3-1.4,2.8-2.1,4.7-2.1c1.9,0,3.5,0.8,4.8,2.5v-2.2h3.9v14c0,1.8-0.2,3.2-0.5,4.1c-0.3,0.9-0.7,1.6-1.3,2.1
		c-0.5,0.5-1.3,0.9-2.2,1.2c-0.9,0.3-2.1,0.4-3.5,0.4c-2.6,0-4.5-0.5-5.6-1.4c-1.1-0.9-1.7-2-1.7-3.4
		C485.8,62.7,485.8,62.6,485.8,62.4 M489.5,53.2c0,1.6,0.3,2.9,1,3.6c0.6,0.8,1.4,1.1,2.4,1.1c1,0,1.9-0.4,2.5-1.2
		c0.7-0.8,1-2,1-3.5c0-1.6-0.3-2.8-1-3.6c-0.7-0.8-1.5-1.2-2.5-1.2c-1,0-1.8,0.4-2.4,1.1C489.8,50.5,489.5,51.7,489.5,53.2"/>
	<path d="M503.1,56.9l4.1-0.6c0.2,0.8,0.5,1.4,1.1,1.8c0.5,0.4,1.3,0.6,2.3,0.6c1.1,0,1.9-0.2,2.4-0.6c0.4-0.3,0.5-0.6,0.5-1.1
		c0-0.3-0.1-0.6-0.3-0.8c-0.2-0.2-0.7-0.4-1.4-0.5c-3.3-0.7-5.4-1.4-6.3-2c-1.2-0.8-1.8-2-1.8-3.5c0-1.3,0.5-2.5,1.6-3.4
		c1.1-0.9,2.7-1.4,5-1.4c2.1,0,3.7,0.3,4.7,1c1,0.7,1.7,1.7,2.1,3.1l-3.9,0.7c-0.2-0.6-0.5-1.1-0.9-1.4c-0.5-0.3-1.1-0.5-2-0.5
		c-1.1,0-1.9,0.2-2.3,0.5c-0.3,0.2-0.5,0.5-0.5,0.8c0,0.3,0.1,0.5,0.4,0.7c0.4,0.3,1.7,0.7,3.8,1.2c2.2,0.5,3.7,1.1,4.6,1.8
		c0.9,0.7,1.3,1.8,1.3,3.1c0,1.4-0.6,2.7-1.8,3.7c-1.2,1-3,1.5-5.3,1.5c-2.1,0-3.8-0.4-5-1.3C504.3,59.5,503.5,58.4,503.1,56.9"/>
	<path d="M519.6,61.3v-3.2l5.8-6.7c1-1.1,1.7-1.9,2.1-2.3c-0.5,0-1.1,0-1.9,0.1l-5.5,0v-3.4H533v2.9l-5.9,6.9l-2.1,2.3
		c1.1-0.1,1.9-0.1,2.1-0.1h6.4v3.6H519.6z"/>
	<path d="M545.2,56.4l4.1,0.7c-0.5,1.5-1.4,2.6-2.5,3.4c-1.1,0.8-2.6,1.2-4.3,1.2c-2.7,0-4.7-0.9-6-2.7c-1-1.4-1.5-3.2-1.5-5.4
		c0-2.6,0.7-4.6,2-6.1c1.3-1.5,3.1-2.2,5.1-2.2c2.3,0,4.1,0.8,5.5,2.3c1.3,1.5,2,3.9,1.9,7h-10.3c0,1.2,0.4,2.2,1,2.8
		c0.6,0.7,1.4,1,2.4,1c0.6,0,1.2-0.2,1.6-0.5C544.7,57.7,545,57.2,545.2,56.4 M545.5,52.2c0-1.2-0.3-2.1-0.9-2.7
		c-0.6-0.6-1.3-0.9-2.1-0.9c-0.9,0-1.6,0.3-2.2,1c-0.6,0.7-0.9,1.5-0.9,2.7H545.5z"/>
	<path d="M567,61.3h-4.1v-7.9c0-1.7-0.1-2.8-0.3-3.3c-0.2-0.5-0.5-0.9-0.9-1.2c-0.4-0.3-0.9-0.4-1.4-0.4c-0.7,0-1.4,0.2-1.9,0.6
		c-0.6,0.4-1,0.9-1.2,1.6c-0.2,0.6-0.3,1.8-0.3,3.6v7h-4.1V45.8h3.8v2.3c1.4-1.8,3.1-2.6,5.1-2.6c0.9,0,1.7,0.2,2.5,0.5
		c0.8,0.3,1.3,0.7,1.7,1.3c0.4,0.5,0.7,1.1,0.8,1.7c0.2,0.6,0.2,1.6,0.2,2.8V61.3z"/>
	<path d="M578.4,45.8v3.3h-2.8v6.3c0,1.3,0,2,0.1,2.2c0.1,0.2,0.2,0.4,0.4,0.5c0.2,0.1,0.4,0.2,0.7,0.2c0.4,0,0.9-0.1,1.7-0.4
		l0.4,3.2c-1,0.4-2,0.6-3.3,0.6c-0.7,0-1.4-0.1-2-0.4c-0.6-0.2-1-0.6-1.3-1c-0.3-0.4-0.5-0.9-0.6-1.6c-0.1-0.5-0.1-1.4-0.1-2.9v-6.8
		h-1.9v-3.3h1.9v-3.1l4.1-2.4v5.5H578.4z"/>
	<path d="M585.2,61.3H581V45.8h3.8V48c0.7-1,1.2-1.7,1.8-2.1c0.5-0.3,1.1-0.5,1.8-0.5c0.9,0,1.8,0.3,2.7,0.8l-1.3,3.6
		c-0.7-0.4-1.3-0.7-1.9-0.7c-0.6,0-1.1,0.2-1.5,0.5c-0.4,0.3-0.7,0.9-0.9,1.7c-0.2,0.8-0.3,2.6-0.3,5.2V61.3z"/>
	<path d="M603.1,61.3V59c-0.6,0.8-1.3,1.5-2.2,2c-0.9,0.5-1.9,0.7-2.9,0.7c-1,0-2-0.2-2.8-0.7c-0.8-0.5-1.4-1.1-1.8-1.9
		c-0.4-0.8-0.6-2-0.6-3.4v-9.8h4.1v7.1c0,2.2,0.1,3.5,0.2,4c0.2,0.5,0.4,0.9,0.8,1.2c0.4,0.3,0.9,0.4,1.5,0.4c0.7,0,1.3-0.2,1.9-0.6
		c0.6-0.4,0.9-0.9,1.1-1.4c0.2-0.6,0.3-2,0.3-4.2v-6.6h4.1v15.6H603.1z"/>
	<path d="M610.9,45.8h3.8v2.1c1.4-1.6,3-2.5,4.8-2.5c1,0,1.9,0.2,2.6,0.6c0.7,0.4,1.3,1,1.8,1.9c0.7-0.8,1.4-1.5,2.2-1.9
		c0.8-0.4,1.6-0.6,2.5-0.6c1.1,0,2.1,0.2,2.9,0.7c0.8,0.5,1.4,1.1,1.8,2c0.3,0.7,0.4,1.7,0.4,3.2v9.9h-4.1v-8.9c0-1.5-0.1-2.5-0.4-3
		c-0.4-0.6-1-0.9-1.8-0.9c-0.6,0-1.1,0.2-1.6,0.5c-0.5,0.4-0.9,0.9-1.1,1.5c-0.2,0.7-0.3,1.8-0.3,3.2v7.5h-4.1v-8.5
		c0-1.5-0.1-2.5-0.2-2.9c-0.1-0.4-0.4-0.8-0.7-1c-0.3-0.2-0.7-0.3-1.3-0.3c-0.6,0-1.2,0.2-1.7,0.5c-0.5,0.3-0.9,0.8-1.1,1.5
		c-0.2,0.6-0.3,1.7-0.3,3.2v7.6h-4.1V45.8z"/>
	<path d="M347.7,79.3h2.3v-1.2c0-1.3,0.1-2.3,0.4-2.9c0.3-0.6,0.8-1.2,1.5-1.6c0.7-0.4,1.7-0.6,2.8-0.6c1.2,0,2.3,0.2,3.4,0.5
		l-0.6,2.9c-0.7-0.2-1.3-0.2-1.9-0.2c-0.6,0-1,0.1-1.3,0.4c-0.3,0.3-0.4,0.8-0.4,1.6v1.1h3.1v3.2h-3.1v12.3H350V82.5h-2.3V79.3z"/>
	<path d="M369.8,94.8v-2.3c-0.6,0.8-1.3,1.5-2.2,2c-0.9,0.5-1.9,0.7-2.9,0.7c-1,0-2-0.2-2.8-0.7s-1.4-1.1-1.8-1.9
		c-0.4-0.8-0.6-2-0.6-3.4v-9.8h4.1v7.2c0,2.2,0.1,3.5,0.2,4c0.2,0.5,0.4,0.9,0.8,1.2c0.4,0.3,0.9,0.4,1.5,0.4c0.7,0,1.3-0.2,1.9-0.6
		c0.6-0.4,0.9-0.9,1.1-1.4c0.2-0.6,0.3-2,0.3-4.2v-6.6h4.1v15.6H369.8z M361.6,73h3.5v3.5h-3.5V73z M367.9,73h3.5v3.5h-3.5V73z"/>
	<path d="M381.8,94.8h-4.1V79.3h3.8v2.2c0.7-1,1.2-1.7,1.8-2.1c0.5-0.3,1.1-0.5,1.8-0.5c0.9,0,1.8,0.3,2.7,0.8l-1.3,3.6
		c-0.7-0.4-1.3-0.7-1.9-0.7c-0.6,0-1.1,0.2-1.5,0.5c-0.4,0.3-0.7,0.9-0.9,1.7c-0.2,0.8-0.3,2.6-0.3,5.2V94.8z"/>
	<polygon points="397.9,94.8 397.9,73.4 402.3,73.4 402.3,82.9 411,73.4 416.9,73.4 408.8,81.7 417.3,94.8 411.7,94.8 405.8,84.8 
		402.3,88.3 402.3,94.8 	"/>
	<path d="M429.8,94.8v-2.3c-0.6,0.8-1.3,1.5-2.2,2c-0.9,0.5-1.9,0.7-2.9,0.7c-1,0-2-0.2-2.8-0.7s-1.4-1.1-1.8-1.9
		c-0.4-0.8-0.6-2-0.6-3.4v-9.8h4.1v7.2c0,2.2,0.1,3.5,0.2,4c0.2,0.5,0.4,0.9,0.8,1.2c0.4,0.3,0.9,0.4,1.5,0.4c0.7,0,1.3-0.2,1.9-0.6
		c0.6-0.4,0.9-0.9,1.1-1.4c0.2-0.6,0.3-2,0.3-4.2v-6.6h4.1v15.6H429.8z M421.6,73h3.5v3.5h-3.5V73z M427.9,73h3.5v3.5h-3.5V73z"/>
	<path d="M452,94.8h-4.1v-7.9c0-1.7-0.1-2.8-0.3-3.3c-0.2-0.5-0.5-0.9-0.9-1.2c-0.4-0.3-0.9-0.4-1.4-0.4c-0.7,0-1.4,0.2-1.9,0.6
		c-0.6,0.4-1,0.9-1.2,1.6c-0.2,0.6-0.3,1.8-0.3,3.6v7h-4.1V79.3h3.8v2.3c1.4-1.8,3.1-2.6,5.1-2.6c0.9,0,1.7,0.2,2.5,0.5
		c0.8,0.3,1.3,0.7,1.7,1.3c0.4,0.5,0.7,1.1,0.8,1.7c0.2,0.6,0.2,1.6,0.2,2.8V94.8z"/>
	<path d="M454.7,90.4l4.1-0.6c0.2,0.8,0.5,1.4,1.1,1.8c0.5,0.4,1.3,0.6,2.3,0.6c1.1,0,1.9-0.2,2.4-0.6c0.4-0.3,0.5-0.6,0.5-1.1
		c0-0.3-0.1-0.6-0.3-0.8c-0.2-0.2-0.7-0.4-1.4-0.5c-3.3-0.7-5.4-1.4-6.3-2c-1.2-0.8-1.8-2-1.8-3.5c0-1.3,0.5-2.5,1.6-3.4
		c1.1-0.9,2.7-1.4,5-1.4c2.1,0,3.7,0.3,4.7,1c1,0.7,1.7,1.7,2.1,3.1l-3.9,0.7c-0.2-0.6-0.5-1.1-0.9-1.4c-0.5-0.3-1.1-0.5-2-0.5
		c-1.1,0-1.9,0.2-2.3,0.5c-0.3,0.2-0.5,0.5-0.5,0.8c0,0.3,0.1,0.5,0.4,0.7c0.4,0.3,1.7,0.7,3.8,1.2c2.2,0.5,3.7,1.1,4.6,1.8
		c0.9,0.7,1.3,1.8,1.3,3.1c0,1.4-0.6,2.7-1.8,3.7c-1.2,1-3,1.5-5.3,1.5c-2.1,0-3.8-0.4-5-1.3C455.9,93,455.1,91.9,454.7,90.4"/>
	<path d="M480,79.3v3.3h-2.8v6.3c0,1.3,0,2,0.1,2.2c0.1,0.2,0.2,0.4,0.4,0.5c0.2,0.1,0.4,0.2,0.7,0.2c0.4,0,0.9-0.1,1.7-0.4l0.4,3.2
		c-1,0.4-2,0.6-3.3,0.6c-0.7,0-1.4-0.1-2-0.4c-0.6-0.2-1-0.6-1.3-1c-0.3-0.4-0.5-0.9-0.6-1.6c-0.1-0.5-0.1-1.4-0.1-2.9v-6.8h-1.9
		v-3.3h1.9v-3.1l4.1-2.4v5.5H480z"/>
	<rect x="482.8" y="73.4" width="4.1" height="21.5"/>
	<path d="M491.2,73.4h4.1v3.8h-4.1V73.4z M491.2,79.3h4.1v15.6h-4.1V79.3z"/>
	<path d="M513.1,83.9l-4.1,0.7c-0.1-0.8-0.4-1.4-0.9-1.8c-0.5-0.4-1.1-0.6-1.9-0.6c-1,0-1.8,0.4-2.5,1.1c-0.6,0.7-0.9,1.9-0.9,3.6
		c0,1.8,0.3,3.2,0.9,3.9c0.6,0.8,1.5,1.1,2.5,1.1c0.8,0,1.4-0.2,1.9-0.7c0.5-0.4,0.8-1.2,1.1-2.3l4,0.7c-0.4,1.9-1.2,3.3-2.4,4.2
		c-1.2,0.9-2.8,1.4-4.8,1.4c-2.3,0-4.1-0.7-5.4-2.2c-1.4-1.4-2-3.4-2-6c0-2.6,0.7-4.6,2-6c1.4-1.4,3.2-2.1,5.5-2.1
		c1.9,0,3.4,0.4,4.5,1.2C511.8,81,512.6,82.2,513.1,83.9"/>
	<path d="M520.3,73.4v7.9c1.3-1.6,2.9-2.3,4.8-2.3c0.9,0,1.8,0.2,2.6,0.5c0.8,0.3,1.3,0.8,1.7,1.3c0.4,0.5,0.6,1.2,0.8,1.8
		c0.1,0.7,0.2,1.7,0.2,3.1v9.1h-4.1v-8.2c0-1.6-0.1-2.7-0.2-3.1c-0.2-0.4-0.4-0.8-0.8-1c-0.4-0.3-0.9-0.4-1.5-0.4
		c-0.7,0-1.3,0.2-1.8,0.5c-0.5,0.3-0.9,0.8-1.2,1.5c-0.2,0.7-0.4,1.7-0.4,3v7.8h-4.1V73.4H520.3z"/>
	<path d="M543.5,89.9l4.1,0.7c-0.5,1.5-1.4,2.6-2.5,3.4c-1.1,0.8-2.6,1.2-4.3,1.2c-2.7,0-4.7-0.9-6-2.7c-1-1.4-1.5-3.2-1.5-5.4
		c0-2.6,0.7-4.6,2-6.1c1.3-1.5,3.1-2.2,5.1-2.2c2.3,0,4.1,0.8,5.5,2.3c1.3,1.5,2,3.9,1.9,7h-10.3c0,1.2,0.4,2.2,1,2.8
		c0.6,0.7,1.4,1,2.4,1c0.6,0,1.2-0.2,1.6-0.5C543,91.2,543.3,90.7,543.5,89.9 M543.8,85.7c0-1.2-0.3-2.1-0.9-2.7
		c-0.6-0.6-1.3-0.9-2.1-0.9c-0.9,0-1.6,0.3-2.2,1c-0.6,0.7-0.9,1.5-0.9,2.7H543.8z"/>
	<rect x="349.4" y="106.9" width="4.3" height="21.5"/>
	<path d="M372,128.3h-4.1v-7.9c0-1.7-0.1-2.8-0.3-3.3c-0.2-0.5-0.5-0.9-0.9-1.2c-0.4-0.3-0.9-0.4-1.4-0.4c-0.7,0-1.4,0.2-1.9,0.6
		c-0.6,0.4-1,0.9-1.2,1.6c-0.2,0.6-0.3,1.8-0.3,3.6v7h-4.1v-15.6h3.8v2.3c1.4-1.8,3.1-2.6,5.1-2.6c0.9,0,1.7,0.2,2.5,0.5
		c0.8,0.3,1.3,0.7,1.7,1.3c0.4,0.5,0.7,1.1,0.8,1.7c0.2,0.6,0.2,1.6,0.2,2.8V128.3z"/>
	<path d="M383.3,112.8v3.3h-2.8v6.3c0,1.3,0,2,0.1,2.2c0.1,0.2,0.2,0.4,0.4,0.5c0.2,0.1,0.4,0.2,0.7,0.2c0.4,0,0.9-0.1,1.7-0.4
		l0.4,3.2c-1,0.4-2,0.6-3.3,0.6c-0.7,0-1.4-0.1-2-0.4c-0.6-0.2-1-0.6-1.3-1c-0.3-0.4-0.5-0.9-0.6-1.6c-0.1-0.5-0.1-1.4-0.1-2.9v-6.8
		h-1.9v-3.3h1.9v-3.1l4.1-2.4v5.5H383.3z"/>
	<path d="M395.2,123.4l4.1,0.7c-0.5,1.5-1.4,2.6-2.5,3.4c-1.1,0.8-2.6,1.2-4.3,1.2c-2.7,0-4.7-0.9-6-2.7c-1-1.4-1.5-3.2-1.5-5.4
		c0-2.6,0.7-4.6,2-6.1c1.3-1.5,3.1-2.2,5.1-2.2c2.3,0,4.1,0.8,5.5,2.3c1.3,1.5,2,3.9,1.9,7h-10.3c0,1.2,0.4,2.2,1,2.8
		c0.6,0.7,1.4,1,2.4,1c0.6,0,1.2-0.2,1.6-0.5C394.6,124.7,395,124.2,395.2,123.4 M395.4,119.2c0-1.2-0.3-2.1-0.9-2.7
		c-0.6-0.6-1.3-0.9-2.1-0.9c-0.9,0-1.6,0.3-2.2,1c-0.6,0.7-0.9,1.5-0.9,2.7H395.4z"/>
	<rect x="402.9" y="106.9" width="4.1" height="21.5"/>
	<rect x="411.2" y="106.9" width="4.1" height="21.5"/>
	<path d="M419.5,106.9h4.1v3.8h-4.1V106.9z M419.5,112.8h4.1v15.6h-4.1V112.8z"/>
	<path d="M427.5,129.4l4.7,0.6c0.1,0.5,0.3,0.9,0.5,1.1c0.4,0.3,1,0.4,1.8,0.4c1.1,0,1.9-0.2,2.4-0.5c0.4-0.2,0.6-0.6,0.8-1
		c0.1-0.3,0.2-1,0.2-1.9v-2.3c-1.2,1.7-2.8,2.5-4.7,2.5c-2.1,0-3.7-0.9-5-2.7c-1-1.4-1.4-3.1-1.4-5.2c0-2.6,0.6-4.6,1.9-6
		c1.3-1.4,2.8-2.1,4.7-2.1c1.9,0,3.5,0.8,4.8,2.5v-2.2h3.9v14c0,1.8-0.2,3.2-0.5,4.1c-0.3,0.9-0.7,1.6-1.3,2.1
		c-0.5,0.5-1.3,0.9-2.2,1.2c-0.9,0.3-2.1,0.4-3.5,0.4c-2.6,0-4.5-0.5-5.6-1.4c-1.1-0.9-1.7-2-1.7-3.4
		C427.5,129.7,427.5,129.6,427.5,129.4 M431.2,120.2c0,1.7,0.3,2.9,1,3.6c0.6,0.8,1.4,1.2,2.4,1.2c1,0,1.9-0.4,2.5-1.2
		c0.7-0.8,1-1.9,1-3.5c0-1.6-0.3-2.8-1-3.6c-0.7-0.8-1.5-1.2-2.5-1.2c-1,0-1.8,0.4-2.4,1.2C431.5,117.5,431.2,118.7,431.2,120.2"/>
	<path d="M455.2,123.4l4.1,0.7c-0.5,1.5-1.4,2.6-2.5,3.4c-1.1,0.8-2.6,1.2-4.3,1.2c-2.7,0-4.7-0.9-6-2.7c-1-1.4-1.5-3.2-1.5-5.4
		c0-2.6,0.7-4.6,2-6.1c1.3-1.5,3.1-2.2,5.1-2.2c2.3,0,4.1,0.8,5.5,2.3c1.3,1.5,2,3.9,1.9,7h-10.3c0,1.2,0.4,2.2,1,2.8
		c0.6,0.7,1.4,1,2.4,1c0.6,0,1.2-0.2,1.6-0.5C454.7,124.7,455,124.2,455.2,123.4 M455.4,119.2c0-1.2-0.3-2.1-0.9-2.7
		c-0.6-0.6-1.3-0.9-2.1-0.9c-0.9,0-1.6,0.3-2.2,1c-0.6,0.7-0.9,1.5-0.9,2.7H455.4z"/>
	<path d="M477,128.3h-4.1v-7.9c0-1.7-0.1-2.8-0.3-3.3c-0.2-0.5-0.5-0.9-0.9-1.2c-0.4-0.3-0.9-0.4-1.4-0.4c-0.7,0-1.4,0.2-1.9,0.6
		c-0.6,0.4-1,0.9-1.2,1.6c-0.2,0.6-0.3,1.8-0.3,3.6v7h-4.1v-15.6h3.8v2.3c1.4-1.8,3.1-2.6,5.1-2.6c0.9,0,1.7,0.2,2.5,0.5
		c0.8,0.3,1.3,0.7,1.7,1.3c0.4,0.5,0.7,1.1,0.8,1.7c0.2,0.6,0.2,1.6,0.2,2.8V128.3z"/>
	<path d="M479.6,128.3v-3.2l5.8-6.7c1-1.1,1.7-1.9,2.1-2.3c-0.5,0-1.1,0-1.9,0.1l-5.5,0v-3.4H493v2.9l-5.9,6.9l-2.1,2.3
		c1.1-0.1,1.8-0.1,2.1-0.1h6.4v3.6H479.6z"/>
	<path d="M514.6,120.4v-3.6h9.3v8.6c-0.9,0.9-2.2,1.7-3.9,2.3c-1.7,0.7-3.5,1-5.2,1c-2.2,0-4.2-0.5-5.9-1.4c-1.7-0.9-2.9-2.3-3.8-4
		c-0.8-1.8-1.3-3.7-1.3-5.7c0-2.2,0.5-4.2,1.4-6c0.9-1.7,2.3-3.1,4.1-4c1.4-0.7,3.1-1.1,5.1-1.1c2.7,0,4.7,0.6,6.2,1.7
		c1.5,1.1,2.5,2.7,2.9,4.6l-4.3,0.8c-0.3-1.1-0.9-1.9-1.7-2.5c-0.8-0.6-1.9-0.9-3.1-0.9c-1.9,0-3.4,0.6-4.5,1.8
		c-1.1,1.2-1.7,3-1.7,5.3c0,2.5,0.6,4.5,1.7,5.7c1.1,1.3,2.6,1.9,4.5,1.9c0.9,0,1.8-0.2,2.7-0.5c0.9-0.4,1.7-0.8,2.4-1.3v-2.7H514.6
		z"/>
	<path d="M527.6,112.8h3.8v2.1c1.4-1.7,3-2.5,4.8-2.5c1,0,1.9,0.2,2.6,0.6c0.7,0.4,1.3,1,1.8,1.9c0.7-0.8,1.4-1.5,2.2-1.9
		c0.8-0.4,1.6-0.6,2.5-0.6c1.1,0,2.1,0.2,2.9,0.7c0.8,0.5,1.4,1.1,1.8,2c0.3,0.7,0.4,1.7,0.4,3.2v9.9h-4.1v-8.9c0-1.5-0.1-2.5-0.4-3
		c-0.4-0.6-1-0.9-1.8-0.9c-0.6,0-1.1,0.2-1.6,0.5c-0.5,0.4-0.9,0.9-1.1,1.5c-0.2,0.7-0.3,1.8-0.3,3.2v7.5H537v-8.5
		c0-1.5-0.1-2.5-0.2-2.9c-0.1-0.4-0.4-0.8-0.7-1c-0.3-0.2-0.7-0.3-1.3-0.3c-0.6,0-1.2,0.2-1.7,0.5c-0.5,0.3-0.9,0.8-1.1,1.5
		c-0.2,0.6-0.3,1.7-0.3,3.2v7.6h-4.1V112.8z"/>
	<path d="M554.4,128.3v-21.5h4.1v7.7c1.3-1.4,2.8-2.2,4.5-2.2c1.9,0,3.5,0.7,4.7,2.1c1.2,1.4,1.9,3.3,1.9,5.9c0,2.7-0.6,4.7-1.9,6.1
		c-1.3,1.4-2.8,2.2-4.6,2.2c-0.9,0-1.8-0.2-2.6-0.7c-0.9-0.4-1.6-1.1-2.2-2v2.3H554.4z M558.5,120.2c0,1.6,0.3,2.8,0.8,3.6
		c0.7,1.1,1.7,1.6,2.8,1.6c0.9,0,1.7-0.4,2.3-1.2c0.6-0.8,1-2,1-3.7c0-1.8-0.3-3.1-1-3.8c-0.6-0.8-1.5-1.2-2.5-1.2
		c-1,0-1.8,0.4-2.5,1.1C558.8,117.5,558.5,118.7,558.5,120.2"/>
	<polygon points="572.9,128.3 572.9,106.9 577.3,106.9 577.3,115.3 585.8,115.3 585.8,106.9 590.1,106.9 590.1,128.3 585.8,128.3 
		585.8,118.9 577.3,118.9 577.3,128.3 	"/>
</g>
<rect y="0" class="st4" width="652.1" height="135.6"/>
</svg>
