<?xml version="1.0" encoding="utf-8"?>
<!-- Generator: Adobe Illustrator 24.3.0, SVG Export Plug-In . SVG Version: 6.00 Build 0)  -->
<svg version="1.1" id="Ebene_1" xmlns="http://www.w3.org/2000/svg" xmlns:xlink="http://www.w3.org/1999/xlink" x="0px" y="0px"
	 viewBox="0 0 1078.9 295" style="enable-background:new 0 0 1078.9 295;" xml:space="preserve">
<g>
	<path d="M593.4,89.9v75.5c0,45-33.7,75.5-75.3,75.5s-75.3-30.5-75.3-75.5c0-6.5,0-75.5,0-75.5h38.1c0,13.7,0,69.4,0,72.2
		c0,23.3,16.6,39.3,37.1,39.3s37.1-15.9,37.1-39.3V89.9H593.4z"/>
	<path d="M135.5,237H97.4V41.7h38.1v53.5c11-5.9,23.6-9.2,37.1-9.2c41.6,0,75.3,30.5,75.3,75.5V237h-38.1v-72.2
		c0-23.3-16.6-39.3-37.1-39.3s-37.2,16-37.2,39.3V237z"/>
	<path d="M308.9,237h-38.1V41.7h38.1v53.5c11-5.9,23.6-9.2,37.1-9.2c41.6,0,75.3,30.5,75.3,75.5V237h-38.1v-72.2
		c0-23.3-16.6-39.3-37.1-39.3S309,141.4,309,164.8L308.9,237L308.9,237z"/>
	<path d="M891.6,202.4c-0.5-0.3-1.2-0.5-2.2-0.8c-1-0.2-2-0.3-3.2-0.3c-1.6,0-3,0.3-4.2,0.8c-1.3,0.6-2.3,1.5-3.2,2.9
		c-0.7,1-1.1,2.1-1.2,3.4c-0.1,1.2-0.2,1.6-0.2,2.7v2.8h-4.2v2.6h4.2V237h4v-20.5h6.5v-2.6h-6.5v-2.6c0-0.9,0-1.1,0.1-2.1
		s0.2-1.9,0.5-2.7c0.3-0.8,0.7-1.5,1.3-2s1.3-0.8,2.3-0.8s1.9,0.2,2.7,0.5s1.4,0.7,1.9,1.1L891.6,202.4z M854.1,237h4v-11.1
		c0-0.8,0-1.5,0.1-2.3s0.2-1.5,0.3-2.2c0.4-1.4,1-2.6,1.7-3.6c0.8-1,1.6-1.5,2.6-1.5c1.6,0,2.5,0.9,2.6,2.6l3.5-1.2
		c0-0.8-0.2-1.4-0.5-2s-0.6-1-1.1-1.3c-0.4-0.3-0.9-0.6-1.4-0.7c-0.5-0.2-1-0.2-1.5-0.2c-1.4,0-2.6,0.4-3.6,1.2
		c-1,0.8-1.9,1.8-2.6,3.1l-0.5-4l-4,0.4c0,0.2,0.1,0.5,0.1,0.9c0.1,0.4,0.1,0.9,0.2,1.5c0.1,0.6,0.1,1.1,0.1,1.7s0.1,1.2,0.1,1.7
		L854.1,237L854.1,237z M840.7,232c-1.2,1.7-3,2.6-5.2,2.6s-3.9-0.9-5.2-2.6c-1.2-1.7-1.8-4-1.8-6.9c0-2.8,0.6-5.1,1.8-6.8
		c1.2-1.7,2.9-2.5,5.2-2.5c2.2,0,4,0.8,5.2,2.5s1.8,3.9,1.8,6.8C842.6,228,842,230.3,840.7,232 M846.3,220.3
		c-0.5-1.5-1.2-2.8-2.2-3.8c-1-1.1-2.2-1.9-3.6-2.5c-1.4-0.6-3.1-0.9-5-0.9s-3.5,0.3-4.9,0.9s-2.6,1.4-3.6,2.5s-1.7,2.3-2.2,3.8
		s-0.7,3.2-0.7,5c0,1.9,0.3,3.6,0.9,5.1c0.6,1.5,1.4,2.8,2.4,3.9s2.3,1.9,3.7,2.5s2.9,0.9,4.5,0.9s3.1-0.3,4.5-0.9s2.6-1.4,3.7-2.5
		c1-1.1,1.9-2.4,2.4-3.9c0.6-1.5,0.9-3.2,0.9-5.1C847.1,223.5,846.8,221.8,846.3,220.3 M813.6,237.3l4-0.4c0-0.2-0.1-0.5-0.1-0.9
		c-0.1-0.4-0.1-0.9-0.2-1.5c-0.1-0.5-0.1-1.1-0.1-1.7s-0.1-1.2-0.1-1.7v-29.5h-3.9v15.7c-0.6-1.1-1.5-2-2.8-2.8s-2.8-1.2-4.5-1.2
		c-1.5,0-2.8,0.3-4.1,0.8s-2.4,1.3-3.4,2.3s-1.7,2.3-2.3,3.9s-0.9,3.4-0.9,5.4c0,1.7,0.2,3.2,0.6,4.7c0.4,1.5,1,2.7,1.9,3.9
		c0.8,1.1,1.9,2,3.2,2.6s2.8,0.9,4.6,0.9c1.1,0,2.1-0.2,3-0.5c0.8-0.3,1.6-0.7,2.1-1.2c0.6-0.5,1.1-0.9,1.4-1.5
		c0.4-0.5,0.6-1,0.8-1.3L813.6,237.3z M812.6,230.1c-0.5,1.3-1.2,2.2-2,2.9c-0.8,0.7-1.6,1.1-2.4,1.4c-0.8,0.2-1.5,0.3-2.1,0.3
		c-1.1,0-2-0.2-2.8-0.7s-1.4-1.1-2-2c-0.5-0.8-0.9-1.8-1.2-3s-0.4-2.4-0.4-3.7c0-1.4,0.2-2.6,0.5-3.8c0.3-1.1,0.8-2.1,1.4-2.9
		c0.6-0.8,1.3-1.4,2.1-1.9c0.8-0.4,1.7-0.7,2.7-0.7c0.9,0,1.8,0.2,2.7,0.5c0.8,0.3,1.6,0.9,2.2,1.6c0.6,0.7,1.1,1.7,1.5,2.8
		c0.4,1.1,0.6,2.5,0.6,4.1C813.4,227.1,813.1,228.8,812.6,230.1 M788.1,201.5h-4.2V237h4.2V201.5z M770.7,217.6
		c0.9,1.3,1.4,3,1.4,5.1v0.8h-11.6c0.1-1,0.4-2,0.7-2.9c0.4-0.9,0.8-1.8,1.4-2.5c0.6-0.7,1.2-1.3,2-1.7c0.8-0.4,1.6-0.6,2.6-0.6
		C768.6,215.7,769.7,216.4,770.7,217.6 M776.2,226.1v-2.3c0-1.3-0.2-2.6-0.5-3.9s-0.8-2.4-1.5-3.4s-1.7-1.8-2.9-2.4
		s-2.7-0.9-4.5-0.9c-1.5,0-2.9,0.3-4.2,0.9s-2.4,1.4-3.4,2.5s-1.7,2.4-2.3,3.9s-0.8,3.2-0.8,5c0,4,0.9,7.1,2.8,9.2
		c1.9,2.1,4.7,3.1,8.4,3.1c1.9,0,3.6-0.4,5.1-1.2c1.5-0.8,2.8-1.9,4.1-3.4l-1.7-1.7c-1.6,1.4-2.9,2.3-4,2.7
		c-1.1,0.4-2.2,0.6-3.3,0.6c-2.4,0-4.1-0.7-5.3-2.2s-1.8-3.6-2-6.4h16V226.1z M749.5,227.4c-0.4-0.8-1-1.5-1.7-2
		c-0.7-0.6-1.5-1-2.3-1.3s-1.6-0.6-2.4-0.8c-1.5-0.4-2.7-0.9-3.6-1.6c-0.9-0.7-1.4-1.7-1.4-2.8c0-0.9,0.4-1.7,1.2-2.3
		c0.8-0.6,1.8-0.9,3.1-0.9s2.3,0.2,3.1,0.7c0.7,0.5,1.4,1,1.9,1.5l2-2.6c-0.6-0.5-1.4-1-2.5-1.4c-1.1-0.5-2.5-0.7-4.4-0.7
		c-1.1,0-2.2,0.1-3.2,0.4s-1.9,0.7-2.7,1.2s-1.4,1.2-1.8,2s-0.7,1.7-0.7,2.8c0,1.2,0.2,2.3,0.6,3.1c0.4,0.8,1,1.5,1.7,2.1
		c0.7,0.5,1.4,1,2.2,1.3s1.5,0.6,2.2,0.8c1.5,0.4,2.7,0.9,3.6,1.6c0.9,0.6,1.4,1.6,1.4,3.1c0,1.2-0.4,2.2-1.1,2.8
		c-0.7,0.7-1.8,1-3.1,1c-0.7,0-1.4-0.1-2-0.3c-0.6-0.2-1.2-0.5-1.7-0.9s-1-0.7-1.4-1.1s-0.7-0.7-1-1l-2,3.2c2.2,1.8,5,2.6,8.1,2.6
		c1.2,0,2.3-0.2,3.3-0.5s1.9-0.8,2.7-1.4s1.3-1.4,1.8-2.3c0.4-0.9,0.7-2,0.7-3.2C750.2,229.2,750,228.2,749.5,227.4 M727.2,227.4
		c-0.4-0.8-1-1.5-1.7-2c-0.7-0.6-1.5-1-2.3-1.3s-1.6-0.6-2.4-0.8c-1.5-0.4-2.7-0.9-3.6-1.6c-0.9-0.7-1.4-1.7-1.4-2.8
		c0-0.9,0.4-1.7,1.2-2.3c0.8-0.6,1.8-0.9,3.1-0.9s2.3,0.2,3.1,0.7c0.7,0.5,1.4,1,1.9,1.5l2-2.6c-0.6-0.5-1.4-1-2.5-1.4
		c-1.1-0.5-2.5-0.7-4.4-0.7c-1.1,0-2.2,0.1-3.2,0.4s-1.9,0.7-2.7,1.2s-1.4,1.2-1.8,2c-0.5,0.8-0.7,1.7-0.7,2.8
		c0,1.2,0.2,2.3,0.6,3.1c0.4,0.8,1,1.5,1.7,2.1c0.7,0.5,1.4,1,2.2,1.3s1.5,0.6,2.2,0.8c1.5,0.4,2.7,0.9,3.6,1.6
		c0.9,0.6,1.4,1.6,1.4,3.1c0,1.2-0.4,2.2-1.1,2.8c-0.7,0.7-1.8,1-3.1,1c-0.7,0-1.4-0.1-2-0.3c-0.6-0.2-1.2-0.5-1.7-0.9
		s-1-0.7-1.4-1.1s-0.7-0.7-1-1l-2,3.2c2.2,1.8,5,2.6,8.1,2.6c1.2,0,2.3-0.2,3.3-0.5s1.9-0.8,2.7-1.4s1.3-1.4,1.8-2.3
		c0.4-0.9,0.7-2,0.7-3.2C727.9,229.2,727.7,228.2,727.2,227.4 M690.7,204c-0.5-0.5-1.1-0.7-1.8-0.7s-1.3,0.2-1.7,0.7
		c-0.5,0.5-0.7,1-0.7,1.7c0,0.6,0.2,1.2,0.7,1.7s1.1,0.7,1.7,0.7c0.7,0,1.3-0.2,1.8-0.7s0.7-1,0.7-1.7S691.2,204.5,690.7,204
		 M700.6,204c-0.5-0.5-1.1-0.7-1.7-0.7c-0.7,0-1.3,0.2-1.8,0.7s-0.7,1-0.7,1.7c0,0.6,0.2,1.2,0.7,1.7s1.1,0.7,1.8,0.7
		s1.3-0.2,1.7-0.7c0.5-0.5,0.7-1,0.7-1.7C701.4,205,701.1,204.5,700.6,204 M684,213.8v14.6c0,1.2,0.1,2.4,0.2,3.5
		c0.1,1.1,0.4,2.1,1,3c0.5,0.8,1.3,1.5,2.4,2c1.1,0.5,2.6,0.8,4.5,0.8c1.2,0,2.3-0.2,3.2-0.6s1.7-0.8,2.3-1.3s1.1-1,1.5-1.5
		s0.6-0.9,0.8-1.1l0.5,4l4-0.4c0-0.2-0.1-0.5-0.1-0.9c-0.1-0.4-0.1-0.9-0.2-1.5c-0.1-0.5-0.1-1.1-0.1-1.7s-0.1-1.2-0.1-1.7v-17.2
		h-4.2v13c0,1.1-0.2,2.1-0.5,3c-0.3,1-0.8,1.8-1.4,2.5c-0.6,0.7-1.3,1.3-2.1,1.7c-0.8,0.4-1.7,0.6-2.7,0.6c-1.1,0-1.9-0.1-2.6-0.4
		c-0.7-0.3-1.2-0.7-1.5-1.2s-0.6-1.2-0.7-2c-0.1-0.8-0.2-1.7-0.2-2.6v-14.6L684,213.8L684,213.8z M670.9,227.2
		c-0.7,1.8-1.6,3.3-2.8,4.3c-1.2,1.1-2.5,1.8-4.1,2.2c-1.5,0.4-3.2,0.6-4.9,0.6c-0.7,0-1.4,0-2-0.1c-0.7,0-1.4-0.1-2.3-0.2
		l-0.2-28.1c0.6,0,1.2-0.1,1.8-0.1h1.8c4.7,0,8.1,1.2,10.2,3.5c2.1,2.3,3.4,6.3,3.4,10.8C671.9,223,671.6,225.4,670.9,227.2
		 M675.3,212.3c-0.8-2-2-3.7-3.5-5.1c-1.5-1.3-3.3-2.3-5.5-3c-2.1-0.7-4.5-1-7.2-1c-1.1,0-2,0-2.6,0s-1.2,0-1.8,0.1
		c-0.5,0-1.1,0-1.8,0.1c-0.6,0-1.5,0-2.6,0.1l0.2,33.6c1,0,2.3,0,3.8,0.1c1.5,0,3.2,0.1,4.9,0.1c1.8,0,3.7-0.2,5.7-0.7
		s3.9-1.3,5.6-2.5c1.7-1.2,3.1-3,4.3-5.2c1.1-2.2,1.7-5.1,1.7-8.6C676.7,217.4,676.1,214.4,675.3,212.3"/>
	<path d="M887.1,176.8c-0.5,0.2-0.9,0.4-1.4,0.6c-0.4,0.1-0.9,0.2-1.4,0.2c-0.3,0-0.6-0.1-1-0.2c-0.4-0.1-0.7-0.2-0.9-0.4
		c-0.5-0.4-0.8-0.9-0.9-1.4c-0.1-0.6-0.1-1.4-0.1-2.6v-13.7h5.5v-2.6h-5.4v-6.8l-4,0.9v5.9h-4v2.6h3.9v14.1c0,1.2,0,2.2,0.1,3.1
		c0.1,0.9,0.4,1.6,0.8,2.2c0.5,0.7,1.1,1.1,1.9,1.4c0.8,0.3,1.6,0.4,2.5,0.4s1.8-0.1,2.7-0.4c0.9-0.3,1.7-0.7,2.3-1.2L887.1,176.8z
		 M855.5,146.9c-0.5-0.5-1-0.7-1.8-0.7c-0.7,0-1.3,0.2-1.7,0.7c-0.5,0.5-0.7,1-0.7,1.7s0.2,1.2,0.7,1.7s1.1,0.7,1.7,0.7
		c0.7,0,1.3-0.2,1.8-0.7s0.7-1,0.7-1.7S856,147.4,855.5,146.9 M865.4,146.9c-0.5-0.5-1.1-0.7-1.7-0.7c-0.7,0-1.3,0.2-1.8,0.7
		s-0.7,1-0.7,1.7s0.2,1.2,0.7,1.7s1,0.7,1.8,0.7c0.7,0,1.3-0.2,1.7-0.7c0.5-0.5,0.7-1,0.7-1.7S865.8,147.4,865.4,146.9 M862.8,170.7
		c0,0.7-0.1,1.4-0.1,2c-0.1,0.9-0.4,1.6-0.8,2.2c-0.4,0.6-0.9,1.1-1.4,1.5s-1.1,0.6-1.6,0.8c-0.6,0.2-1,0.2-1.4,0.2
		c-0.5,0-1-0.1-1.5-0.2c-0.5-0.1-0.9-0.4-1.3-0.7c-0.4-0.3-0.7-0.7-0.9-1.2s-0.3-1.2-0.3-1.9c0-0.8,0.2-1.4,0.5-2
		c0.3-0.5,0.7-1,1.2-1.3s0.9-0.6,1.4-0.8s0.9-0.3,1.3-0.4c0.4-0.1,0.9-0.2,1.4-0.2s1-0.1,1.5-0.1s0.9-0.1,1.3-0.1h0.9
		C862.8,169.4,862.8,170,862.8,170.7 M870.3,177.2c-0.6,0.2-1.3,0.3-1.9,0.3c-0.5,0-0.9-0.2-1.2-0.5s-0.5-1-0.5-2.1v-12.2
		c0-0.4,0-0.9,0-1.3c0-0.5-0.1-0.9-0.2-1.4c-0.1-0.5-0.3-0.9-0.5-1.3s-0.6-0.8-1-1.1c-0.9-0.7-1.9-1.2-3.1-1.4
		c-1.1-0.2-2.2-0.3-3.2-0.3s-1.9,0.1-2.8,0.3c-0.9,0.2-1.8,0.5-2.6,0.9s-1.4,1-2,1.7s-0.9,1.6-1.1,2.6l3.2,1.1
		c0.1-0.5,0.2-1,0.4-1.5s0.5-0.9,0.8-1.2c0.4-0.4,0.9-0.7,1.5-0.9s1.4-0.3,2.3-0.3c0.5,0,1,0,1.4,0.1c0.5,0.1,0.9,0.2,1.3,0.4
		c0.6,0.3,1,0.7,1.3,1.2c0.2,0.5,0.4,1.2,0.4,2.1v4c-1.2,0-2.2,0-3.1,0.1c-0.9,0-1.7,0.1-2.5,0.2c-1.1,0.2-2.2,0.5-3.1,0.8
		c-1,0.4-1.8,0.9-2.5,1.5s-1.3,1.3-1.7,2.2c-0.4,0.8-0.6,1.8-0.6,2.8c0,1.1,0.2,2,0.6,2.8c0.4,0.8,0.9,1.5,1.5,2s1.3,0.9,2.1,1.2
		s1.6,0.4,2.4,0.4c1.9,0,3.5-0.4,4.7-1.3c1.2-0.8,2-1.8,2.5-2.9c0.1,1.1,0.5,2,1.1,2.7c0.6,0.8,1.5,1.2,2.7,1.2c0.7,0,1.4-0.1,2-0.2
		c0.7-0.1,1.1-0.2,1.4-0.3L870.3,177.2L870.3,177.2z M843.5,176.8c-0.5,0.2-0.9,0.4-1.4,0.6c-0.4,0.1-0.9,0.2-1.4,0.2
		c-0.3,0-0.6-0.1-1-0.2c-0.4-0.1-0.7-0.2-0.9-0.4c-0.5-0.4-0.8-0.9-0.9-1.4c-0.1-0.6-0.1-1.4-0.1-2.6v-13.7h5.5v-2.6h-5.5v-6.8
		l-4,0.9v5.9h-3.9v2.6h3.9v14.1c0,1.2,0,2.2,0.1,3.1c0.1,0.9,0.4,1.6,0.8,2.2c0.5,0.7,1.1,1.1,1.9,1.4c0.8,0.3,1.6,0.4,2.5,0.4
		s1.8-0.1,2.7-0.4c0.9-0.3,1.7-0.7,2.3-1.2L843.5,176.8z M822.9,156.6h-4.3v23.2h4.3V156.6z M822.7,145.3c-0.5-0.5-1.2-0.8-1.9-0.8
		s-1.4,0.3-1.9,0.8s-0.8,1.2-0.8,1.9s0.3,1.3,0.8,1.8s1.2,0.8,1.9,0.8s1.3-0.3,1.9-0.8s0.8-1.1,0.8-1.8S823.2,145.9,822.7,145.3
		 M810.4,170.1c-0.4-0.8-1-1.5-1.7-2c-0.7-0.6-1.4-1-2.3-1.3c-0.8-0.3-1.6-0.6-2.4-0.8c-1.5-0.4-2.6-0.9-3.5-1.6
		c-0.9-0.7-1.4-1.7-1.4-2.8c0-0.9,0.4-1.7,1.2-2.3s1.8-0.9,3.1-0.9s2.3,0.2,3.1,0.7c0.7,0.5,1.4,1,1.9,1.5l2-2.6
		c-0.6-0.5-1.4-1-2.5-1.4c-1.1-0.5-2.5-0.7-4.3-0.7c-1.1,0-2.1,0.1-3.1,0.4c-1,0.3-1.9,0.7-2.6,1.2c-0.8,0.5-1.4,1.2-1.8,2
		c-0.5,0.8-0.7,1.7-0.7,2.8c0,1.2,0.2,2.3,0.6,3.1c0.4,0.8,1,1.5,1.6,2.1c0.7,0.5,1.4,1,2.2,1.3s1.5,0.6,2.2,0.8
		c1.5,0.4,2.7,0.9,3.6,1.6c0.9,0.6,1.4,1.6,1.4,3.1c0,1.2-0.4,2.2-1.1,2.8c-0.7,0.7-1.8,1-3.1,1c-0.7,0-1.4-0.1-2-0.3
		s-1.2-0.5-1.7-0.9s-1-0.7-1.4-1.1c-0.4-0.4-0.7-0.7-1-1l-2,3.2c2.2,1.8,4.9,2.6,8.1,2.6c1.2,0,2.3-0.2,3.3-0.5s1.9-0.8,2.7-1.4
		c0.7-0.6,1.3-1.4,1.8-2.3c0.4-0.9,0.7-2,0.7-3.2C811.1,171.9,810.8,170.9,810.4,170.1 M776.2,179.7h3.9v-11.1c0-0.8,0-1.5,0.1-2.3
		s0.2-1.5,0.3-2.2c0.4-1.4,1-2.6,1.7-3.6c0.8-1,1.6-1.5,2.6-1.5c1.6,0,2.4,0.9,2.6,2.6l3.5-1.2c0-0.8-0.2-1.4-0.5-2s-0.6-1-1.1-1.3
		s-0.9-0.6-1.4-0.7c-0.5-0.2-1-0.2-1.5-0.2c-1.4,0-2.6,0.4-3.6,1.2s-1.9,1.8-2.6,3.1l-0.5-4l-4,0.4c0,0.2,0.1,0.5,0.1,0.9
		c0.1,0.4,0.1,0.9,0.2,1.5c0.1,0.6,0.1,1.1,0.1,1.7c0,0.6,0.1,1.2,0.1,1.7L776.2,179.7L776.2,179.7z M763.3,160.3
		c0.9,1.3,1.4,3,1.4,5.1v0.8h-11.5c0.1-1,0.4-2,0.7-2.9c0.4-0.9,0.8-1.8,1.4-2.5c0.5-0.7,1.2-1.3,2-1.7s1.6-0.6,2.6-0.6
		C761.2,158.4,762.4,159.1,763.3,160.3 M768.8,168.8v-2.3c0-1.3-0.2-2.6-0.5-3.9c-0.3-1.3-0.8-2.4-1.5-3.4s-1.7-1.8-2.8-2.4
		c-1.2-0.6-2.7-0.9-4.5-0.9c-1.5,0-2.9,0.3-4.2,0.9c-1.3,0.6-2.4,1.4-3.4,2.5s-1.7,2.4-2.3,3.9s-0.8,3.2-0.8,5c0,4,0.9,7.1,2.8,9.2
		c1.9,2.1,4.7,3.1,8.4,3.1c1.9,0,3.6-0.4,5.1-1.2s2.8-1.9,4.1-3.4l-1.7-1.7c-1.6,1.4-2.9,2.3-4,2.7s-2.2,0.6-3.3,0.6
		c-2.3,0-4.1-0.7-5.3-2.2s-1.8-3.6-2-6.4h15.9V168.8z M727.8,156.6h-4.6l9.5,23.6h3.4l9.7-23.6H742l-6.2,16.3
		c-0.6,1.6-0.9,2.8-1,3.6c-0.1-0.4-0.2-0.9-0.3-1.5s-0.4-1.4-0.7-2.3L727.8,156.6z M717.4,156.6h-4.3v23.2h4.3V156.6z M717.2,145.3
		c-0.5-0.5-1.2-0.8-1.9-0.8s-1.4,0.3-1.9,0.8s-0.8,1.2-0.8,1.9s0.3,1.3,0.8,1.8s1.2,0.8,1.9,0.8s1.3-0.3,1.9-0.8
		c0.5-0.5,0.8-1.1,0.8-1.8S717.7,145.9,717.2,145.3 M704.7,179.7v-14.6c0-1.2-0.1-2.4-0.2-3.5c-0.1-1.1-0.4-2.1-1-3
		c-0.5-0.8-1.3-1.5-2.4-2c-1.1-0.5-2.6-0.8-4.5-0.8c-1.2,0-2.3,0.2-3.2,0.6c-0.9,0.4-1.7,0.8-2.3,1.3s-1.1,1-1.5,1.5
		s-0.6,0.9-0.8,1.1l-0.5-4l-4,0.4c0,0.2,0.1,0.5,0.1,0.9c0.1,0.4,0.1,0.9,0.2,1.5c0.1,0.6,0.1,1.1,0.1,1.7c0,0.6,0.1,1.2,0.1,1.7
		v17.2h4.2v-13c0-1.1,0.2-2.1,0.5-3c0.3-1,0.8-1.8,1.4-2.5c0.6-0.7,1.3-1.3,2.1-1.7s1.7-0.6,2.6-0.6c1.1,0,1.9,0.1,2.6,0.4
		c0.7,0.3,1.2,0.7,1.5,1.2s0.6,1.2,0.7,2c0.1,0.8,0.2,1.7,0.2,2.6v14.6L704.7,179.7L704.7,179.7z M676.1,146.8h-4.2v20.3
		c0,2.2-0.2,4-0.7,5.4c-0.4,1.4-1.1,2.5-1.8,3.3c-0.8,0.8-1.7,1.4-2.7,1.7s-2.2,0.4-3.4,0.4s-2.4-0.1-3.4-0.4c-1-0.3-2-0.9-2.7-1.7
		c-0.8-0.8-1.4-1.9-1.8-3.3s-0.7-3.2-0.7-5.4v-20.3h-4.3v20.6c0,4.9,1.1,8.3,3.2,10.3c2.2,2,5.4,3.1,9.7,3.1s7.5-1,9.6-3.1
		s3.2-5.5,3.2-10.3L676.1,146.8L676.1,146.8z"/>
	<path d="M960.3,103.5c0.9,1.3,1.3,3,1.3,5.1v0.8h-11.5c0.1-1,0.4-2,0.7-2.9s0.8-1.8,1.3-2.5s1.2-1.3,2-1.7s1.6-0.6,2.6-0.6
		C958.2,101.6,959.4,102.2,960.3,103.5 M965.8,112v-2.3c0-1.3-0.1-2.6-0.4-3.9s-0.8-2.4-1.5-3.4s-1.6-1.8-2.8-2.4
		c-1.2-0.6-2.7-0.9-4.5-0.9c-1.5,0-2.9,0.3-4.1,0.9c-1.3,0.6-2.4,1.4-3.4,2.5c-0.9,1.1-1.7,2.4-2.2,3.9s-0.8,3.2-0.8,5
		c0,4,0.9,7.1,2.8,9.2c1.9,2.1,4.6,3.1,8.3,3.1c1.9,0,3.6-0.4,5-1.2s2.8-1.9,4.1-3.4l-1.6-1.7c-1.5,1.4-2.9,2.3-4,2.7
		s-2.2,0.6-3.2,0.6c-2.3,0-4.1-0.7-5.2-2.2c-1.2-1.5-1.8-3.6-2-6.4h15.5V112z M939.7,122.9v-14.6c0-1.2-0.1-2.4-0.2-3.5
		c-0.1-1.1-0.4-2.1-0.9-3c-0.5-0.8-1.3-1.5-2.4-2c-1.1-0.5-2.6-0.8-4.5-0.8c-1.2,0-2.2,0.2-3.1,0.6c-0.9,0.4-1.7,0.8-2.3,1.3
		s-1.1,1-1.5,1.5s-0.6,0.9-0.8,1.1l-0.5-4l-4,0.4c0,0.2,0.1,0.5,0.1,0.9c0.1,0.4,0.1,0.9,0.2,1.5c0.1,0.6,0.1,1.1,0.1,1.7
		c0,0.6,0.1,1.2,0.1,1.7v17.2h4.1v-13c0-1.1,0.2-2.1,0.5-3c0.3-1,0.8-1.8,1.4-2.5c0.6-0.7,1.3-1.3,2.1-1.7s1.7-0.6,2.6-0.6
		c1.1,0,1.9,0.1,2.6,0.4c0.7,0.3,1.1,0.7,1.5,1.2c0.3,0.5,0.6,1.2,0.7,2s0.2,1.7,0.2,2.6v14.6L939.7,122.9L939.7,122.9z M911.5,99.7
		h-4.2v23.2h4.2V99.7z M911.3,88.5c-0.5-0.5-1.1-0.8-1.8-0.8s-1.4,0.3-1.9,0.8s-0.8,1.2-0.8,1.9s0.3,1.3,0.8,1.8s1.2,0.8,1.9,0.8
		s1.3-0.3,1.8-0.8s0.8-1.1,0.8-1.8S911.8,89,911.3,88.5 M894.8,103.5c0.9,1.3,1.3,3,1.3,5.1v0.8h-11.5c0.1-1,0.4-2,0.7-2.9
		c0.4-0.9,0.8-1.8,1.3-2.5s1.2-1.3,2-1.7s1.6-0.6,2.6-0.6C892.8,101.6,893.9,102.2,894.8,103.5 M900.3,112v-2.3
		c0-1.3-0.1-2.6-0.4-3.9c-0.3-1.3-0.8-2.4-1.5-3.4s-1.6-1.8-2.8-2.4c-1.2-0.6-2.7-0.9-4.5-0.9c-1.5,0-2.9,0.3-4.1,0.9
		c-1.3,0.6-2.4,1.4-3.4,2.5c-0.9,1.1-1.7,2.4-2.2,3.9s-0.8,3.2-0.8,5c0,4,0.9,7.1,2.8,9.2c1.9,2.1,4.6,3.1,8.3,3.1
		c1.9,0,3.6-0.4,5-1.2s2.8-1.9,4.1-3.4l-1.6-1.7c-1.5,1.4-2.9,2.3-4,2.7s-2.2,0.6-3.2,0.6c-2.3,0-4.1-0.7-5.2-2.2
		c-1.2-1.5-1.8-3.6-2-6.4h15.5V112z M852.9,122.9v-15.7h16.2v15.7h4.2V90h-4.2v14.3h-16.2V90h-4.2v32.9H852.9z M809,87h-4.1v35.9
		h4.1v-13c0-1.1,0.2-2.1,0.5-3c0.3-1,0.8-1.8,1.4-2.5c0.6-0.7,1.3-1.3,2.1-1.7s1.7-0.6,2.6-0.6c1.1,0,1.9,0.1,2.6,0.4
		c0.7,0.3,1.1,0.7,1.5,1.2c0.3,0.5,0.6,1.2,0.7,2c0.1,0.8,0.2,1.7,0.2,2.6v14.6h4.1v-14.6c0-1.2-0.1-2.4-0.2-3.5
		c-0.1-1.1-0.4-2.1-1-3c-0.5-0.8-1.3-1.5-2.4-2c-1.1-0.5-2.6-0.8-4.5-0.8c-1.2,0-2.2,0.2-3.1,0.5c-0.9,0.4-1.6,0.8-2.2,1.2
		c-0.6,0.5-1.1,1-1.5,1.5s-0.6,0.9-0.8,1.1L809,87L809,87z M797.8,117.7c-1.3,1.2-2.4,2.1-3.4,2.5s-2,0.6-3.1,0.6
		c-1.3,0-2.3-0.2-3.2-0.7s-1.6-1.2-2.1-2s-0.9-1.8-1.1-2.9c-0.2-1.1-0.3-2.2-0.3-3.4s0.1-2.3,0.4-3.5c0.3-1.2,0.7-2.3,1.2-3.2
		c0.6-1,1.3-1.8,2.2-2.4c0.9-0.6,1.9-0.9,3.1-0.9c1.3,0,2.4,0.2,3.2,0.6c0.8,0.4,1.5,0.9,2.1,1.6l2-3c-1-0.7-2.1-1.2-3.4-1.4
		c-1.2-0.2-2.4-0.4-3.6-0.4c-1.8,0-3.4,0.3-4.9,0.9c-1.5,0.6-2.7,1.5-3.7,2.6s-1.8,2.4-2.3,4c-0.5,1.5-0.8,3.2-0.8,5
		c0,3.9,1,6.9,3,9c2,2,4.7,3.1,8.2,3.1c0.6,0,1.2-0.1,1.9-0.2s1.4-0.3,2.1-0.6c0.7-0.3,1.4-0.7,2.1-1.3c0.7-0.5,1.3-1.2,2-2.1
		L797.8,117.7z M773.6,99.7h-4.2v23.2h4.2V99.7z M773.4,88.5c-0.5-0.5-1.1-0.8-1.8-0.8s-1.4,0.3-1.9,0.8s-0.8,1.2-0.8,1.9
		s0.3,1.3,0.8,1.8s1.2,0.8,1.9,0.8s1.3-0.3,1.8-0.8s0.8-1.1,0.8-1.8S773.9,89,773.4,88.5 M749.8,122.9h3.9v-11.1
		c0-0.8,0-1.5,0.1-2.3s0.2-1.5,0.3-2.2c0.4-1.4,1-2.6,1.7-3.6c0.8-1,1.6-1.5,2.6-1.5c1.6,0,2.4,0.9,2.5,2.6l3.4-1.2
		c0-0.8-0.2-1.4-0.5-2s-0.6-1-1.1-1.3c-0.4-0.3-0.9-0.6-1.4-0.7c-0.5-0.2-1-0.2-1.5-0.2c-1.4,0-2.6,0.4-3.6,1.2s-1.9,1.8-2.6,3.1
		l-0.5-4l-4,0.4c0,0.2,0.1,0.5,0.1,0.9c0.1,0.4,0.1,0.9,0.2,1.5c0.1,0.6,0.1,1.1,0.1,1.7c0,0.6,0.1,1.2,0.1,1.7v17H749.8z
		 M741.9,122.9v-14.6c0-1.2-0.1-2.4-0.2-3.5c-0.1-1.1-0.4-2.1-0.9-3c-0.5-0.8-1.3-1.5-2.4-2c-1.1-0.5-2.6-0.8-4.5-0.8
		c-1.2,0-2.2,0.2-3.1,0.6c-0.9,0.4-1.7,0.8-2.3,1.3s-1.1,1-1.5,1.5s-0.6,0.9-0.8,1.1l-0.5-4l-4,0.4c0,0.2,0.1,0.5,0.1,0.9
		c0.1,0.4,0.1,0.9,0.2,1.5c0.1,0.6,0.1,1.1,0.1,1.7c0,0.6,0.1,1.2,0.1,1.7v17.2h4.1v-13c0-1.1,0.2-2.1,0.5-3c0.3-1,0.8-1.8,1.4-2.5
		c0.6-0.7,1.3-1.3,2.1-1.7s1.7-0.6,2.6-0.6c1.1,0,1.9,0.1,2.6,0.4c0.7,0.3,1.1,0.7,1.5,1.2s0.6,1.2,0.7,2c0.1,0.8,0.2,1.7,0.2,2.6
		v14.6L741.9,122.9L741.9,122.9z M713.6,99.7h-4.2v23.2h4.2V99.7z M713.4,88.5c-0.5-0.5-1.1-0.8-1.8-0.8s-1.4,0.3-1.9,0.8
		s-0.8,1.2-0.8,1.9s0.3,1.3,0.8,1.8s1.2,0.8,1.9,0.8s1.3-0.3,1.8-0.8s0.8-1.1,0.8-1.8S713.9,89,713.4,88.5 M696.6,103.5
		c0.9,1.3,1.3,3,1.3,5.1v0.8h-11.4c0.1-1,0.4-2,0.7-2.9s0.8-1.8,1.3-2.5s1.2-1.3,2-1.7s1.6-0.6,2.6-0.6
		C694.5,101.6,695.7,102.2,696.6,103.5 M702.1,112v-2.3c0-1.3-0.1-2.6-0.4-3.9s-0.8-2.4-1.5-3.4s-1.6-1.8-2.8-2.4
		c-1.2-0.6-2.7-0.9-4.5-0.9c-1.5,0-2.9,0.3-4.1,0.9c-1.3,0.6-2.4,1.4-3.4,2.5c-0.9,1.1-1.7,2.4-2.2,3.9s-0.8,3.2-0.8,5
		c0,4,0.9,7.1,2.8,9.2c1.9,2.1,4.6,3.1,8.3,3.1c1.9,0,3.6-0.4,5-1.2s2.8-1.9,4.1-3.4l-1.6-1.7c-1.5,1.4-2.9,2.3-4,2.7
		s-2.2,0.6-3.2,0.6c-2.3,0-4.1-0.7-5.2-2.2c-1.2-1.5-1.8-3.6-2-6.4h15.5V112z M654.7,122.9v-15.7h16.2v15.7h4.2V90h-4.2v14.3h-16.2
		V90h-4.2v32.9H654.7z"/>
	<path d="M926.2,258.3h34.7c15.2,0,27.6-12.3,27.6-27.5s-12.4-27.5-27.6-27.5h-34.7V258.3z"/>
</g>
</svg>
