<?xml version="1.0" encoding="utf-8"?>
<!-- Generator: Adobe Illustrator 23.0.4, SVG Export Plug-In . SVG Version: 6.00 Build 0)  -->
<svg version="1.1" xmlns="http://www.w3.org/2000/svg" xmlns:xlink="http://www.w3.org/1999/xlink" x="0px" y="0px"
	 viewBox="0 0 630.7 305.6" style="enable-background:new 0 0 630.7 305.6;" xml:space="preserve">
<style type="text/css">
	.Grün_x0020_bogenförmig{fill:url(#SVGID_1_);stroke:#FFFFFF;stroke-width:0.25;stroke-miterlimit:1;}
	.st0{fill:#DADADA;}
	.st1{display:none;}
</style>
<linearGradient id="SVGID_1_" gradientUnits="userSpaceOnUse" x1="-88.0064" y1="-84.2771" x2="-87.2993" y2="-84.9842">
	<stop  offset="0" style="stop-color:#1DA238"/>
	<stop  offset="0.9831" style="stop-color:#24391D"/>
</linearGradient>
<g id="Logo">
	<g>
		<g>
			<path d="M558.9,253.1v-4h-19.7v-16.4h16.2v-3.9h-16.2v-14.3h18.7v-3.7h-23.9v42.3H558.9z M515.4,253.1h4.6v-42.3h-4.6v27.7
				c0,3,0.3,6.6,0.5,8.3c-0.5-1.7-2-4.7-3.8-7.4l-19-28.6h-6.5v42.3h4.5v-30.8c0-2.9-0.3-6.6-0.6-8.2c0.6,1.6,2.1,4.7,3.9,7.3
				L515.4,253.1z M471.4,210.8h-5.5v42.3h5.5V210.8z M454,253.1v-4h-19.7v-16.4h16.2v-3.9h-16.2v-14.3h18.7v-3.7H429v42.3H454z
				 M389.6,253.1v-20.2h20.8v20.2h5.4v-42.3h-5.4v18.4h-20.8v-18.4h-5.4v42.3H389.6z M327.8,253.1v-20.2h20.8v20.2h5.4v-42.3h-5.4
				v18.4h-20.8v-18.4h-5.4v42.3H327.8z M312.6,213.7c-3.3-2.4-7.8-3.6-13.7-3.6c-13.8,0-20.6,9.3-20.6,22.4c0,13,6.2,21.5,19.6,21.5
				c5.8,0,11.1-1.8,14.3-3.7l-1.6-4.6c-2.6,2-7.3,3.9-12,3.9c-10.4,0-14.7-7.9-14.7-16.7c0-8.9,3.3-19.1,14.9-19.1
				c6,0,8.7,1.8,11.2,3.7L312.6,213.7z M266.6,210.8h-5.5v42.3h5.5V210.8z M239.1,220c0,7.4-5.8,8.6-12.2,8.6h-1.2v-14.4
				c1.3-0.1,2.8-0.2,4.7-0.2C233.9,214,239.1,214.6,239.1,220 M225.7,232.5h0.7c9.2,0,13.7,14.6,17,20.8l6.4-0.1
				c-2.6-4.2-7.3-19.9-16.6-22.5c6.2-0.6,11.6-3.1,11.6-10.9c0-6.4-4.3-9.4-13.6-9.4c-5.7,0-8.2,0.3-11,0.4v42.3h5.4V232.5z
				 M201.7,253.1h4.6v-42.3h-4.6v27.7c0,3,0.3,6.6,0.5,8.3c-0.5-1.7-2-4.7-3.8-7.4l-19-28.6H173v42.3h4.5v-30.8
				c0-2.9-0.3-6.6-0.6-8.2c0.6,1.6,2.1,4.7,3.9,7.3L201.7,253.1z M157.7,210.8h-5.5v42.3h5.5V210.8z M140.3,253.1v-4h-19.7v-16.4
				h16.2v-3.9h-16.2v-14.3h18.7v-3.7h-23.9v42.3H140.3z M75.9,253.1v-20.2h20.8v20.2h5.4v-42.3h-5.4v18.4H75.9v-18.4h-5.4v42.3H75.9
				z"/>
			<path d="M558.9,272.8v-2.3h-14.2v25.9h3.1v-12.5h9.6v-2.4h-9.6v-8.8H558.9z M532.5,276.1c0,4.5-3.4,5.3-7.3,5.3h-0.7v-8.8
				c0.8-0.1,1.7-0.1,2.8-0.1C529.3,272.4,532.5,272.8,532.5,276.1 M524.5,283.7h0.4c5.5,0,8.1,8.9,10.1,12.8l3.8-0.1
				c-1.6-2.6-4.3-12.2-9.8-13.7c3.7-0.4,6.9-1.9,6.9-6.6c0-3.9-2.6-5.7-8.1-5.7c-3.4,0-4.9,0.2-6.5,0.3v25.9h3.2V283.7z
				 M511.6,283.2c0,6.9-3.1,11.3-8.5,11.3c-5.3,0-8.5-4.5-8.5-11.3c0-6.7,3.5-10.9,8.5-10.9C508,272.3,511.6,276.5,511.6,283.2
				 M515.1,283.2c0-8.1-5.1-13.1-12-13.1c-6.9,0-12,5-12,13.1c0,8.8,4.8,13.7,12,13.7C510.4,296.9,515.1,292,515.1,283.2
				 M483.1,283.2c0,8.9-4.4,11.1-9.6,11.1c-1,0-2,0-3.2-0.2v-21.6c0.9,0,1.9,0,2.7,0C480.1,272.4,483.1,276.1,483.1,283.2
				 M486.7,283.1c0-8.6-5-12.8-13-12.8c-3.3,0-3.3,0.1-6.6,0.2v25.9c1.5,0,3.9,0.1,6.6,0.1C479.1,296.5,486.7,294.2,486.7,283.1
				 M461.9,296.4V294h-11.7v-23.5H447v25.9H461.9z M440.8,296.4V294h-11.7v-10h9.6v-2.4h-9.6v-8.8h11.1v-2.3H426v25.9H440.8z
				 M418.9,289c0-5.6-4.6-7-7-7.7c-2.6-0.8-5.6-1.7-5.6-5.2c0-2.4,2.1-3.8,4.7-3.8c2.8,0,4.6,1.3,5.5,2.2l1.5-2.4
				c-1.3-1.4-3.9-2.2-6.8-2.2c-4.7,0-8.3,2.4-8.3,6.9c0,5.5,5.5,7,7.3,7.4c2.1,0.5,5.2,1.3,5.2,5.4c0,3.5-2.8,4.7-5.1,4.7
				c-3.3,0-5.1-2.1-6.1-3.3l-2,2.2c1.6,1.9,3.9,3.6,8,3.6C415.2,296.9,418.9,293.9,418.9,289 M396.2,289c0-5.6-4.6-7-7-7.7
				c-2.6-0.8-5.6-1.7-5.6-5.2c0-2.4,2.1-3.8,4.7-3.8c2.8,0,4.6,1.3,5.5,2.2l1.5-2.4c-1.3-1.4-3.9-2.2-6.8-2.2
				c-4.7,0-8.3,2.4-8.3,6.9c0,5.5,5.5,7,7.3,7.4c2.1,0.5,5.2,1.3,5.2,5.4c0,3.5-2.8,4.7-5.1,4.7c-3.3,0-5.1-2.1-6.1-3.3l-2,2.2
				c1.6,1.9,3.9,3.6,8,3.6C392.5,296.9,396.2,293.9,396.2,289 M361.6,265.3c0-1-0.8-1.9-1.8-1.9c-1,0-1.9,0.9-1.9,1.9
				c0,1,0.8,1.9,1.9,1.9C360.8,267.2,361.6,266.3,361.6,265.3 M369,265.3c0-1-0.8-1.9-1.9-1.9c-1,0-1.9,0.9-1.9,1.9
				c0,1,0.8,1.9,1.9,1.9C368.2,267.2,369,266.3,369,265.3 M373.1,286.7v-16.2H370v16c0,6.9-2.9,8.5-6.5,8.5c-3.7,0-6.5-1.6-6.5-8.5
				v-16h-3.3v16.2c0,7.6,3.3,10.6,9.8,10.6C370,297.3,373.1,294.4,373.1,286.7 M344.4,283.2c0,8.9-4.4,11.1-9.6,11.1
				c-1,0-2,0-3.2-0.2v-21.6c0.9,0,1.9,0,2.7,0C341.3,272.4,344.4,276.1,344.4,283.2 M348,283.1c0-8.6-5-12.8-13-12.8
				c-3.3,0-3.3,0.1-6.6,0.2v25.9c1.5,0,3.9,0.1,6.6,0.1C340.3,296.5,348,294.2,348,283.1 M309,272.9v-2.4h-21.6v2.4h9.1v23.5h3.3
				v-23.5H309z M273.8,265.3c0-1-0.8-1.9-1.9-1.9c-1,0-1.9,0.9-1.9,1.9c0,1,0.8,1.9,1.9,1.9C273,267.2,273.8,266.3,273.8,265.3
				 M281.2,265.3c0-1-0.8-1.9-1.9-1.9c-1,0-1.9,0.9-1.9,1.9c0,1,0.8,1.9,1.9,1.9C280.4,267.2,281.2,266.3,281.2,265.3 M274.3,277.3
				c0.4-1.2,0.9-2.9,1.1-4.1c0.2,1.4,0.6,2.8,1.1,4.1l3,8.1h-8.1L274.3,277.3z M283.6,296.4h3.3l-9.8-26.1l-3.1,0.2l-9.3,25.9h3
				l3.1-8.8h9.6L283.6,296.4z M264.1,272.9v-2.4h-21.6v2.4h9.1v23.5h3.3v-23.5H264.1z M236.6,270.5h-3.3v25.9h3.3V270.5z M225.4,289
				c0-5.6-4.6-7-7-7.7c-2.6-0.8-5.6-1.7-5.6-5.2c0-2.4,2.1-3.8,4.7-3.8c2.8,0,4.6,1.3,5.5,2.2l1.5-2.4c-1.3-1.4-3.9-2.2-6.8-2.2
				c-4.7,0-8.3,2.4-8.3,6.9c0,5.5,5.5,7,7.3,7.4c2.1,0.5,5.2,1.3,5.2,5.4c0,3.5-2.8,4.7-5.1,4.7c-3.3,0-5.1-2.1-6.1-3.3l-2,2.2
				c1.6,1.9,3.9,3.6,8,3.6C221.7,296.9,225.4,293.9,225.4,289 M197.6,276.1c0,4.5-3.4,5.3-7.3,5.3h-0.7v-8.8
				c0.8-0.1,1.7-0.1,2.8-0.1C194.5,272.4,197.6,272.8,197.6,276.1 M189.6,283.7h0.4c5.5,0,8.1,8.9,10.1,12.8l3.8-0.1
				c-1.6-2.6-4.4-12.2-9.8-13.7c3.7-0.4,6.9-1.9,6.9-6.6c0-3.9-2.6-5.7-8.1-5.7c-3.4,0-4.9,0.2-6.5,0.3v25.9h3.2V283.7z
				 M180.2,296.4V294h-11.7v-10h9.6v-2.4h-9.6v-8.8h11.1v-2.3h-14.2v25.9H180.2z M149.7,288.2c-0.7,1.7-1.3,3.8-1.5,5.2
				c-0.2-1.4-0.7-3.2-1.5-5.3l-6.7-17.7h-3.5l10.4,26.3h2.1l10.8-26.3h-3L149.7,288.2z M130,270.5h-3.3v25.9h3.3V270.5z M115,296.4
				h2.7v-25.9H115v16.9c0,1.8,0.2,4.1,0.3,5.1c-0.3-1-1.2-2.9-2.3-4.5l-11.3-17.5h-3.9v25.9h2.7v-18.9c0-1.8-0.2-4.1-0.4-5
				c0.4,1,1.2,2.9,2.3,4.5L115,296.4z M90,286.7v-16.2h-3.1v16c0,6.9-2.9,8.5-6.5,8.5c-3.7,0-6.5-1.6-6.5-8.5v-16h-3.3v16.2
				c0,7.6,3.3,10.6,9.8,10.6C86.8,297.3,90,294.4,90,286.7"/>
		</g>
		<polygon class="st0" points="70.1,136.1 70.1,193.9 558.9,193.9 558.9,50.6 		"/>
		<g>
			<path d="M256.3,140.1c-5.1,5.4-11.7,9.7-19,12c-5.6,1.8-1.7-3,0.7-5.5c3-3.2,7.1-6.8,10.5-9.6c8-6.7,16.5-12.8,25.3-18.5
				C268.3,126.1,262.7,133.5,256.3,140.1 M92.4,73.3c3-2.1,5.9-4.2,9.1-6.1c4.8-2.8,7-1.5,2.8,2.1c-4.9,4.2-9.8,7.3-15.4,10.6
				c-5.2,3-10.4,6-15.9,8.6C79.2,83.2,85.8,78,92.4,73.3 M340.3,47.1c3.6-2,9.4-3.6,3.2,1.4c-2.4,2-5.4,3.8-8.1,5.5
				c-5.1,3.2-9.4,6-15.1,9.6C324.6,59.2,333.3,50.9,340.3,47.1 M350,74.5c-0.5-1.2-19,8.7-23.8,11.1c-9.7,5-18.8,9.7-40.1,21.3
				c8.6-11.8,19.3-26.2,27.2-35.5c4.4-2.8,8.7-5.6,13.1-8.3c5.7-3.6,10.4-6.2,16-10c3.6-2.4,12.1-7.5,11.5-11.7
				c-0.7-5.1-8.3-1.5-9.6-0.9c-5.7,2.6-11.6,6.9-16.3,10.9c-6.5,5.4-13.1,12.6-18.6,19c-6.5,5.3-17.3,10.7-24.6,14.3
				c3.2-2.2,4.9-4.3,3.9-5.5c-1.7-2.1-6.6,1.1-9.4,2.6c-2.3,1.2-14.8,8.5-18.1,6.9c-0.9-0.5,1.1-1.7,1.9-2.1c2.7-1.3,3.8-2,11.3-5.1
				c2.3-0.9,3.9-1.9,3.8-4.8c-0.1-1.7-3.8-0.6-6.1,0.5c-2.4,1.1-6.3,2.4-11.1,3.5c-3.9,0.9-9.8,2.1-13.2,1.7c0-0.4-0.5-1.8-2.2-2
				c-1.5-0.2-2.8,0.4-4.6,1.7c-0.9,0.6-5.1,4.4-3.9,5.9c-1.4,1.4-4.1,3.1-4.4,3.3c-1.5,0.7-3.7,2.5-6.7,3.4c-4.9,1.4-1.6-1,0.5-2.5
				c3.7-2.7,7.7-6,6.1-7.3c-1.5-1.4-6.5,1.4-8,2.1c-6.4,3.3-15.5,8.3-23.9,11.7c-4.1,1.7-5.9,2.4-6.5,1.8c-1.3-1.3,6.1-3.7,8.5-7.8
				c0.2-0.4,0.6-1.1,0.3-1.6c-1.8-2.3-9.1,2-10.8,2.9c-8,3.8-16.5,8.1-19.2,9.1c-3.2,1.2-6.8,2.4-7,1.9c-0.3-0.5,5.3-3.4,7.6-4.6
				c2.8-1.5,8-3.9,8.6-5.5c0.3-0.9,0.3-1.5-0.2-1.8c-3.1-2-15.6,4.6-26.5,9.5c-3,1.3-6.7,3.2-9.4,4.3c-3.1,1.3-6.5,2.8-7.3,2.2
				c-0.3-0.2,2.4-1.8,3.3-2.2c5-2.5,13-6.3,14.3-7.9c0.4-0.5,0.8-1.8,0.3-2.5c-1.7-2-6.5,1.5-10.9,3.3c-5.4,2.2-10.8,4.5-16.2,6.6
				c-4.9,2-11,4.3-16.4,6.1c-2.8,0.9-6.6,2.4-7.3,1.5c-0.6-0.7,7.4-4.1,10.1-6.1c1-0.7,4-2.9,3.2-4.5c-1.1-2.1-24,12-25.3,11.4
				c-2-0.8,13.6-9.2,13.9-9.4c0.9-0.7,3.2-1.9,2.6-3.2c-1.8-3.9-12.6,3.8-38.6,17.4c3-2.9,6-5.8,9-8.7c1.6-1.5,4.4-3.7,5-5.9
				c1.5-6-10.5,1.4-11.7,2.2c-7.2,4.8-14,10-21.3,14.7c0.1,0,0.1-0.1,0.2-0.1c2.1-2,8.5-7.6,7.8-11.1c-0.8-4-7.6-1.5-13.8,1.8
				c5.2-5.1,10.8-9.5,16.2-14.3c9.4-4.6,18.6-9.6,27.7-14.9c7.8-4.5,17.1-9.6,22.3-17.2c1.4-2,2.7-4.6,0.4-6.4
				c-2.6-2-7.7,1.2-10,2.4C93,67.4,83.3,75.7,74.6,83.3c-3.9,3.3-7.7,6.7-11.5,10.1c-10.1,5-26.4,12.5-37.2,15.7
				c-3.8,1.1-23.1,5.1-19.2-2.7c3.6-7.3,27.9-21.8,26.5-22.5C32.4,83.4,11,96,3.8,104.8c-1.5,1.9-4.7,5.3-3.6,8
				c1.5,4,10.7,3.2,13.9,2.7c15.7-2.5,26.7-7.9,39.8-13.9c-6.5,6-13,12.1-19.2,18.3c-2.5,2.5-1.2,4.1,1.8,2.1c2.9-2,5.8-4.2,9-5.6
				c0.7-0.3,9.3-3.2,7.8-0.3c-2.4,4.8-9,9.4-13,12.9c-1.6,1.4-3.8,5.4,0.1,3.4c8.6-4.3,17.4-9.7,25-15.5c2.1-1.6,5.4-3.6,7.6-5.1
				c1.8-1.3,5.4-3.3,6-3.8c-12.2,11.4-23.3,22.7-33.3,35.9c-10.6,13.9-20.6,28.4-31.9,41.8c-2.8,3.3-7.9,6.6-7.6,1.6
				c0.3-4.2,3.6-8.7,6.1-12c4.2-5.6,8.9-10.8,14.6-17.1c3.3-3.7,6.4-6.5,5.7-7.1c-0.5-0.5-18,16.5-24.9,24.8
				c-4.6,5.5-9.5,15.3-4.4,18.8c5.2,3.5,12.9-6.9,16.2-10.6c7.9-9.3,15.2-19.4,22.5-29.2c6.8-9.1,13.6-18,21.1-26.4
				c0.2-0.2,0.4-0.3,0.7-0.5c1.8-1.6,15.3-11.2,26.4-16.1c-2.5,1.2-6.3,4.9-7.7,6.5c-1.8,2,0.6,3.6,4.4,2.6
				c2.5-0.6,8.3-3.2,11.4-4.9c-0.2,0.2-0.3,0.5-0.5,0.8c-0.2,0.6,0.3,2.1,2.1,2.3c4.1,0.5,16.3-4.7,20.6-6.5c4.9-2,9.7-4,14.6-6
				c0.4-0.2,1.3-0.7,2.4-1.2c-2.1,1.3-5.3,4-6.5,6.1c-0.3,0.5-0.5,1.2-0.2,1.8c2.7,4.5,26.3-8.5,30.2-10c0.7-0.3,1.5-0.6,2.2-0.8
				c-4.3,3.5-8.7,9.3,0.7,7.5c6.5-1.2,13.3-4.8,19.2-7.7c1.7-0.8,3.4-1.7,5.1-2.5c-0.9,0.9-1.8,1.9-2.4,3c-1.2,2.1,0.5,3.4,2.5,3
				c8.3-1.7,19.4-7.6,27.1-11c2.2-1,4.5-2,6.7-3c-2.2,1.3-3.7,2.6-5.2,4.1c-4.9,4.8,1.6,5.3,5.9,2.9c-4.6,5,2.3,4.2,4.2,2.8
				c1.6-1.2,5.1-3.6,8.4-6.3c5.8-4.7,6.5-5.8,8.4-7.5c2.4-0.3,5.3-1,7.1-1.4c4.4-0.9,9.5-2.6,13.8-3.7c-1.1,0.6-5.3,2.6-6.3,3.3
				c-2.9,2-8.9,6.7-2,7.7c3.3,0.5,9.2-1.1,13.2-2.9c0.6-0.3,2.5-1.2,3.7-2c-0.9,0.4-1.2,1.3-1.2,1.5c1.1,3.7,10.7-1.3,11.4-1.6
				c7.6-3.7,12.9-6.4,19.9-10.6c-4.7,5.9-15.1,20.1-16,21.3c-4.1,5.3-5.5,7.1-9.4,12.6c-7.3,4.7-12.7,8.4-19.7,13.3
				c-9.6,6.6-17.8,13.2-21.6,16.7c-4.9,4.3-8.8,8.1-9.9,13.4c-1.1,5,7.5,2.8,9.2,2.4c6.2-1.5,12.8-5.7,17.6-9.7
				c11.1-9.2,18.9-22,27.3-33.5c7-4.4,14.1-8.7,21.3-12.8C317.7,92.3,350.3,75.2,350,74.5 M393,112.6c-5.9,7.8-15.6,17.6-24.2,23.6
				c-2.5,1.7-15.2,9.7-13.9,3c1-5.4,14.3-19.5,24.6-29.3c12.1-11.6,23.7-21.9,37.9-33C409.3,88.7,401.7,101.1,393,112.6 M449.6,21.7
				c7.6-6,12.3-9.8,20.7-13.9c5.7-2.8,1.5,1.9-0.7,3.8c-2.6,2.2-6.4,4.9-9.4,6.7c-8.1,4.9-14.3,8.2-22.7,12.8
				C441.4,28,445.7,24.8,449.6,21.7 M627,14c-4.4,2.5-11.8,7.7-12.7,8.3c-0.8-0.3-0.9-0.6-2.9,0.4c2.6-2.7,3.5-5,1.6-5.2
				c-2.6-0.3-8.1,1.8-10.9,3.3c-5,2.5-9.9,4.6-14.9,6.6c-3.8,1.6-8,3.2-11.8,4.5c-2,0.7-5.6,1.6-6.1,0.7c-0.5-0.8,6.8-4.7,10.5-6.9
				c1-0.6,4-2.1,3-4c-0.9-1.6-4.8,0.5-5.9,1c-9.3,4.2-11.6,5.5-21,9.3c-3,1.2-9.1,3.4-12.2,4.2c-3.8,1-1.8-0.6-0.5-1.3
				c3-1.5,5.9-2.6,8.8-4.3c3.5-2,1.4-4.5-0.8-3.7c-14.5,5-25.5,10.1-39.9,15.1c-1.1,0.4-3.4,0.9-3.6,0.5c-0.3-0.4,6.4-3.7,8.7-4.8
				c2.9-1.4,5.1-2.5,8-4c1.3-0.7,2.1-1.7,0.8-3c-1.3-1.3-4.6,0-6,0.6c-9.2,4.3-32.8,15.1-45.3,19c-0.8,0.3-4.2,1.2-4.5,0.2
				c-0.1-0.5,4-2.8,5.9-4c4-2.6,9.9-5.3,12.5-9.6c0.3-0.5,0.6-1.1,0.3-1.6c-1.4-2.4-14.3,6.2-16.2,6.7c-0.7,0.2,2-1.7,4.4-3.5
				c2.1-1.6,3-2.8,3.1-4.8c0.1-2.9-2.8-1.1-3.8-0.7c-10.8,5-20.8,12.1-30.7,18.7c-3.6,2.4-7.2,5-10.8,7.5c0.9-1.1,1.9-2.3,2.9-3.4
				c1.9-2.1,12.7-11.7,10-14.9c-0.4-0.4-1.2-0.2-1.6,0c-3.1,1.2-5.4,3.7-7.8,6.1c-4.5,4.4-9.5,8.4-14.6,12.2
				c-1.8,1.4-3.6,2.6-5.6,3.7c-3.8,2.1,1.1-3.7,2.8-5.5c4.3-4.5,9.4-9,13.7-13.6c0.9-0.9,2-4.4-1.1-3.6c-6.4,1.8-11.7,5-15.9,7.2
				c3.1-2.6,5.5-5,7.4-6.4c11.5-5.8,22.9-11.9,34.2-18.2c8.5-4.7,21.6-13.7,23.4-18.8c0.7-1.8-0.1-3.9-2-4.2
				c-8.7-1.5-24.9,12.2-33.9,19.9c-7.1,6.1-13.4,11-20.6,16.9c-5,2.4-10.6,5.3-15.6,7.8c-7.2,3.6-16.6,7.4-22.5,9.6
				c-2.6,1-6.5,1.9-9.2,2.5c-7,1.5-4.9-1.6-1.6-4c5.4-3.8,6.2-4.8,3.3-3.8c-4.7,1.6-18,10.3-9.6,11.7c4.7,0.8,11.7-1.3,15.3-2.7
				c7.6-2.7,13.4-5.1,20.3-8.3c2.5-1.2,5-2.4,7.5-3.6c-4.7,3.9-9.4,8.7-13.9,12.9c-2.6,2.4-1.1,4.3,1.8,2.1
				c7.2-5.4,15.2-9.1,23.4-12.6c-4,4.1-8,7.9-11.5,12.4c-2.3,2.9-6.5,9.3-1.4,8.3c4.8-0.9,9.1-4.5,12.9-7.4c3.9-3,4.3-3.3,8.1-6.6
				c-0.2,0.2,1.9-1.4,1.8-1.3c-1.9,2.1-2.6,3.1-4.5,5.3c-2.1,2.4-4,5-5.8,7.6c-21.1,16.4-42.1,34.1-60.3,53.3
				c-7.4,7.8-20.8,23.7-11.9,25.6c4.4,0.9,9.5-1.1,15.6-4.5c6.2-3.5,10.8-7.7,15.9-12.6c18.3-17.7,28.3-36.4,41.1-56.3
				c0.8-1.2,1.6-2.3,2.4-3.4c12.5-9.9,21.2-16.2,35.1-24.2c-1,0.7-1.6,1.1-2.5,1.9c-2.6,2-9.8,6.2-6.7,8.9c2,1.7,7-0.7,8.6-2.1
				c-1.7,2.8,1.4,2.7,4.9,2.1c8.6-1.4,15.8-5.2,23.4-8.4c4.7-2,9.3-4,14.1-5.9c-2.7,2.1-5.3,4.7-4,6.3c2.4,2.8,14.3-2.8,16.6-3.7
				c5.5-2,15.9-6.2,16.4-6.1c-1.7,0.9-5.1,6-0.4,5.2c2.9-0.5,19.9-6.8,31.7-11.4c-3.1,2.2-5.4,4.6-5.3,7.3c0,0.3,0.2,0.5,0.5,0.6
				c2.4,0.6,5.4-0.8,7.7-1.6c4.9-1.6,9.8-3.5,14.7-5.3c5.5-2.1,11-4.5,16.5-6.7c1.1-0.5,11.6-4.7,9.1-1.6c-1.4,1.7-3,3.2-4.4,4.9
				c-1.7,2-0.1,2.8,2.3,2c1.8-0.6,2.7-0.9,4.6-1.9c1-0.5-0.7,0.2,0.2,1.4c1.2,1.7,4.1,0.1,5.6-0.3c1.1-0.3,1.7-1.6,1.1-2.5
				c-0.2-0.3-0.4-0.6-1-0.7c3.7-3.5,7.5-6.7,11.5-9.9C631.7,13.5,632,11,627,14 M532.8,1.6C533,1.5,532.9,1.6,532.8,1.6 M526.5,7.6
				c0.2,0,0.4-0.1,0.6-0.2c0.2,0.2,0.4,0.2,0.9,0.2c2-0.2,3.9-1.7,5.3-3c0.9-0.8,2.9-3.2,1.1-4.1c-0.5-0.2-1.4,0.1-1.9,0.2
				c-0.5,0.2-1.1,0.4-1.6,0.7c-2,1-3.7,2.7-5,4.6C525.4,6.7,525.3,7.8,526.5,7.6 M151.8,81.1c0.4-0.1,0.8-0.4,1.2-0.6h0
				c0.3-0.1,0.5-0.2,0.8-0.3c0,0,0.2-0.1,0.4-0.1c0.2,0,0.4-0.1,0.6-0.1c0,0,0.1,0,0.1,0c0,0,0,0,0,0c0,0,0,0,0,0
				c0,0.1,0,0.2,0.1,0.2c0.4,0.4,1.2,0.2,1.6,0c1.8-0.7,3.7-2.2,4.6-3.9c0-0.1,0.1-0.1,0.1-0.2c0.2-0.3,0.7-1.2,0.3-1.6
				c-1.2-1-3.4-0.2-4.7,0.3c-2.5,1-5.4,2.8-6.6,5.4C149.9,81.4,151.1,81.4,151.8,81.1 M268.9,62.5c0.5,0.1,1-0.1,1.4-0.3
				c0.3,0.4,1,0.2,1.4,0.1c1.6-0.4,3-1.2,4.2-2.2c1.2-1,2.7-2.4,2.8-4c0.1-1.7-2.5-0.9-3.3-0.6c-0.9,0.4-1.8,0.9-2.7,1.4
				c-0.8,0.6-1.5,1.2-2.2,1.9c-0.3,0.3-0.6,0.6-0.8,0.9c-0.2,0.3-1,1.4-0.4,0.5C269,60.7,267.7,62.3,268.9,62.5"/>
		</g>
	</g>
</g>
<g id="Hilfslinien" class="st1">
</g>
</svg>
