<?xml version="1.0" encoding="utf-8"?>
<!-- Generator: Adobe Illustrator 23.0.4, SVG Export Plug-In . SVG Version: 6.00 Build 0)  -->
<svg version="1.1" id="Ebene_1" xmlns="http://www.w3.org/2000/svg" xmlns:xlink="http://www.w3.org/1999/xlink" x="0px" y="0px"
	 viewBox="0 0 512 512" style="enable-background:new 0 0 512 512;" xml:space="preserve">
<style type="text/css">
	.st0{fill:#FFFFFF;}
	.st1{fill-rule:evenodd;clip-rule:evenodd;}
</style>
<circle class="st0" cx="256" cy="256" r="255.6"/>
<g>
	<path class="st1" d="M219.5,195.3l-0.4,0.4l0.7,0.2l3.9,1l4,2.9l2.1,2.5l2.1,1.4c0,0,1.3-0.9,0.3-2.1l-1.2-1.5l-2.4-2.9l-1.5-0.9
		l-1.9-0.7l-2.1-0.4l-2.1-0.2L219.5,195.3L219.5,195.3z M221.3,211.2c0,0-0.2,0.1-0.5,0.1c-0.2,0-0.4-0.2-0.2-0.4l0.3-0.6l0.7-0.4
		l0.7-0.4l0.8-0.2l0.7-0.4l1.4-0.6l1.2-0.4l0.8-0.4l0.9-0.2l1-0.2l0.3-0.3l0.1-0.5l-0.1-0.3l-0.4-0.3l-0.5-0.1c0,0-0.5-0.1-0.8,0
		c-0.3,0.1-0.7,0.3-0.9,0.3c-0.2,0-1.2,0.6-1.2,0.6l-1.3,0.7l-1,0.4l-1,0.4l-1.2,0.2c0,0-0.8,0-1,0.1c-0.2,0.1-1.2-0.1-1.2-0.1
		c0,0-0.6,0-1-0.2c-0.1-0.1,0.1-0.7,0.1-0.6c0,0,0.5-0.2,0.7-0.2c0,0,0.5,0,0.6,0l0.5-0.1h1.8l1.1-0.2c0,0,0.2-0.2,0.3-0.6l0.2-0.8
		l-0.2-1l-0.4-0.5l-0.6-0.4l-1-0.6c0,0-0.6-0.3-0.7-0.3c-0.1,0-0.9-0.3-0.9-0.3l-0.8,0.1c0,0-2.2,0.1-2.6,0.8l-0.5,0.1l0.2-1.9
		l0.4-1.3l1.1-0.1l1.7,0.3l0.9,0.3l0.8,0.4l1.2,0.4l0.8,0.4l0.8,0.3l1.2-0.1l0.6-0.2l0.1-0.5l-0.2-0.7l-0.6-0.7l-1.2-0.9l-1.3-0.7
		l-0.6-0.4l-0.6-0.4l-0.7-0.2l-1-0.2h-1.1c0,0-1,0.1-1.1,0c-0.1-0.1-0.5-0.3-0.5-0.5l-0.1-1l0-0.6l0.7-0.6l0.8-0.4l1.5-0.2h4l1,0.1
		l1.5,0.2l1,0.4l1.7,0.8l0.9,0.7l1.6,1.8l1.3,1.5l1.2,1.7l1.5,1.8l1.5,2c0,0,0.4,0.4,0.6,0.7c0.1,0.2,0.2,0.8,0.2,1l-0.1,1
		c0,0-0.4,0.6-1.2,0.7l-1.3,0H231c-0.2,0-1.3,0.1-1.7,0.2l-1.1,0.2l-1.1,0.5l-0.9,0.4l-1.5,0.6l-1.7,0.6L221.3,211.2"/>
	<path d="M342.5,353.6c0.9-1.1,1-4.2,11.7-5c2.4,0,3.6,3.1,1.9,3.2c-0.8,0-1.5-0.1-1.5-0.1c-2.2,0.1-1.7,1.3-1.7,1.3
		s0.8,1.9,4.2,1.7c0.3,0,1.6-0.1,2-0.2c4.9-1.3,1.2-4.8,1.2-4.8c-1.1-1.2-3.9-2-3.9-2l-1.2-0.3l-2-0.2l-3.6,0.5
		c-5.8,1.2-8.1,0.8-8.1,0.8L342.5,353.6"/>
	<path d="M335.4,338.2l2.5,1.2c0,0,5,3.8,10.8,2.9c0.3-0.1,10.5-1,14.6,3.5c0-1,0.1-2.8-0.1-3.2c-1.5-3.1-8.2-3.1-8.2-3.1
		c-7.5,1.9-12.9-0.7-12.9-0.7s-4.2-3.2-4.5-3.3c-0.3-0.2-3.3-1.1-3.3-1.1L335.4,338.2"/>
	<path class="st1" d="M367.5,343l-3.7-5.8c-1.8-2.1-6.8-2.3-6.8-2.3l-3-0.2c0,0-4.7,0.4-5.1,0.5c-5,0.3-10.5-1.8-10.5-1.8l-1.8-0.6
		c0,0-0.6-2.3-0.6-2.6c0-0.3,0.2-2.4,0.2-2.4c0.9,3.4,4.2,3.2,4.2,3.2c1,0.3,1.5-0.2,1.5-0.2l5.4,0.3l7.7-0.3c0,0,3.2,0.3,3.5,0.3
		c6.1,0.2,8,6.7,8,6.7L367.5,343"/>
	<path d="M367.6,323.7l-2.3-3l-2-1.7l-2.1-1.5l-2.1-1.2l-2-1.2l-2.6-1.4l-3.6-2l-3.2-1.8l-2.7-2.1l-2.2-1.4l-1.2-1.4l-0.2-2.7
		l0.3-3.4l0.9-2.6l0.6-2.3l0.5-2.4l0.4-2.3l-0.2-1.7l-0.2-2.1l-0.5-2.3l1.8-1.2l1.2,2l0.5,1.7l0.1,2l-0.1,2l-0.2,2.6l-0.5,2.1
		l-0.8,2.4l-0.8,1.8l-0.6,2l-0.4,2.3l0.4,2l2,1.5l2.6,0.8l3.8,1.7l3.3,1.1l2.7,1.1l2.4,1.5l2.1,1.5l2.1,1.5l2.4,2.1l2.3,2.6
		l-0.5,1.4L367.6,323.7"/>
	<path d="M371.5,314.7c-1.8-3.3-7.3-3.6-7.3-3.6c-0.5-0.1-0.9-0.8-0.9-0.8s0.1-0.4,0.6-0.5c2.4-0.3,7.3,1.9,7.3,1.9l0.5,1.2
		L371.5,314.7"/>
	<path d="M347.5,285.6c0,0,3.1,2.9,3.6,5c-0.2,0.6-3.3,8.5-3.3,8.5c-1.2,4.7-0.2,6.8,3.1,6.1l18.1,1.1l-1.7-5
		c-0.2,0.1-1.1,1.1-2.4,0.9c-18.1,3.6-13.7-3.9-13.7-3.9c0.1,1.2,2.6-6.8,2.6-6.8c0.8-2.1-1.5-4.8-1.5-4.8c-0.1-0.6-4.8-5.8-4.8-5.8
		l-2.2,1.3C345.4,282.2,347.1,284.8,347.5,285.6"/>
	<path d="M356,299.7c1.7-2.3,2.9-4,3.5-5c2.3-5.1-3.8-7.6-3.8-7.6c-0.8-0.5-3.6-0.5-3.6-0.5l-3.2-1.8c0.4,0.5-1.5-1.5-1.5-1.5
		s7.8,0.6,9.8,1.4c6.1,4.2,7.1,8.1,2.7,12.4l-1.5,2.9l-1.2,3.8l-2.6-0.1L356,299.7"/>
	<path d="M358.2,330.6v-1.2l0.8-3.8l0.5-2.7l0.2-1.1V321l0.8,0.6l0.5,1.2l0.3,1.2v0.9l-0.1,0.9l-0.6,1.7c0,0-0.8,0.9-0.3,3.3
		c0.1,0.3,0.5,1.1,0.5,1.1l-1.1,0.2c0,0-0.6-0.3-0.8-0.6C358.5,331.2,358.2,330.9,358.2,330.6"/>
	<path class="st1" d="M354.6,332.3l-0.8-0.6l-0.8-1.1l-0.3-0.8V329l0.3-0.9l0.3-1.5l0.5-1.8l0.1-2.1l-0.3-1.5l-1.1-1.8l-1.2-1.1
		l-1.5-1.4l-2.3-1.2l-2.6-1.2l-1.4-0.8l-2.3-1.2l-2.9-2.1l-1.5-1.5l-1.1-1.7l-0.6-2.1l-0.2-2.3l0.5-1.8l0.8-1.9l0.8-1.7l0.6-1.4
		l0.2-3l0.2-1.1l-0.5-2.1l-0.3-1.4l-0.3-0.9c0,0-0.7-2.5-0.3-3c0.5-0.5,2.8-0.9,2.5-0.9c-1.6-0.2,3.1,0.4,2.2,1.1
		c0.3,0.5,0.2,2,0.2,2v1.8l-0.5,2l-0.5,1.7l-0.5,2l-0.5,1.5l-0.6,1.7l-0.5,1.5l-0.3,1.3l-0.6,2.3l-0.2,2.1l0.6,2.3l1.1,1.8l1.4,1.4
		l1.7,0.8l2.5,1.4l2.6,1.1c0,0,1.4,0.6,1.8,0.9c0.5,0.3,3,1.4,3,1.4l1.2,1.1l1.4,1.7l1.1,1.4l0.3,1.8l-0.1,3.2l-0.6,2.9v2.6l0.3,1.6
		l-0.3,0.9L354.6,332.3"/>
	<path d="M325,288.5v1.5l-0.3,3.8l-2.9,8.9c-0.6,3.2-0.3,5.6,0.9,7.4l2.6,4.5l0.9,1.7c0,0,2.1,6.7-0.8,8.3c-4.4,4.9-5.8-0.8-5.8-0.8
		l-2.1-4.1l-1.4-4.5c-0.3-1.1-2.7-4.4-2.7-4.4l-1.3-1.5l-1.2-1.1l-1.7-2l-1.4-1.1l-0.9-0.6c0,0-0.9-0.5-1.2-0.5
		c-0.3,0-1.2,0.3-1.2,0.3s-0.8,0.8-0.6,1.1c0.2,0.3,0.6,1.4,0.6,1.4l1.1,0.6l2.1,1.1l1.7,1.4l2,2.4l1.4,2.1l1.7,4.2l0.9,3.2l1.4,2.9
		l2,3.3c2.1,2.6,6.3,1,6.6,1c0.3,0,1.7-1.1,1.7-1.1s1.4,0.4,1.7-0.2c0.3-0.6,0.6-4,0.6-4l0.2-2.6l-0.2-1.8c0.1-1.1-1.1-4.1-1.1-4.1
		l-3.5-5.9c-1.7-3.9,0-8.2,0-8.2l2.3-5.8l0.8-2.3l0.9-3.9v-1.1c-0.8-2.1-3-1.1-3.3-0.9C325.2,287.3,325,288.6,325,288.5"/>
	<path class="st1" d="M329,327.1l-0.5,1.5l-0.6,1.2l-0.8,0.9l-0.9,1l-1.7,1.4c-4.4,2.3-7.4,0.6-7.4,0.6c0.2,0.2-2.4-1.8-2.4-1.8
		l-5.8-8.5l-2.3-3.5l-3.6-4.1c-5.2-3.9-7.7,0.9-7.7,0.9l-0.8,1.2l2.9-6.7c3.9,0.5,8.5,3.6,8.5,3.6l9.2,13.9l2.4,2.9
		c3.6,1.1,5.1-0.8,5.1-0.8s0.6-0.6,1.2-1.2c0.6-0.6,2.1-0.9,2.1-0.9s0.9-0.8,1.2-0.9C327.4,327.8,328.9,327.1,329,327.1"/>
	<path d="M316.9,285.4l0,2.2c1,1.1,0.7,1.9,0.7,1.9c0.1,0-0.9,1.1-0.9,1.1l-1.5,1.7l-1.4,2.4l-0.9,2.3l-0.3,2.1
		c-0.1,3.3,1.9,7.6,1.9,7.6l2.7,4.2c2,3.8,1.2,7.2,1.2,7.2l-0.6,2.7l1.5,3l0.5,1c0,0,0.4-1.6,0.5-1.9c0.2-0.3,0.4-6.3,0.4-6.3
		c0.2-2.1-0.7-5.1-0.7-5.1c-4.1-6-4.8-8.8-4.8-8.8c-0.9-3.3-0.6-5,0.5-6.3l2.1-2.9l1.2-1.5l1.4-1.2c0,0,0.5-0.5,0.9-1.1
		c0.5-0.6,0.9-1.2,0.9-1.2l0.3-0.9c0,0-0.1-1.2-0.9-1.5c-0.8-0.3-1.5-0.9-1.5-0.9l-1.7-0.8L316.9,285.4"/>
	<path class="st1" d="M315.3,339.8c0.1,0-1-0.2-1-0.2l-1.9,0.1c-2.1-0.8-3.7-0.1-3.7-0.1l-3.8,2.9l-2.2,1.8l-1.5,1.6
		c-1.2,1.3-2.2,0.6-2.2,0.6l-2.6-1.9l0.9-0.4l1.7-0.1l4-2.7l3.8-3.6l0.9-0.7c0.1-4.2-2.9-3.1-2.9-3.1l-0.7,0.6l-0.7,1.2
		c0,0-0.7,0.5-1.2,0.1c-0.5-0.4-0.6-1.1-0.6-1.1s0.6-1.6,2.1-2.6c1.7-0.6,3.1-0.6,3.1-0.6l-0.1-1c-1-2.4-4.6-2.7-4.6-2.7
		c-5.6,0.2-5.3,3.6-5.3,3.6l-0.5,1.5l-2-5.8l2.5,0.1c0,0,3-1.1,3.3-1.1s0.9-0.2,3-0.2c2.2,0.2,5.3,4.1,5.3,4.1l2.5,5.5
		c0.2,0.7,0.9,1.1,0.9,1.1l2.5,1.5C313.9,338.5,315.2,339.8,315.3,339.8"/>
	<path d="M329.6,335.5c3.8-9.1,5.5-8.9,4.1-20c0.2-0.4-6-8.2-6-8.2c-0.5-0.8-0.5-3.4-0.5-3.4c0.5-3.3,2.7-6.4,2.7-6.4
		c0.7-0.7,1.5-3.2,1.5-3.2l0.6-4.5v-1l2.8-1c0,0-0.6,10.5-1.8,11.3c-2.4,4.4-2.7,7.8-0.7,10.2l2.6,3.4c0.4,0.4,1.5,0.4,1.5,0.4
		l4.2,3.3l4.9,4.4l3.2,3.6c2.2,3.7,1.4,7.1,1.4,7.1c-0.5,0.1-1.6-0.2-1.6-0.2l-0.1-3.1c-0.1-2-2.1-3.9-2.1-3.9l-4-4l-4.7-3.7
		l-0.7-0.2l-0.1,1.1l0.5,0.9l1.2,1.5l6.4,8.9l1.6,2.8l-4.3-0.2l-0.3-1.6c-0.3-3.6-4.8-7.9-4.8-7.9l-0.4,2.1l-0.5,5.5l0.6,2.8
		c0,0,0.2,4.1,0.1,3.8C336.7,335.7,329.6,335.5,329.6,335.5"/>
	<path d="M317.1,287.6l1.5,1.3c20.7,1.4,25.6-4.2,25.6-4.2c1.8-1.1,3.9-4.4,3.9-4.4l2.3-0.9l-0.2-2.9l-2.4,1l-2.2,0.4l-1.5-0.2
		l-0.5,2.6c-0.8,3.3-18.2,6.4-18.2,6.4l-2.7-0.1h-2.3l-1.7,0.5L317.1,287.6"/>
	<path d="M319.4,285.8c0,0,0.1-1.5,0.2-1.7c0.1-0.2,0.7-1,0.7-1c9.5,0.1,23.1-4.8,23.1-4.8c2-0.2,2-0.7,2-0.7
		c1.7-2.6,0.4-3.1,0.4-3.1l-3,1c-10,5.4-24.9,5.9-24.9,5.9l-0.6,1.3l0.1,1.7L319.4,285.8"/>
	<path d="M317.8,280.7c-0.3-1.1,1.1-1.1,1.1-1.1c7-0.1,19.1-4.4,19.4-4.5c0.2-0.1,4.2-1.7,4.2-1.7c1.5-1.2,3.1-0.7,3.1-0.7l-0.2-2.8
		l-0.7-2c0,0-0.6-1-0.6-0.8c0,0.2-2.7,3.6-2.7,3.6c-3.3,3.6-15.8,5.9-15.8,5.9L323,277h-3.7c-1.9,0-2-2.8-2-2.8l-1.8,1.9l0.7,3.1
		L317.8,280.7"/>
	<path class="st1" d="M344.8,268c-0.2-2.1-3.9-0.9-3.9-0.9c-6.5,4.7-17.4,6.7-17.4,6.7c-5.6-0.5-6.5,1.5-6.5,1.5
		c-2.2-0.2-2.7-1.5-2.7-1.5s-0.6-4.7-0.6-4.9c0-0.2-0.6-1.1-0.6-1.1l1.5,0.5l2.7,2.9c9,0.4,12.6-4.6,12.6-4.6c4.9-1.8,6.5-2.4,7.9-4
		c0.6-0.8,1.2-0.6,1.5-0.7c0.2-0.1,4.8-0.2,4.8-0.2L344.8,268"/>
	<path class="st1" d="M277.6,256.2c0,0,2.8-2.2,3.1-2.5c0.2-0.3,1-1.1,1.2-1.3c0.2-0.2,1.5-1.1,1.5-1.1c0.7,0.1,3.3,0,3.3,0
		c0,0.1,0.4,0.8,1.1,1.2c0.6,0.4,1.5,1.5,1.5,1.5l1.6,1.1c0,0,1.6,1.1,1.8,1.1c0.2,0,2.1,0.6,2.1,0.6l1.6,0.6l1.6,1l2.2,0.7l1.7,0.9
		l1,0.7l1,0.7l2.6,2.1l1.5,1l1.4,0.9c0.9,2,5.1,2.9,5.1,2.9l-1.1-1.8l-0.6-1.7l-0.1-2.1c0,0-0.2-1.3-0.2-1.6s-0.4-1.1-0.4-1.1
		l-1.8-1.2l-1.6-1l-3.1-0.6l-1.3-0.7l-2.3-1.2c0,0-2-0.7-2.2-0.7H298l-1.7-0.6c-4.2-2.1-7-5.3-7-5.3l-1.5-1.5l-1.2-0.4l-1.5-0.1
		l-2.1,0.1c0,0-0.8,0-5.2,2.9c-1.4,1.2-3.2,0.4-3.2,0.4c0-0.3,0.6,2.5,0.6,2.5l1.3,2.5L277.6,256.2"/>
	<path d="M330.2,266.9c-0.1-0.8-2-1.4-2-1.4l-4.2,0.2l-3.4-0.4l-1.8-0.6l-1.4-0.6l-1.1-0.7l-1.1-0.7l-2.5-2.1l-1.5-0.4l-1.6-0.9
		l-1.3-1.5l2.1,0.2c0,0,2.5,0.1,2.7,0.1s2.3,0.1,2.3,0.1s1.8,0.5,2.1,0.5s1.7,0.5,1.7,0.5l2.1,1.1l2.9,1.3c3.1,1.8,5.4-0.4,5.4-0.4
		l1.5,0.2c1.1,3.8,5.5,2.8,5.5,2.8C336.3,264.9,330.2,266.9,330.2,266.9"/>
	<path d="M299.1,187.8l-1.2-0.5l-1.5-0.9l-1-0.7l-1.3-0.2l-1.4-0.2l-1.5-0.9l-2.1-1.3l-1.1-1.6l-1.1-1.8l-1.7-2.8l-1-2.6l-0.4-1.3
		v-0.9l0.5-0.2c0.7,0,1.7,0.6,1.7,0.6c1.3,0.5,2.9,2.1,2.9,2.1l1.5,1.2l1.2,0.6l2.7,1l1.6,0.5l4,1c2.4,0.6,4.4,1.7,4.4,1.7
		c4,2.8,4.5,5.9,4.5,5.9l0.6,2.8l0.2,2.7l-0.1,2.1l-0.2,2.9l0.2,1.6l0.6,1.8l0.4,1.2c0.1,0.9,0.1,1.4,0,1.6c-0.5,0-1.3-0.5-1.3-0.5
		c-0.5-0.4-1.1-1.5-1.1-1.5l-0.7-1.2l-0.4-1.8l-0.1-2.8l-0.2-2.3v-3.3c0.4-3.2-2.1-6.6-2.1-6.6l-1.6-1.3l-2.1-1l-1.6-0.6l-3.3-0.7
		l-3.1-0.5l-2.9-1.3l-1.3-1c-1.7-0.2-1,1.3-1,1.3l0.6,1.5l1,1.3c2.4,1.6,3.4,1.6,3.4,1.6s3.9,0.1,4.3,0.2c0.4,0.1,1.4,0.5,1.4,0.5
		l1.2,0.6l1.1,0.9l1,1.3l0.1,1.1C301.2,188.5,299.1,187.8,299.1,187.8"/>
	<path d="M316.3,243.9c-0.6,0.9,0.2,1.6,1.5,1.8c0,0.2,2.3,0.6,2.3,0.6c0.6,0,1.2-0.7,1.1-1.1c-0.1-0.4-0.7-0.7-0.7-0.7
		C318.7,242.9,316.4,243.9,316.3,243.9"/>
	<path d="M260.6,214.7c-0.4,0.1-1.1-0.5-1.1-0.5c-0.7-1.1-0.2-2.3-0.2-2.3c0.1-0.2,0.5-0.6,0.7-0.7c0.2-0.1,0.9-0.4,1.1-0.4
		c1.4-0.2,2-0.1,3.1,0.4c0.2,0.1,1.2,0.6,1.2,0.6l1.2,1c0.7,0.7,1,1.2,1,1.5c0,0,0.2,3.4-0.2,3.8c-1.3,1.7-2.7,2.8-4.3,3.2l-5.6,1.3
		l-1.6,0.6l-0.9,1.1l-1.1,2.5c0,0-1-5.7-1.2-5.8c-0.2-0.1-0.7-3.5-0.7-3.5l3.8,3.1c5.8,0,8.8-2.9,8.8-2.9l0.4-1.6
		c0-0.9-0.1-1.4-0.1-1.5c0,0-0.8-1.3-2.8-0.6C261.5,214.3,260.6,214.7,260.6,214.7"/>
	<path d="M233.8,148.3c0.9-0.8,5.4-2.8,5.4-2.8c0-0.1,5.6-1.8,5.6-1.8s3-0.9,3.8-1c11.1-1.7,19.5-2.4,25.5-2.1
		c11.5-0.1,21.2,2.7,21.2,2.7c5.7,1.2,17.5,5.8,17.5,5.8c2.3,0.9,10,5,14.1,11.3c0.3,0.5,8.5,13.7,8.5,13.7
		c2.5,5.2,5.6,16.7,5.6,16.7l1.5,6.6l2,7.4c3,11.2,3.6,17.5,3.6,17.5l0.6,5.2l1,9.3l0.4,4.8l1,7.8c0.2,0.9-2.4,9.1-2.4,9.1l-3,4
		l-2.8,0.8v-1.6l3.2-4.2c0.3-0.1,2.2-4,2.2-4.4c0-0.4-0.6-16.1-0.6-16.1l-0.4-8.6l-0.5-5.4c0.2-0.6-0.8-7-0.8-7
		c0-0.4-1.4-4.2-1.4-4.2l-1.4-5l-1.4-4.8l-1.5-5.9l-0.9-5.3c-0.1-1.9-3.2-10.9-3.2-10.9c-4-9.2-11.9-19.1-11.9-19.1l-5-4.6
		c-27.3-16.6-58.8-13.1-59.8-13.1c0,0-6.2,0.7-12.3,1.8c-5.7,1.4-9,3-9,3c-1.5,0.9-3.8,1.2-3.8,1.2
		C233.3,149.2,233.8,148.3,233.8,148.3"/>
	<path d="M281.9,152.6c0.6,0.3,1.6,0.8,3.2,1.8c6.4,4.1,11.6,6.6,16.7,8.2c0.4,0.2,10,4.2,12.3,9.7c2.2,3.2,3.2,6.4,3.2,6.4
		c-0.1-0.6,1.4,4.6,1.4,4.6l1.8,9.3l1.2,3.4c1.3,4,4.2,6.4,4.2,6.4l7.6,6.6c0,0,4.4,4.8,4.1,8.9c0.2,0.8-0.7,1.2-1.1-0.2
		c-0.5-1.6-0.6-1.9-1.1-2.9c-0.9-1.7-4.7-5.1-4.7-5.1l-4.4-3.2l-4.4-3.4l-3-2.6c-1.8-3.3-1.4-6.2-1.4-6.2l0.2-4.4
		c0.5-2.2-1.8-9.5-1.8-9.5l-0.9-2l-0.7-1.7l-1.4-3c-0.2-0.2-1-0.8-2.8-2.6c-4.3-5.1-12.3-7.4-12.3-7.4c-3.4-0.7-6-1.5-8.5-2.8
		C281.4,156.2,281.9,152.6,281.9,152.6"/>
	<path d="M235.5,156.4c2-1.1,9-2.8,9-2.8c0.5-0.2,6.8-1.2,7.2-1.2c0.4,0,11.7-1.6,11.7-1.6c4.9-0.4,8.7,1.2,8.7,1.2
		c1.4,0.4,2.6,1.4,2.6,1.4l6.4,5l6.4,4.4c0,0,3.8,2,4.4,2.2c0.6,0.2,8.5,3,9.3,3.2c0.8,0.2,6.8,3,6.8,3s8.4,4.8,7.7,8.1
		c-3.5-3.7-9.9-6.4-9.9-6.4c-17.3-5.8-19.9-8.5-19.9-8.5l-4.8-3.2l-4.2-2.8c-5.5-4.4-13.1-4.7-13.1-4.7c-7.6-0.7-20.6,1.9-20.6,1.9
		C238,157,235.5,156.4,235.5,156.4"/>
	<path class="st1" d="M292.6,149.4c-0.4,0,2.7,0.2,5.4,0.9c0.8,0.2,4.7,1.6,5.2,1.8c0.4,0.1,7.1,3,8,3.6c4.1,2.3,6.8,4.2,8.4,5.6
		c4.5,3.9,5.6,6.5,5.6,6.5c3.2,4.2,5.6,8.3,7.3,14.2l1.4,4.8l0.8,4.2l1.2,7l1,4.2l-4-5.6l-1.4-1.9l-1.1-1.9L329,189
		c-4-17.7-7.2-21.5-7.2-21.5c-4-6.1-10.1-9.5-10.1-9.5c-1.3-0.9-8.9-4.4-8.9-4.4s-6.4-2.4-7.1-2.6
		C291,149.8,292.6,149.4,292.6,149.4"/>
	<path d="M252.2,171.5c4,2.2,6.6,2.6,6.6,2.6c3.2,0,6.8,0.8,6.8,0.8s2.4,1.2,2.8,2.4c0.4,1.2,0.4,1.8,0.4,1.8l0.2,3.8
		c0,0,0.8,4.4,1.4,4.6c0.6,0.2,0.6,1.3,8.9,3.4c0.4,0.1,4.3,1.8,4.8,2.4c1.1,0.9,1.9,1.7,2.2,2.4c3,4.8,1,15.3,1,15.3l0.4,2.2
		c3.8,3.2,5.8,2.8,5.8,2.8v-1.2c0-0.4-1-2.4-1-2.4l-3.8-16.9c-1.6-3.2-8.8-6.2-8.8-6.2c-4.2-1-4.4-4.2-4.4-4.2l-1-4.2l-1.2-4.4
		c-1.1-5.5-6-5.4-6-5.4h-5.2l-2.6-0.2l-2.2-0.4l-3.4-1.4C254,169.1,250.3,168.3,252.2,171.5"/>
	<path d="M252.8,179.7l2.4,0.5l1.8,0.6c1.6,0.1,2-0.4,2-0.4l3.6-1.2h1.2l2.4,0.4c4.7,1.1,5,4,5,4l-2.8-0.8l-2.6-0.2l-4-0.2l-2.8,0.2
		C255.1,183.9,252.8,179.7,252.8,179.7"/>
	<g>
		<path class="st1" d="M251.4,163.6c3.5,4.7,7.1,1.9,7,2.2l5.8-1.2c1.6-0.1,3-0.2,3.5-0.1c2.6,0.2,3.7,0.6,4.3,0.8
			c1.8,0.5,3.2,0.7,5.5,4.3c0-0.3,2,3.8,2,3.8l1.6,4.2c2.5,9.4,11.9,12.9,11.9,12.9l5.6,1.6l1.8,0.8c0,0,2.2,1.7,2.6,2.8
			c0.2,0.5,1.4,2.8,1.4,2.8l1.2,3.6l1.8,5l1.6,1.4l2,1.6l1.8,2.4c-0.7,0.6-0.4,2-0.4,2c0,0.2-1.8,0.6-1.8,0.6l-1.9,0.5
			c-0.9-0.4-1.5-1.9-1.5-1.9l-0.6-3l-2.6-8.6c-2-5.1-5.6-6-5.6-6l-5-2.4l-6.8-3.8c-4.9-2.3-7.6-10.9-7.6-10.9
			c-2.1-8.6-6-10.5-6-10.5c-2.1-2.1-12.3-0.9-12.3-0.9l-4,1.3c0.4-0.2-6.2,2.2-6.2,2.2s0.2-3.2,0.2-3.6
			C250.8,166.9,251.4,163.5,251.4,163.6"/>
		<path class="st1" d="M293.6,199.3c3.9,4.7,2.2,13.5,2.2,13.5l0.8,4.2l2.6,3.8c0,0,4.6,5.2,4.8,5.6c5.3,6,4,11.7,2,16.3l-2,2.4
			l-0.4,0.8l-0.2,5.2l0.8,1.4c1.3,0.8,6,1,6,1s6,0,6.4,0.2c0.4,0.2,2.8-0.4,2.2-0.8c-0.6-0.4-1.6-0.8-1.6-0.8s-2.8-2.2-3-2.8
			c-0.2-0.6-0.6-4-0.6-4.4c0-0.4-0.6-1.8-0.6-1.8c-0.2-0.3-1.1-1.8-1.8,0.2c0.1-0.4-0.4,2.2-0.4,2.2l-0.6,2.4l-2.2,1
			c-0.3,0.1-0.6,0-1-0.2c-0.4-0.3-0.2-1.8-0.2-1.8c0.3-0.7,1.6-2.6,1.6-2.6l0.8-2.6l1-3.6l0.4-4.2l-1-3.6l-1.2-2.4l-4.8-6.4l-2.2-3
			l-2.2-3l-1-3.6l-0.2-8.7c0.1-2.6-2.6-5.6-2.6-5.6C292.4,196.6,293.6,199.3,293.6,199.3"/>
		<path class="st1" d="M232.4,152.5l5.9-2.6l7.3-1.7c17.7-2.7,30.2-1.6,30.2-1.6c10.4,1.8,17.1,5.2,17.1,5.2s17.6,7.4,24.3,15.3
			c2,2.7,2.8,5.2,2.8,5.2l5,15.3c1.5,4.8,3.2,6.8,3.2,6.8c1.1,1.5,2.6,2.2,2.6,2.2l1.8,0.8c1.7,0.7,3.2,2.8,3.2,2.8
			c2.1,2.8,2,5.4,2,5.4c0.4,0.3,0,2.8,0,2.8l-1.8-2.2l-3.5-3.5c-7.8-4.3-10-15.8-10-15.8l-1.4-6l-2-6c-2.2-11.1-31.4-22.9-31.4-22.9
			c-12.3-5.9-27.8-4-27.8-4c-1.9,0-6.8,0.8-6.8,0.8l-12.7,2.2l-4.9,1.1L232.4,152.5"/>
	</g>
	<path d="M335.4,265.9c0.8,0,1.2-0.8,1.4-2.4l0.6-2.8l0.4-3.6l0.2-3l0.4-3.2v-2.6c-2.1-5.1-9.1-8.1-9.1-8.1l-3.8-1.2l-2.8-1.6
		l-2.2-2l-2.2-1.4l-2.8-0.8c-1.6-0.1-0.6-1-0.6-1s1-0.4,1.8-0.4c0.8,0,3,0.2,3.6,0.4c0.6,0.2,2.6,0.6,2.6,0.6s1.8,1.8,3,2.4
		c4.8,2.4,15.3,10.1,15.3,10.1c1.3,0.8,1.2,3.4,1.2,3.4v2.6l-0.2,2.8l-0.6,2l-1,4.4l-0.4,2.8c0,0-0.6,1-0.8,1.4
		c-0.2,0.4-1.2,1.4-1.2,1.4l-1.6,0.4L335.4,265.9"/>
	<path class="st1" d="M342.1,244.5l-2.6-4.4c0,0-2.7-5.4-8-7.9c-3-0.9-3.7-2.2-3.7-2.2c-0.1-0.1-0.1-3.5-0.1-3.5
		c0.6-5.2-4-9.7-4-9.7s-5.6-3-6-3.2c-0.4-0.2-5.7-1.8-6.2-2c-0.4-0.2-4-3-4-3l-0.8-2.2l1.6,1l5.2,2.6l11.9,5.9
		c2.7,1.5,4.2,3.3,4.2,3.3c0.5,1.1,1.6,6,1.6,6c0.2,1.8,2,3,2,3c0.9,0.8,8.1,7.6,8.1,7.6C342.8,237.6,342.1,244.5,342.1,244.5"/>
	<path d="M254.4,166.4c-0.9-1.4-0.6-3.1-0.6-3.1c2-3.4,17.5-1.6,19.1-0.8l7,3.8l7.4,4c12.7,6.5,21.6,8.6,21.6,8.6
		c4.3,2.6,3.7,13.1,3.7,13.1l0.2,5.8l0.2,3.4l0.4,2.6c0.2,1.7,1.8,2.8,1.8,2.8l15.7,9.1c0,0,4.3,2.7,4.8,9.7c0,2.6-1.2,4-1.2,4
		c0.1,0.6,0,1.8,0,1.8s0.2,0.4,1.6,1.2c1.4,0.8,2.8,1.6,2.8,1.6l-0.2-1.8l-0.8-2.8l-0.2-6.4l0.3-4.7c0.1-1.2-0.6-1.9-1.9-2.6l-2-1
		l-7.9-4l-2.8-1.6l-4-2.4l-2.6-2.8l-1.6-3l-1-3.6l-0.4-3.4v-2.8l-0.2-3.7l-0.2-3.7c0.7-5.7-11.5-8.9-11.5-8.9l-8.7-3l-3.6-1.6
		l-6.2-4.4c0-0.3-6.2-4.2-6.2-4.2c-8.1-4.4-17.1-3.8-17.1-3.8l-3.8,0.3c-3.2,0.5-4.9,2.1-4.9,2.1l-0.2,1.6c0,0,0.3,1.5,0.5,1.9
		c0.2,0.5,0.9,1.5,0.9,1.5L254.4,166.4"/>
	<path d="M253.9,184.6c0.3,0.3,10.7,8.5,10.7,8.5c3.9,3.6,9.9,4.7,9.9,4.7c1.3,0.3,4.8,0.1,4.8,0.1c3.6,0.9,3.4,5.5,3.4,5.5
		c1.1,6.6-2,6.7-2,6.7c-0.9,0.5-1.6,0.8-1.6,0.8s-1.6,1-0.2,1.2c1.4,0.2,6.6-0.4,6.6-0.4l-1.8-12.5c-1.4-4.9-8.2-4.4-8.2-4.4
		c-1.5,0.3-3.6,0.1-3.6,0.1c-4.6-1.2-7.5-4-7.5-4l-9.9-7.4C251.6,182.4,253.9,184.6,253.9,184.6"/>
	<path d="M332.5,263.6l0.5-3.2l1.2-4.2c0.1-0.6-0.4-1.6-0.4-1.6c0-0.2-2.8-3.6-2.8-3.6c-0.3-0.6-0.1-3-0.1-3
		c0.1-1.2-0.6-3.7-2.1-7.5c-1.7-2.7-4.6-3.6-4.6-3.6s-1.6-0.6-1.6-0.4c-0.3,0.1-0.3,0.4,0,1c4,4.1,4.8,8.8,4.8,8.8
		c0.2,0.7,0.1,0.6,0.3,1c0.2,0.4,0.7,1.8,0.7,1.8l0.8,2l2.2,4.4c0.9,1.2-1.2,4-1.2,4l0.2,2.8L332.5,263.6"/>
	<path d="M332.2,264.6l-0.2-3c0,0-0.4-2.8-0.8-3.2c-6.9-6.3-15.1-6.2-15.1-6.2l-1.4,0.4l0.7,1c16.3,3.6,14.4,7.8,14.4,7.8
		c0.7,0.9,0.4,1.4,0.4,1.4l1,1.2L332.2,264.6"/>
	<path d="M309.3,251.6c0,0,5.3-0.6,5.7-0.7c8-2.3,13-0.6,13-0.6c1,0,1.9,1.4,1.9,1.4l0.6-0.6l-0.1-1.2c-0.1-1.9-3.7-2.3-3.7-2.3
		l-8.8,0.5l-3.8,0.6l-6,1.6L309.3,251.6"/>
	<path d="M300.7,201.1l0.1,2.4c0,0-0.4,7.6-0.4,6.8c0-0.2,0.2,4.2,1.8,5.6c1,0.6,3,2.4,3,2.4c1.2,0.9,3.3,4.5,3.3,4.5
		s1.8,5.9,1.5,6.4l-0.6,3.2l0.9,1.8c0,0,3.3-0.6,3.7-0.6c0.4,0,1.6-0.4,1.6-0.4l0.2-1c0,0-1-0.6-1.4-0.4c-0.4,0.2-1,0.4-1,0.4
		l-0.6-2.6c0-1.1-2.3-5.5-2.3-5.5l-0.5-1.5l-1.2-3.8l-2.4-3.4c-1.7-0.7-3-3.2-3-3.2c-0.7-1.2-1-9-1-9
		C302.2,202.5,300.7,201.1,300.7,201.1"/>
	<path d="M323.8,235.7c0.7,0.5-0.8-2.4-0.8-2.4l0.8-6.6c-0.5-7.1-7.8-11.7-7.8-11.7l-3.8-1.2l-2.2,0.2c-2.3,1.9-5,1-5,1
		s-5.4,1.2-6.4,0.8c-1-0.4-2-1.6-2-1.6s-0.6-1.7-0.8-1.2c-0.4,1.2-3.6,0-3.6,0l-5.8-2.4l-0.6,0.2l-4.4,0.6l-0.2,0.8l1,0.4
		c0,0,9.5,3,10.9,8.5c0.2,0.6,2.4,0.6,2.8,0.6s4.8-1.6,4.8-1.6s1.5-4.1,5-2c0.5,0.3,5-0.2,5-0.2l4,0.6c4.7,1.3,5.6,9.5,5.6,9.5
		c0.4,0.9-1,2.8-1,2.8s2.3,4.2,2.6,4.6C323.2,236.9,323.8,235.7,323.8,235.7"/>
	<path d="M252.4,205l1.4-1l1.2-1.2c0,0,1.4-1.6,2-1.6h2c0,0,3.5,0.6,4.1,0.8c0.6,0.2,3.6,1.3,3.6,1.3l4,0.8l1.6,0.2l2.6,1.4l1.4,1.8
		l0.6,1.2l0.2,1.6l1.2,1l2.6,0.6l-1.2-3.6l-2-4.6l-1.4-1.2l-1.6-0.8c-9.4-1.7-9.9-3.6-9.9-3.6l-1-1l-4-3.6l-5.3-5.4
		c-0.3-0.5-2.9-2-2.9-2c-0.9,0.2-0.4,1.1-0.4,1.1l4.6,3.8c0,0,3.2,4.8,4,5.4c0.8,0.6,1.2,1.8,1.2,1.8c-0.6,1.1-1.8,0-1.8,0l-1.2-1.6
		l-6.6-6.3c-2.4-1.4-0.7,1.1-0.7,1.1c0.3,0.5,4.4,5.4,4.4,5.4l0.4,2.2l-1,0.8l-1.4-0.6l-0.8,0.4L251,202L252.4,205"/>
	<path class="st1" d="M301.5,254.8l-0.6-1.6l-0.2-1.8c0.3-1.5,2.6-0.6,2.6-0.6s1.2-0.2,1.6-0.2c0.4,0,0.3-5.1,0.3-5.1l-2.9-0.1
		l-2.6,0.2c0,0-1.4-1.8-0.6-1.8c5.4,0,5.6-7.6,5.6-7.6c-0.3-1.8-1.4-0.8-1.4-0.8c-1.3,6.1-5.8,7-5.8,7l-2.4,0.2l-1.6-0.4l-0.8-0.8
		c5.8-3.1,6.8-6,6.8-6c0.8-0.7,0.6-4.6,0.6-4.6l-0.4-2c-0.7-0.7-1.4,0.2-1.4,0.2v1.6c0,0.7,0,1.4-0.2,2.2c-4,8.2-7.6,5.4-7.6,5.4
		l-0.8-0.8c6.7-0.9,5.6-14.3,5.6-14.3l-0.2-1.8l-0.8-0.8l-0.9,0.1c0.7,1.8,0.9,6.1,0.9,6.1c0.2-0.1-1.8,8.7-7.4,7.6
		c-0.4-0.1-2.2-0.4-2-0.8c0.2-0.4,0-1.2,0.6-1.4c0.6-0.2,1.8-0.8,2.2-1c0.4-0.2,2.2-2,2.2-2l0.8-1.8l0.2-2.4l-0.2-1
		c-0.2-0.2-0.8,0-0.8,0l-0.4,0.8c-0.6,5.6-5.4,6.2-5.4,6.2l-2.2,1h-1.2l-0.6-0.4c4.9-3.5,5.2-7.2,5.2-7.2l0.2-2.2
		c0-1-0.1-1.5-0.2-1.4c-0.1-0.2-0.8,0-0.8,0c0-0.1-0.6,0.8-0.6,0.8l-1,3.2c-1.3,3.6-4.8,5.2-4.8,5.2c-1.9,0.1-1-1.4-1-1.4
		c4.4-4.5,4-6,4-6l-0.2-3.4c-0.5-0.5-1,0-1,0l-0.6,1.8c-0.5,3.6-3.6,6.6-4.4,6.6c-0.8,0-1.4,0.4-1.4,0.4l-0.4-1l1.4-0.8l1.2-1.4
		l1-1.8c0.2-1.2,0.2-2,0.2-2.4c0.3-1,0.4-1.5,0.4-1.6c-0.4-0.3-1-0.2-1-0.2c-0.2-0.1-0.4,1-0.4,1c-0.7,2.2-1.6,3.6-2.6,4.4
		c0,0-1.6-0.1-1-0.6c1.4-1.1,1.4-4.8,1.4-4.8l-0.2-5l0.6-1.2l3.2-0.8l4.6,0.4l1.2-1l-2-1.6l-4.2-0.6l-2,0.8l-1.6,0.2l-2.2-0.2
		l-0.8-0.4l-4.4-2.8c-0.9-0.2-1.5-0.2-1.8,0c0,0-0.9,0.9,0.4,1.4c0.6,0.3,10.7,4.1,5.8,14.7c-0.1,0.5-1.2,1.2-1.2,1.2
		c-0.4,0.3-3.2,0.4-3.2,0.4c-0.3,0-2.2-0.8-2.2-0.8l-1.8-1.8V220l-5.2,0.8l-0.4,1.2l0.2,0.8c0,0,1.6,1.5,1.8,1.6
		c0.6,0.3,1.4,2.2,1.4,2.2c0.1,0,0,3.6,0,3.6l-0.3,11.1c0,1,1.9,4.5,1.9,4.5c0,0,1.7-0.2,1.7-0.2c-1.1-2-1.8-4.8-1.7-6.6l0.8-6
		c0,0,0.8-2.4,0.8-2.8c0-0.4,0.4-3.3,0.4-3.3s0.2-0.6,0.7-0.6c0.6,0,1,0.2,1,0.2c0.3,0.1,0.4,0.6,0.4,0.6c0.1,0.1-0.2,4.4-0.2,4.4
		c-2.6,9.4-1.2,14.2-1.2,14.2c0.1-0.1,2.6-0.3,2.6-0.3c-1.5-2.6-1.6-5.3-1.6-5.3l0.6-3l0.8-3l0.6-4.6l0.4-0.8h0.8l0.2,2v5l-0.6,3.7
		c-0.2,3.3,0.6,5.8,0.6,5.8l1.7-0.1l-0.5-2.2l-0.2-3c0,0,0.2-2.4,0.2-2.8c0-0.4,1-4,1-4l0.8-1.2c1.6-0.5,1.8,1.4,1.8,1.4l-1.6,8.2
		c0,0-0.4,3.8-0.2,4.2c0.2,0.5,1.6,2.8,1.6,2.8c0.3,0.5,0.8-0.4,0.8-0.4c0,0.4,0.6-8.9,0.6-8.9s0.7-1.2,2-0.5
		c2.2,0.1,2.8-2.3,2.8-2.3s2.9-2.8,3,2.6c0,1-1.6,3.1-1.6,3.1c-1.6,1.8,1.2,0.9,1.2,0.9l2.1-0.8c0,0,1.6-0.4,2-0.4
		c0.4,0,0.8,0,1.6,0.4c0.8,0.4,1.2,1.2,1.2,1.2l-1.4,2.8c0,0-0.3,2.3,0,3c0.7,1.5,2.2,0,2.2,0s-0.4-1.6-0.2-2
		c0.2-0.4,0.6-1.4,0.6-1.4c0.6-0.9,2.8-0.8,2.8-0.8c4,1.8,4.8,8.3,4.8,8.3c0.4,0.9-1,1.2-1,1.2l0.8,1.6l6.2,2.2l-2.3-3.3"/>
	<path d="M337.2,203.7l1.8,3.1l2.6,8.3l1.6,20.9l0.4,8.4v6.8c-0.8,3.5-2,4.6-2,4.6c-0.1,0-0.8-4-0.8-4v-8.9l-0.4-10.3
		c0.1-18.4-3.1-25-3.1-25L337.2,203.7"/>
	<path d="M307.5,208.5l3.3,9.8l2.6,5.5l2.4,6c0.7,0.9,0,2.4,0,2.4l1.6,1.2l4.4,2c0,0,1.4,0.2,1-0.8c-0.4-1-3-4-4.2-5
		c-1.2-1-1.4-1-1.6-1.6c-0.2-0.6-2.8-9.1-2.8-9.1l-2-6.2l-2.6-3.6L307.5,208.5"/>
	<path d="M242.3,188.9c-0.6,1.2,2.1,3.5,2.1,3.5c0.4,0.5,3.9,4.9,3.9,4.9s3.3,2.9,2.8,8.6c0.6,5.1-1.4,5.9-2.3,8.6
		c-0.2,3.1,1.4,9,1.4,9c0.8,1.8,2.8,13,2.8,13s0.8,10.9,1.3,10.9c0.7,0.9,5.4,1,14,0.5c5.9,2.8,5.5,9.8,6,9.8c0.5,0,2-0.7,2-0.7
		l1.1-2.6c0.6-1.1,0.9-2.8,0.9-2.8c-2.3-0.7-3.4-1.9-3.4-1.9c-1-1.4-0.5-3.4-0.5-3.4c0.3-2-3.5-1.6-3.5-1.6
		c-13.1,1.5-13.9,0.2-13.9,0.2c-1-1.3-3.1-18.8-3.1-18.8l-2.2-9.3c0-2.9,2.1-6.8,2.1-6.8c0.8-3.6,0-8.9,0-8.9c-1.4-3.9-5.2-8-5.2-8
		c-2.5-2.5-2.2-3.9-2.2-3.9c4.7-10,5.7-16.8,5.7-16.8l0.7-5.6c-0.8-7-2.9-7.8-2.9-7.8c-0.9-0.8-4.2-1.8-4.2-1.8
		c-3.3-1.1-7.9-1.3-9.1-1.3c-1.4-0.1-4.9,0.5-4.9,0.5c-1.6,0.3-3.4,1-3.4,1s-2.3,1.1-0.2,1.2c0.5,0,6.7-1,8.2-0.7
		c1.6,0.3,5.3,0.3,11.1,2.8c4.8,1.5,1.7,13.3,1.7,13.3L242.3,188.9"/>
	<path class="st1" d="M259.3,313.9l-10.1,12.7L235.5,347l-8.1,16.2l-10.4,36.9h4.9c3.4-29.9,20.4-58,20.4-58l15.3-20.5l18.1-22.7
		l15-14.4c0,0,17.2-13,18.7-14.3c1.2-2.5,2.8,4.1,2.8,4.1c1.6,3.2,2.4,4.5,2.4,4.5c2.6,8.3-0.2,7.9-0.2,7.9c-5.8,0.8-8.3,5-8.3,5
		c-4,6.3-1.8,13.7-1.8,13.7c-8.2-0.9-10.6,5.3-10.6,5.3c-4.9,9.3-1,18.3-1,18.3s1.2,6,0.9,10.5c0,0.6-0.3,6.6,2.2,8
		c2.2,1.6,4.1,2,4.1,2s1.4,2.8,3.5,3c4.1,0.5,6.7-4.8,7-5.1c0.3-0.3,4.8-4.4,4.8-4.4s2.6-1.7,6.1-0.9c0.4,0.1,4.9-0.3,4.9-0.3
		c4.7-0.3,6.4-4.9,6.4-4.9s0.3,11.4,8.1,13.7c-0.8,1-0.7,3.1-0.7,3.1c-1.5,6.4,3.2,9.5,3.2,9.5c10.1,6.1,20.3,0.3,20.3,0.3
		c6.1-3.5,6.4-12,6.4-12c0.7-6.9-0.1-11-0.1-11c-5.6-8.9,0.2-15.1,0.2-15.1c1.9-1.7,3.2-5.1,3.8-10.1c0.7-8.3-3.5-11.2-3.5-11.2
		c-2.8-2.3-2-4.9-2-4.9l0.9-10c0.1-5-2.1-9.1-2.1-9.1c-0.7-2.3-4.5-4.1-4.5-4.1c-2.8-0.6-6.8-0.5-6.8-0.5c-8.6,0.5-8,2.1-9.1,1.8
		c-0.6-0.2,1.2-2.1,0.7-5c-2.6-4.7-1.2-7.5-1.2-7.5l4.4-6.3c6.2-11,5.1-24.3,5.1-24.3c-1.6-23.2-6-35.5-6-35.5
		c-6.4-20.6-16.1-39-16.1-39c-12.5-20.2-39.5-23.9-39.5-23.9c-13.3-2.7-36.1-1.7-36.1-1.7c-11.8,0.9-18.5,3.9-18.5,3.9
		s-10.4,4-14.8,11c-0.1,0.2-1.5,3.6-1,3.9c1.2,0.7,1,1.6,1,1.6c0.3,1.1-1,2.5-1,2.5l-3.3,5c0,0-1.6,2.7-3.4,8.6
		c0,0.1-2.2,5.6-2.2,5.6c-0.9,3.9-2,7.5-2,7.5c-0.3,0.5-4.2,8.6-4.2,8.6c-1.2,6.1-3.3,8.5-3.3,8.5l-15.7,24.3
		c-1.8,3.4-2,6.7-1.6,7.9c0.6,1.6,1,2.4,2.5,2.4s4.8,0.3,5.9,0.3c2.8-0.1,3,2.2,3,2.2s0.1,7.2,0.2,7.8c0.1,0.7,0.2,4.3,0.2,4.3
		s-0.2,2.3,2.8,3.5c0.1,0.2,0.6,0.7-0.5,2.4c-0.2,0.5-1,4.7-0.8,5c0.2,0.4,0.1,1,1.1,1.5c3.3,1.4,3.3,3.8,3.3,3.8
		c0.6,1.4-2.8,7.2-2.8,7.2c-1.9,3-1.1,11.9-1,12.5c1.2,7.2,9.4,9.1,9.4,9.1c8.3,0.4,13,0.1,13,0.1l9.8-0.9c2.9-0.3,3,4.8,3,4.8
		l7.6,33.6c2.6-3.8,2.4-3.6,2.4-3.6l-1.4-7.5l-4.3-19.6c-1.7-9.3-1.6-6.6-1.6-7.7c0-1,3.3-1.4,3.3-1.4c22.7-3.9,25-11,26-12.5
		c3.7-6.4,9.7-25.2,9.7-25.2s2-2.4,3.7-2.9c2.3-0.7,4.5,0.7,4.5,0.7c1,0.6,3.5,3.4,3.5,3.4c1.6,1.1,5.1,2.2,5.1,2.2
		c1.5,0.3,6.7,2.5,7.2,2.7c0.5,0.2,2.2,1.5,2.6,1.9c0.4,0.4,5.8,1.7,5.8,1.7c-1.1-2.2-0.5-2.5-4.8-5.8c-0.7-0.5-11.5-4-11.5-4
		c-2.8-1.6-4.4-3.2-4.9-3.7c-3.8-3.2-5.9-3.7-5.9-3.7c-3.9-0.7-8.8,5.7-8.8,5.7l-1.6,3.4c0.4,4.2-7.1,20.2-7.1,20.2
		c-1.1,2.1-1.6,5.9-7.3,7c-4.8,1.8-7.8,2.6-13.5,3.7c-9.6,2.2-16.4,2.2-16.4,2.2l-11.7,0.2c-20.2,0.6-12.7-15.5-12.7-15.5l1.8-4.4
		c0.5-1.3,1.4-0.7,2.4-0.6c3,0.1,0.5-2.6,0.5-2.6c-1.2-1.2-2.7-4.1-0.3-6.3c0.1-0.6-1.2-0.4-1.2-0.4c-2.6,1.7-3.8,0.2-3.8,0.2
		c-1.6-2.4,0.7-3.8,0.7-3.8s1.3-1.4,6.1-0.1c1.1,0.3,3.9,0,3.9,0c2-0.4,1.9-1.9,1.9-1.9c-2.6-1.9-2-1.7-3.2-2.3
		c-0.7-0.3-1.2,3.5-5.4,0.5c-2.2-2.1-2.6-1.9-2.8-1.9c-2.4,0-2.7,0.7-3.4-1.9l-0.2-9.6l0.1-2.8l4.3,0.6c2.6,0.9,4,0.6,4,0.6
		c-0.9,0.4,4.4-0.5,2.5-5.1c-1.2,2.8-6.9,1.2-6.9,1.2c-4.1-3-9.9-1.5-9.9-1.5c-7.3,1.1-4-4.5-4-4.5l7-11.1c0,0,7.6-10.7,11.7-17.6
		c0.9-7.5,2.2-10.4,2.2-10.4c3-3.3,3.9-6.2,3.9-6.5c4.1-13.5,4.8-16.2,4.8-16.2c0.6-2.3,3.3-6.8,6.5-7.3c-2.7-2.8-2-8.5-0.1-10
		c1.5-1.9,5.5-4.7,5.5-4.7c1-0.7,12.1-6,24.8-6.4c12.2-0.4,22.6,0.2,31.2,1.2c7.7,0.9,28.2,9.9,28.2,9.9
		c6.2,3.2,11.1,10.3,11.1,10.3c3.9,4.2,12.2,23.5,12.2,23.5s6.1,20.6,6.3,20.6c0.3,0,4.5,14.1,5.2,37.5c-0.9,15.6-8.4,19.9-8.4,20
		c-1.2,2.3-1.1,3.9-1.1,3.9c-0.2,2.5,0.3,4.2,0.3,4.2c1.9,4,1.4,6,1.4,6c0.2,0.5-1.4,3.9-1.4,3.9s-0.6,2.6,4.3,1.8
		c1-0.2,4.4-0.9,4.4-0.9c7.4-0.9,12.8-0.4,14.4,8.6c0,0-2.1,7.9-1.3,14.8c6.7,7.5,5.6,14.1,5.6,14.3c0,0.3,0.1,0.9-2.6,4.2
		c-0.2,0.2-4.2,7-4.2,7c-1.7,7.1,0.8,11.8,0.8,11.8c2.4,4,1.2,12.5,1.2,12.5c-3,15.4-30.6,13-22.9-2.8c-6.6-4.5-7-8.5-7-8.5
		l-3.4-9.9l-5.7,5.7c-2.2,2.8-7.5,2.8-7.5,2.8l-7.7-0.6c0,0,0.6,3.8-3.2,6c-5.4,7-8,2.5-8,2.5c-5.9-3.9-5-17.9-5-17.9
		c-5.1-6.2-0.4-14-0.4-14c1.4-8.8,10.9-8.5,10.9-8.5s0-3.9,0-5.8c0.1-3.2,2.1-7.5,2.1-7.5c3.1-3.6,6-4,6-4c5.3-0.3,4-5.4,4-5.4
		l-1.3-6L315,270c-0.6-1.6-3.4-5.2-3.4-5.2l-3.1,2l-17.4,13.4C277.3,290.9,259.3,314,259.3,313.9"/>
	<path d="M194.4,337l0.6-0.9l0.6-1.1l0.7-0.6l0.6-0.6l0.4-1.2c0.2-0.1-1,0.4-1,0.4l-1.1,0.5l-0.7,0.5l-0.8,0.5l-0.5,3L194.4,337
		l0.6-0.9l0.6-1.1l0.7-0.6l0.6-0.6l0.4-1.2c0.2-0.1-1,0.4-1,0.4l-1.1,0.5l-0.7,0.5l-0.8,0.5l-0.5,3L194.4,337L194.4,337z
		 M202.2,251.2l-1.3,0.2l-1,0.7l-1.8,1l-1.3,0.9l-1.3,0.9l-1.3,0.7l-0.6,0.6l-1.1,0.9l-0.9,0.7c0,0-0.9,0.4-1.2,0.4
		c-0.7,0.1-0.7-0.9-0.5-1c0.2-0.1,1.2-0.9,1.2-0.9l1.5-0.9l1.2-1l1-0.8l1.3-0.9l1.5-0.8l1.1-0.9l0.7-0.4l0.7-0.4l0.7-0.6l1.2,0.3
		l0.7,0.4L202.2,251.2l-1.3,0.2l-1,0.7l-1.8,1l-1.3,0.9l-1.3,0.9l-1.3,0.7l-0.6,0.6l-1.1,0.9l-0.9,0.7c0,0-0.9,0.4-1.2,0.4
		c-0.7,0.1-0.7-0.9-0.5-1c0.2-0.1,1.2-0.9,1.2-0.9l1.5-0.9l1.2-1l1-0.8l1.3-0.9l1.5-0.8l1.1-0.9l0.7-0.4l0.7-0.4l0.7-0.6l1.2,0.3
		l0.7,0.4L202.2,251.2l-1.4,0.2l-1,0.7l-1.8,1l-1.3,0.9l-1.3,0.9l-1.3,0.7l-0.6,0.6l-1.1,0.9l-0.9,0.7c0,0-0.9,0.3-1.1,0.3
		c-0.2,0-0.8-0.1-0.8-0.1s0-0.7,0.2-0.8c0.2-0.1,1.2-0.9,1.2-0.9l1.5-0.9l1.2-1l1-0.8l1.3-0.9l1.5-0.8l1.1-0.9l0.7-0.4l0.7-0.4
		l0.7-0.6l1.2,0.3l0.7,0.4L202.2,251.2l-1.3,0.2l-1,0.7l-1.8,1l-1.3,0.9l-1.3,0.9l-1.3,0.7l-0.6,0.6l-1.1,0.9l-0.9,0.7
		c0,0-0.9,0.3-1.1,0.3c-0.2,0-0.8-0.1-0.8-0.1s0-0.7,0.2-0.8c0.2-0.1,1.2-0.9,1.2-0.9l1.5-0.9l1.2-1l1-0.8l1.3-0.9l1.5-0.8l1.1-0.9
		l0.7-0.4l0.7-0.4l0.7-0.6l1.2,0.3l0.7,0.4L202.2,251.2L202.2,251.2z M200.5,236.4l-1.8,1.2l-1.9,1l-1.8,0.9l-1.1,0.9l-1.6,0.9
		l-1.2,0.7l-1,0.4l-1.1,0.4c0,0-0.4-0.1-0.3-0.3c0.1-0.2,0.4-0.8,0.4-0.8s1.3-0.6,1.5-0.8c0.1-0.2,1.6-0.8,1.7-1
		c0.1-0.2,1.1-1.1,1.1-1.1s0.8-0.4,1.3-0.7c0.6-0.2,1.7-1.1,1.7-1.1s1.3-0.6,1.5-0.8c0.1-0.2,0.2-0.4,0.6-0.8
		c0.3-0.3,0.9-0.7,0.9-0.7s0.7-0.2,0.9,0.1c0.2,0.3,0.6,0.7,0.6,0.7L200.5,236.4l-1.8,1.2l-1.9,1l-1.8,0.9l-1.1,0.9l-1.6,0.9
		l-1.2,0.7l-1,0.4l-1.1,0.4c0,0-0.4-0.1-0.3-0.3c0.1-0.2,0.4-0.8,0.4-0.8s1.3-0.6,1.5-0.8c0.1-0.2,1.6-0.8,1.7-1
		c0.1-0.2,1.1-1.1,1.1-1.1s0.8-0.4,1.3-0.7c0.6-0.2,1.7-1.1,1.7-1.1s1.3-0.6,1.5-0.8c0.1-0.2,0.2-0.4,0.6-0.8
		c0.3-0.3,0.9-0.7,0.9-0.7s0.7-0.2,0.9,0.1c0.2,0.3,0.6,0.7,0.6,0.7L200.5,236.4L200.5,236.4z M200.5,246.6l-1.1,0.7l-1.6,0.8
		l-2.2,1.3l-1.7,1.1l-1.5,1c0,0,0,0.1-0.8,0.4c-1.1,0.4-1.6,0.6-1.6,0.6c-0.3,0.1-0.7-0.6-0.4-0.8c0.2-0.2,1.1-1,1.1-1l1.5-0.7
		l1.9-1.6l1.5-1.1l1.5-0.8l1.2-0.9l1-0.6l0.8-0.3l0.7-0.9l0.1-1.5l-1-0.1l-1,0.3l-1.9,1.3l-2.6,1.6l-1.3,1l-1,0.8c0,0-1,0.6-1.3,0.6
		c-0.3,0-0.9,0.1-1.1,0.1c-0.8,0.1-0.8-0.6-0.8-0.6c0.2-0.6,1.1-1,1.1-1l3.5-1.8l1.7-1.3l1.4-0.9l1.4-1l1.3-0.3l1-0.2l0.6,0.1
		l0.9,1.9v1.8L200.5,246.6l-1.1,0.7l-1.6,0.8l-2.2,1.3l-1.7,1.1l-1.5,1c0,0,0,0.1-0.8,0.4c-1.1,0.4-1.6,0.6-1.6,0.6
		c-0.3,0.1-0.7-0.6-0.4-0.8c0.2-0.2,1.1-1,1.1-1l1.5-0.7l1.9-1.6l1.5-1.1l1.5-0.8l1.2-0.9l1-0.6l0.8-0.3l0.7-0.9l0.1-1.5l-1-0.1
		l-1,0.3l-1.9,1.3l-2.6,1.6l-1.3,1l-1,0.8c0,0-1,0.6-1.3,0.6c-0.3,0-0.9,0.1-1.1,0.1c-0.8,0.1-0.8-0.6-0.8-0.6c0.2-0.6,1.1-1,1.1-1
		l3.5-1.8l1.7-1.3l1.4-0.9l1.4-1l1.3-0.3l1-0.2l0.6,0.1l0.9,1.9v1.8L200.5,246.6L200.5,246.6z M203.9,261.3l-1.2-0.4h-1.5l-1,0.4
		l-1,0.6l-1.6,0.9l-1.6,0.9l-2.1,1.3l-1.1,0.7l-0.6,0.3l-1.3,0.4l-0.1-0.3l0.4-0.4l0.9-0.7l0.9-0.7l2.1-1.7l1.9-1.2l1.8-1l1.2-0.8
		l1-0.7l1.2-0.7l1.1,0.2l0.7,1.7l-1.3,0.8h-1.5l-1,0.4l-1,0.6l-1.6,0.9l-1.6,0.9l-2.1,1.3l-1.1,0.7l-0.6,0.3l-1.3,0.4l-0.1-0.3
		l0.4-0.4l0.9-0.7l0.9-0.7l2.1-1.7l1.9-1.2l1.8-1l1.2-0.8l1-0.7l1.2-0.7l1.1,0.2l0.7,1.7L203.9,261.3L203.9,261.3z M194.6,315.9
		c-7.4,1.6-9.3,1.4-9.3,1.4l-23.3,1c-3.7-0.1-5.6-0.8-5.6-0.8l5.6-0.7c7.1,0.2,29.7-2.9,29.7-2.9l9.5-1.3
		c-14.1,4.9-15.9,4.7-15.9,4.7l-23.3,1c-3.7-0.1-5.6-0.8-5.6-0.8l5.6-0.7c7.1,0.2,29.7-2.9,29.7-2.9l9.5-1.3L194.6,315.9
		L194.6,315.9z M169.9,246l0.1,0.9l0.4,0.7l0.7,0.5l0.5,0.2l0.9,0.1l1-0.3l0.6-0.7l0.3-0.5l-0.1-0.5c0,0,0.3-0.2-0.5-0.2
		c-0.8,0-1.3,0.1-1.3,0.1l-0.9-0.1l-0.5-0.3l-0.5-0.1H170L169.9,246l0.1,0.9l0.4,0.7l0.7,0.5l0.5,0.2l0.9,0.1l1-0.3l0.6-0.7l0.3-0.5
		l-0.1-0.5c0,0,0.3-0.2-0.5-0.2c-0.8,0-1.3,0.1-1.3,0.1l-0.9-0.1l-0.5-0.3l-0.5-0.1H170L169.9,246L169.9,246z M169,243.5l1.6,0
		c0,0,0.9-0.1,1.1-0.1h1.7c0.3,0,1.7-0.5,1.8-0.5c0.1,0,2.7-1.7,2.7-1.7l0.6-0.8l-0.4-1.1l-0.6-1.5c0,0-0.9-0.7-1.1-0.7
		c-0.2-0.1-1.1-0.6-1.1-0.6l-0.9-0.7l-1.3-0.8l-1.1-0.8l-0.7-0.6l-1.3-0.4l-0.5-0.1l-0.3-0.1l-0.7,0.1l-0.5,0.3l0.1,0.5l0.3,0.4
		l0.7,0.3l0.7,0.3l0.9,0.3l1.1,0.5l1,0.4l0.8,0.7l0.7,0.8l0.4,0.9l-1.2,0.5l-0.9-0.1l-0.5-0.8l-0.5-0.3l-0.5-0.6l-0.6-0.3l-0.5-0.1
		l-0.9,0.1l-0.8,0.4l-0.1,0.7l0.1,0.7l0.1,1.2c0,0,0.7,0.1,0.8,0.1c0.1,0,0.9,0.1,0.9,0.1l0.9-0.2c0,0,0.4-0.2,0.5-0.2
		c0.1,0,0.7-0.2,0.9-0.2c0.2,0,0.9,0.1,0.9,0.1l1,0.8l-0.1,0.9l-1.1,0.5h-0.7l-1.1,0.3l-0.9,0.1l-1.4,0.1l-0.5,0.5L169,243.5l1.6,0
		c0,0,0.9-0.1,1.1-0.1h1.7c0.3,0,1.7-0.5,1.8-0.5c0.1,0,2.7-1.7,2.7-1.7l0.6-0.8l-0.4-1.1l-0.6-1.5c0,0-0.9-0.7-1.1-0.7
		c-0.2-0.1-1.1-0.6-1.1-0.6l-0.9-0.7l-1.3-0.8l-1.1-0.8l-0.7-0.6l-1.3-0.4l-0.5-0.1l-0.3-0.1l-0.7,0.1l-0.5,0.3l0.1,0.5l0.3,0.4
		l0.7,0.3l0.7,0.3l0.9,0.3l1.1,0.5l1,0.4l0.8,0.7l0.7,0.8l0.4,0.9l-1.2,0.5l-0.9-0.1l-0.5-0.8l-0.5-0.3l-0.5-0.6l-0.6-0.3l-0.5-0.1
		l-0.9,0.1l-0.8,0.4l-0.1,0.7l0.1,0.7l0.1,1.2c0,0,0.7,0.1,0.8,0.1c0.1,0,0.9,0.1,0.9,0.1l0.9-0.2c0,0,0.4-0.2,0.5-0.2
		c0.1,0,0.7-0.2,0.9-0.2c0.2,0,0.9,0.1,0.9,0.1l1,0.8l-0.1,0.9l-1.1,0.5h-0.7l-1.1,0.3l-0.9,0.1l-1.4,0.1l-0.5,0.5L169,243.5
		L169,243.5z M160.4,240.4c1.7,0,2.6-0.1,3.9-0.3c0.1-0.7,0.4-5.3,0.4-5.3v-2.4l0.4-2l1.2-1.4c0,0,0.8-0.8,1.6-0.8
		c0.8,0,2.4,0.2,2.4,0.2l2.8,0.2l2,1l3.6,1.4l2.4,3.4l0.6,1.1l1.7,0.7c0.4,0.1,1.9,0.7,1.9,0.7c-0.4-0.5-4.1-6.5-4.6-7.1
		c0,0-1.1-0.9-1.5-0.7c-1.5-0.7-2.4-0.8-2.4-0.8l-3.2-1.4l-2.2-1.2l-2.3-0.4h-2.3l-2.2,0.1l-2.4,0.3l-0.7,1l0.8,2.3l0.4,1.7v4.4
		l-0.7,2.5L160.4,240.4c1.7,0,2.6-0.1,3.9-0.3c0.1-0.7,0.4-5.3,0.4-5.3v-2.4l0.4-2l1.2-1.4c0,0,0.8-0.8,1.6-0.8
		c0.8,0,2.4,0.2,2.4,0.2l2.8,0.2l2,1l3.6,1.4l2.4,3.4l0.6,1.1l1.7,0.7c0.4,0.1,1.9,0.7,1.9,0.7c-0.4-0.5-4.1-6.5-4.6-7.1
		c0,0-1.1-0.9-1.5-0.7c-1.5-0.7-2.4-0.8-2.4-0.8l-3.2-1.4l-2.2-1.2l-2.3-0.4h-2.3l-2.2,0.1l-2.4,0.3l-0.7,1l0.8,2.3l0.4,1.7v4.4
		l-0.7,2.5L160.4,240.4L160.4,240.4z M182.8,156.2c-1.8-0.4-3.5-0.7-3.5-0.7c-0.3,0,4.2-2,12.4,0.5c1.6,0.5,1.5-1.6,1.5-1.6
		c-0.3-1.6-4.2-3.6-3.9-3.3c-4.9-1.4-9.6-0.8-9.6-0.8l6.3-7.4c0,0,1.5-0.3,1.7-0.3c0.2,0,3.4-0.6,6,0.1c2.5,0.7,5.7,6.2,5.7,6.2
		l1.6,2.2c3,4.9,2.2-0.1,2.2-0.1s-0.3-1.3-0.4-1.5c-1.3-4.3-3.2-6.7-4.5-8.6c-1-1.4-4.7-1.7-4.7-1.7c-7.5,0.8,3.6-2.5,6.9-0.8
		c0.2,0.1,1.7,2.4,1.7,2.4l4.7,12.4c0.5,1.1,1.3,2,2,2.9l-5.6,0c-0.1,0-0.2,0-0.4-0.1c-1.3-0.3-2.8-0.2-4.1,0.1L182.8,156.2
		L182.8,156.2z M219.9,156.2c0.3-0.3,0.6-0.6,0.9-1c1-1.1,1.2-1.5,1.2-1.5c2.1-0.3,5-0.3,2.9,2.5H219.9L219.9,156.2z M186.6,147.6
		c0.4,0.1,1.4,0.1,1.4,0.1c6.6,0.5,7.1,4.5,7.1,4.5c0.2,0.9,3.2,4.1,3.1-1.6c-1.5-5.8-8-5.7-8-5.7c-2.7,0-3.9,1.2-3.9,1.2
		S185.8,147.2,186.6,147.6 M199.1,156.3c-1.5,0.3-2.8,0.8-3.2,1.2c-0.2,0-5.2,2.8-7.3,5.5c0,0-5.1,5.7-5.4,8.4c0,0-0.1,1,0.8,1.3
		c0,0,0.6,0.1,0.8,0.1c0.6-0.6,3.4-6.5,5.4-8.1c0,0,7.3-6.1,12.4-3.7l4,2.8c0,0,1.2,0.7,2,0.8s2.6,0.1,4.6-0.5c0,0,2.7-0.4,0.4-1.6
		l-1.3-0.6l-1.2-0.4c-1.2-0.3-2.8-1.6-4.9-4c0,0-1.4-0.8-2.5-1.1l5.6,0c1.8,1.9,3.7,3,3.8,3c0.2,0,3.2,0.9,6.9-3l5,0
		c-0.1,0.2-0.3,0.3-0.4,0.5l-4.1,2.1c0,0-3.1,2-3.3,3.9c0.3,2.5,3.7,0.1,3.7,0.1c1.2,3.2-1.7,4.9-1.7,4.9c-1.2-0.7-5.7-0.1-5.7-0.1
		c-3.5,0.9-6.2,4-6.2,4c-1.7,2.2-3.5,3.5-4.9,4.4l-4.5,0c4.3-1,4-1.9,4.4-2.8c0,0,0.4-1-0.9-0.7c-0.3,0.1-4.7,0.8-5.1,0.8
		c-0.4,0-1,0.1-1,0.1s3.1-2.2,10.9-2.7c1.3-2.2,1.1-1.8-0.4-2.7c0,0-3.2-0.9-4.7-0.4c-3.2,0.7-5.6,3.1-5.6,3.1l-3.3,2.8l-3.6,2.1
		c0,0,0.5-1.6,0.6-1.7c2.1-3.1,8.2-6.5,8.2-6.5l3.5-1.4c2.2-2.5-3.1-2-3.1-2c-6.2,0-10.6,7-10.6,7s-1.9,4.5-2.1,4.8
		c0,0.1-0.1,0.1-0.1,0.2l-4.9,0c-0.4-0.7-0.7-1.3-0.7-1.4c0-0.1-1.2-0.8-1.4-0.8c-0.2,0-1.7-0.4-1.7-0.4c-6.1-0.4-8.4,1.6-9.6,2.6
		l-4.8,0c0.7-1.2,1.3-1.9,1.3-1.9c2.1-1.7,3.3-2.9,5.4-3.3c0,0,3.2-1.3,11.4-0.7c1.6-1.3-0.1-2.3-0.1-2.3s-4.4-1.4-13.1-0.4
		c-1.4,0.4-2.1-0.8-2.1-0.8c-0.1-0.3,3.7-5.4,3.9-5.4c0.2,0,8.4-2.1,16.5-0.2c4.5,1,2.6-2.8,2.2-2.9c-0.4-0.6-2.4-1.2-4.3-1.6
		L199.1,156.3L199.1,156.3z M205.5,175.9c2-1.5,3.7-2.9,3.7-2.9c2.6-1.4,8.1-0.4,8.1-0.4c0,0.1-0.5,1.6-1,3.2L205.5,175.9
		L205.5,175.9z M168.3,165.4c3.6-0.1,5.1-0.4,5.1-0.4c2.6-0.3,6.3,0.7,6.3,0.7c1.2,0.4,3.5,0.4,3.5,0.4c2.4-0.5,0.9-2.7,0.9-2.7
		c-3.3-2.3-8.4-2-8.4-2c-6.4-0.2-8.3,3.1-8.3,3.1C167.2,164.7,167.2,165.5,168.3,165.4 M198,383.1l-3.5-0.1l0.5-13.7
		c0.1-7.3-2.3-13.3-2.3-13.3l-2.8-6.7l-2.8-5.1l-2.5-5.5c-1.4-2.6-1.6-5.6-1.6-5.6l0.1-1.7c0.1-4.4-3.3-4.1-3.3-4.1l-14.4-3
		l-7.4-0.6c-16.3,0.2-13.9-18.4-13.9-18.4c0.4-2.5,2.1-4.5,2.1-4.5l1.8-3.2c1.2-2.3-1.4-4.5-1.4-4.5l-2-1c-1.4-0.6-0.6-4.2-0.6-4.2
		l0.4-1.3l0.6-2c0.1-1.1-1-2.2-1-2.2c-0.9-1.5,0-4.8,0-4.8l0.2-4.2l-0.2-2.1c0,0-0.1-2.3-0.1-2.1c0,0.2-0.1-0.2-0.1-0.2l-2.6,0.1
		c-8.1,0.2-7.8-7.8-7.8-7.8c0.4-3.2,4.2-7.1,4.2-7.1l3.9-6.8l4.6-6.8l5.1-6.9c1.7-2.2,1.2-6.9,1.2-6.9l-0.1-3.2
		c-0.1-4.1,1.4-5.3,1.4-5.3l2.5-4.2c0,0,2.3-5.9,2.5-6.1c1.6-2.7,2.7-14.1,1.9-15.2c0.8,0.4-6-3.1-6.4-4.7
		c-1.7-10.8,1.2-16.3,1.2-16.3l7.1-6.2l5.3-6.4c6.7-10.2,13-10.4,13-10.4c1.8-4.4,7.5-8.8,7.5-8.8s5.9-4,16.7-2.4
		c3.2,0.1,4.2,3.1,4.2,3.1s1.3,9.4,5.8,11.4c5.9,3.9,9.2-0.4,9.2-0.4c2.4-1.1,3.3,1.7,0,2.7c-0.9,0.2-3.5,0.5-3.5,0.5
		c-8.7,1.8-11.1-5.1-11.1-5.1l-2.6-6.4c-1-3.9-6-3.7-6-3.7l-6.9,0.5c-1.6,0-3,0.3-4.4,0.9c-2,1.4-3.9,4.6-3.9,4.6l-1.2,1.6l-1.8,2.1
		l-1.7,1.1l-2.1,0.9c0,0-4.7,1.9-9.5,8.3c-1.4,2.7-3.3,5.3-5.2,7.8l-4.6,3.5c-5.3,4.2-4.1,9.9-4.1,9.9l0.2,4.9
		c0.1,1.5,2.7,2.9,6,4.1c1.4,0.7,1.6,2.3,1.6,2.3l0.2,4.2l-0.7,7.6l-1.4,5.5l-2.1,5.6l-2,3.8c-1.5,2.7-1,5.2-1,5.2v5.3
		c0.1,3.5-4.4,7-4.4,7l-3.8,4.8l-4.6,7.9l-1.6,2.1c-2.8,2.8-6.4,9.3-6.4,9.3c0.2,2-1.5,5.6,4.9,5.4c1.2,0,5.4-0.5,5.4-0.5
		c3.5,0.5,6,2,6,2c1.7,2.3,4.5,1.6,5.3,1.3c1.3-0.4,2-0.6,0.7-4.1c-0.3-0.7-1.2-3.2-1.2-3.2l0.5-0.5c0,0,3.3,4.8,3.6,8.2
		c-4,2.6-6.1,1.8-6.1,1.8l-4.1-1.7l-3.2-0.5c-2.7-1.4-1.1-0.5-1.1-0.5c1.7,2.2,0.3,8.1,0.3,8.1l-0.4,2.1c0,0-0.4,1.6,1.1,1.7
		c1.1,0.1,1.8,0.2,2.1,0.3c0.5,0.1,1.1,0.6,1.3,0.9c1.7,2.6,2.7,1.8,2.7,1.8s2.2-0.1,2.9-0.1c0.6,0,1.5,2.4-0.4,2.4
		c-2.2,0.1-3.4,0.2-3.4,0.2c-0.6,0-2.5-1.4-2.5-1.4c-3.9-1.7-6.1,8.7-1,7.4c1.3,1.1,2.2,5.1,2.2,5.1c0,1.9-4.3,6.6-4.3,6.6
		s-1.1,2.2-0.3,7.1c0.6,6,5.9,10.1,15.7,10.1c4.7,0.2,12,0.7,12.2,0.7c0.2,0,6.1,0.2,6.7,0.2c14.2,0.6,31.4-14.8,31.4-14.8
		l13.1-13.8c5.6-4.9,5.1-0.3,5.1-0.3c3,1.2-4.5,8.6-4.5,8.6c0.6-0.3-16.9,11.5-16.9,11.5c-7,4.5-7,7.2-7,7.2
		c-0.5,5.3-0.6,5.5-0.6,5.5s-7.8,5.2-9.1,4.9c-0.9-0.2,6.8-6.4,6.8-6.4c1.4-3-1.9-1.8-2.6-1.5c-5.1,3.3-11.7,3.1-11.7,3.1l-0.1,3.9
		c0.5,6.7,3,11.4,3,11.4l3.5,6l2.3,4.8c3.1,5.6,3.9,12.9,3.9,12.9L198,383.1 M203,255.7c-0.2-0.1-1.5-0.3-1.5-0.3l-0.9,0.6L199,257
		l-0.9,0.6l-1.8,1l-1.1,0.7l-0.9,1l-0.9,0.4l-1.3,0.4l-0.9,0.3c-0.2,0.2-0.8,0-0.8,0s-0.1-0.4,0.3-0.7c0.4-0.2,1.1-0.6,1.5-0.8
		c0.3-0.2,2.6-2.1,2.6-2.1l3-2.2l2.6-1.6c0,0,1.8-0.9,2-0.9c0.2,0,0.7-1.1,0.7-1.1l1-0.3l1.7,1.3c0,0-0.3,0.8-0.4,1.1
		c-0.1,0.3-0.7,1.2-0.7,1.2S203.2,255.8,203,255.7 M221.5,300.5l-9.7,2l-9.9,1.9l-12.9,1.9c-2.6,0.4-5.3,0-5.3,0
		c-1,0.2-0.7-0.4-0.7-0.4c0-0.5,1.1-1.1,1.4-1.1c0.4,0,1.8-0.2,1.8-0.2c1.8,0.1,10-1.2,10-1.2l9.7-1.8c0,0,7.4-1.7,8.3-1.9
		c0.9-0.2,8.3-1.9,8.3-1.9L221.5,300.5 M203.7,308.5l-10,2.1l-13.2,1.7c0,0-7,0.3-7.2,0.3c-0.7,0.2-1.9-0.2-1.9-0.2
		c-0.1-0.5,0.2-0.6,0.2-0.6s0.8-0.2,1.2-0.2c0.3,0,7.7-0.6,7.7-0.6l15.5-2.2l10.3-2.4l4.5-1.1L203.7,308.5 M166.5,175.8
		c-0.1,0.1-0.3,0.2-0.4,0.3c-3.2,2.1-5.1,6.4-5.1,6.4l-0.6,5c0.9,1.9,3.2,0.2,3.2,0.2c0,0,0.5-3.2,1.8-4.8c0.9-1.5,3.3-3.6,7.9-4.8
		c2.1-0.4,3-0.8,3.3-0.7c2.5,0.5,1,2.3,1,2.3c-0.5,0.3-5,1.3-5,1.3c-5.4,0.9-6.4,6.3-6.4,6.3c-0.2,4.7-2.6,8.1-2.6,8.1
		c-1-4.8-3.8-6.2-3.8-6.2c-0.7-1.7-0.8-3.4-0.8-3.4c0.1-4.4,1.6-8,2.8-10.1L166.5,175.8L166.5,175.8z M184.8,175.8
		c-1.9,3.9-3.9,1.7-4.9,0L184.8,175.8z M202.3,175.8c-1.7,1-2.9,1.2-2.9,1.2l-9,2.3c0,0-0.3,0.6-0.2,0.6c0.1,0.1,1.9,5.3,8.8,0.7
		c0.2-0.1,3.6-2.8,6.5-5l10.7,0c-0.7,2-1.5,4.2-1.5,4.2c1.5-1.1-6.1,4.1-6.1,4.1l-3.3,2.1c-5.5,4.3-11.6,3.1-11.6,3.1
		c-2.9,0-4.6-1.6-4.6-1.6l-1-0.7c5,0.8,9,1.1,11.8-0.4c0.2,0,8.1-3.5,12.7-9.4c-0.1-2.3-4.3-0.7-4.3-0.7l-2.8,1.5
		c-2.2,0.8-9.1,6.8-9.1,6.8c-1.1,0.9-2.7,0.2-2.7,0.2c-2.4-3.2-6.6-3.8-6.6-3.8l-3,0.2c-2.8,0.9-2.3-0.7-2.3-0.7s1.5-2.1,10.6-3.9
		c2.2-0.3,3.9-0.7,5.2-1L202.3,175.8 M251.2,220.4l-1.9,0.4l-1.2,0.6l-2.1,1.2l-2.5,1.5l-3,1.8l-3.2,1.5l-2.2,1.2l-2.9,1.4l-1.9,0.9
		l-2.4,0.9l-1.5,0.7l-1.5,0.4l-1.7,0.1l-1.3,0.1l-1.1-0.2l0.3-0.7c0,0,0.8-0.3,1.3-0.4s3.2-0.7,3.2-0.7l4.1-1.3l3.2-1.5l4.5-2.6
		l4.7-2.6l2.5-1.3l2.4-1.4c0,0,1.1-0.7,1.3-0.8c0.2-0.1,0.7-0.6,0.8-0.8c0.1-0.2,0.4-1.4,0.4-1.4l0.8,0.6l0.6,1.1L251.2,220.4
		 M252,225.1h-1.4l-1,0.9l-1.2,1.1l-1.1,0.8l-1.7,1l-2.3,1.3l-2.4,1.2l-2.3,1l-3,1.3l-2.2,1l-2.2,0.9l-1,0.2l-0.6-0.5l0.3-0.8
		l1.8-0.8l2.2-0.8l4.2-2.1l4.2-2.1l3.1-2l2.1-1.2l1-0.7l1-0.6l1.3-1l1.1-0.2L252,225.1 M252.5,229.1l-1,0.2l-1.7,1.1l-1.7,1
		l-1.9,1.4l-1.5,0.8l-3.6,1.9l-3,1.2l-1.1,0.8l-1.7,0.4l-0.9-0.3l0.9-1l1.4-0.7l3.9-2l2.4-1.3l4.1-2.5l3.5-2.3l1-0.7l0.7,0.6
		L252.5,229.1 M253.8,233.8l-1.1,0.6l-1.4,0.8l-1.2,0.7l-1,0.6l-1.3,0.8l-1.2,0.4l-1.5,0.7l-1.2,0.3l-1.3,0.4c0,0-0.5,0.4-0.8,0
		c-0.2-0.4-0.2-0.7-0.2-0.7s0.4-0.3,0.8-0.4c0.3-0.1,2-1,2-1l2.5-1.3l2.1-1.2l1.7-0.9l1.2-0.8l1.1-0.4l1,0.4L253.8,233.8
		 M233.1,277.7l-1.5,1l-2,1.4l-2.3,1.2l-1.7,0.8l-1.5,0.6l-2,0.8l-2.7,0.6l-3.6,0.3l-2.7,0.2c0,0-3.9,0.9-0.1,1.5
		c0.2,0,2.2-0.1,2.2-0.1l2.9-0.3c2.9-0.1,6.2-1.5,6.3-1.5c0.1,0,3.9-1.6,3.9-1.6l6.3-4.2l4.9-4.4C240.6,272,233.1,277.7,233.1,277.7
		 M269,246.6l-1,1.6l-1,1.7l-2.3,2.9l-2.8,3.4l-4.3,5.5l-2.8,3.3l-1.8,2.2l-4,4.5l-1.7,1.8l-3.8,3.7l-1.9,1.9l-3.1,2.8
		c-4.8,3.9-6.3,4-6.3,4c-1.8,0.2-3.4,0.2-3.4,0.2s1.9-1.4,2.1-1.4c0.1,0,1.5-0.6,1.5-0.6l1.6-0.9l1.8-1.3l2.3-1.8l1.8-1.7l4.2-4.1
		l2.7-2.6l2.3-2.5l3.3-3.7l3.2-3.6l2.5-3.1l4.5-5.8l4.4-6.4c0,0,0.4-0.7,0.5-0.8C269.3,244.2,269,246.6,269,246.6 M272.4,250.3
		l-0.7,1.2l-2.2,2.9l-1.5,2.2l-2.1,3.2l-1.9,2.4l-1.8,2.1l-1.8,2.4l-2.3,2.5l-2.3,2.5l-2,2.1l-2.1,2.1l-2.1,2l-1.8,1.7l-4.4,4.6
		l-2.8,0.3l3.5-3.3l1.9-1.8l3.1-2.7l1.8-1.7l2.1-1.9l1.3-1.4l1-1.2l1.7-1.8l1.8-2.1l1.5-2l2.6-3.3l1.6-1.9l2.7-4.1l2.8-4.8l1-2
		l1.5,0.9L272.4,250.3 M275.7,254.1l-1.5,0.7l-2.3,3.6l-4.4,7.9l-7.3,10.2c-2.6,4.5-5.5,5.6-5.5,5.6c-1.7,0.3-6.2,1.5-6.2,1.5
		l4.6-3.4c2.8-1.4,6.9-6.4,6.9-6.4l3.3-4.1l2.6-3.7l2-3.2l2.4-3.9c0.5-0.4,2.2-7.5,2.2-7.5l1,0.2l0.9,0.7l0.7,0.8L275.7,254.1
		 M294.6,256.3l-0.9,0.5l-0.7,0.9l-0.9,0.9l-0.6,0.7l-1.1,1.1l-0.7,0.7L289,262l-1,1l-0.7,0.7l-0.4,0.4l-0.6,0.5
		c-0.7,0.5-1.1,0.1-1.1,0.1c-0.2-0.7,0.5-1.2,0.5-1.2l0.5-0.8l0.7-0.8l0.7-0.7l1.1-1.2l0.9-1.1l0.7-0.8l0.5-0.7l0.7-0.6l0.1-0.5
		l-0.2-0.6c0,0,0.6-0.2,0.7-0.2c0.1,0,0.7,0.1,0.7,0.1l0.4,0.1l0.5,0.1L294.6,256.3 M299.1,258.2l-0.5,0.6l-0.5,0.6l-1.6,1.4
		l-1.7,1.4l-2,1.6l-1.3,1.1l-1.6,1.5l-1.7,1.5l-1.5,1.4l-1,0.9l-1,0.9l-1.2,1l-0.8,0.6l-0.7,0.3l-0.8-0.1l-0.2-0.6l0.6-0.7l1.5-1.2
		l1.4-1.1l1.7-1.6l1.8-1.7l1.7-1.8l1.8-1.8l1.8-1.7l1.7-1.8l1.3-1.7l0.6-0.1h0.7l0.5,0.3L299.1,258.2 M287.7,278.6
		c0.4,0.3,0.2,0.8,0.2,0.8l-1.2,1.6l-8,6.4l-1.9,1.6l-2.2,1.8l-1.8,1.6l-1.2,1c-0.3,0.3-0.7,0.3-1,0c0-0.6,0.8-1.2,0.8-1.2
		c0.4-0.4,3-2.2,3-2.2l2.6-2.2l2.6-2l3.4-2.6l1.8-1.4l1.4-1.4l0.6-0.7C287.3,278.3,287.7,278.6,287.7,278.6 M305.3,261.5l-1.8,1.4
		l-1.6,1.2l-2.4,1.6l-3.2,2.2l-3,2.4l-3.2,2.8l-3.6,2.8l-3.2,2.2l-2.8,2.4l-2,1.8c-0.8,0.3-1.8,0.4-1.8,0.4
		c-0.4-0.1-0.3-0.8-0.3-0.8c0.6-0.5,1.2-1,1.2-1l1.9-1.5l2.4-1.6l2.4-1.8l2.8-2.2l2.2-1.8l2.6-2.2l2.2-2l3-2.6l3.8-3.8l1.4-2
		l1.2-0.8h1.4l1,0.6L305.3,261.5"/>
	<path d="M440.5,352.1l2.3-5l22.6,10.5l-4,8.6l-3.3-1.5l-1,2.2l6.8,3.2l1-2.2l-1.2-0.5l10.1-21.6l1.2,0.5l1-2.1l-6.8-3.2l-1,2.1
		l3.3,1.5l-4,8.6l-22.6-10.5l2.3-5l-2.2-1l-6.7,14.4L440.5,352.1 M454.3,320.7l0.7-2.7l30.5-4.7l0.4-1.6l-24.6-19l0.6-2.4l-2.3-0.6
		l-2.2,8.8l2.3,0.6l0.9-3.5l6.1,4.7l-2.9,11.4l-7.6,1.1l0.7-2.8l-2.3-0.6l-2.6,10.6L454.3,320.7L454.3,320.7z M490.4,323.2
		c1.8,0.4,3.6-0.6,4-2.3c0.4-1.8-0.6-3.6-2.4-4c-1.7-0.4-3.5,0.7-3.9,2.4C487.7,321,488.7,322.8,490.4,323.2L490.4,323.2z
		 M493.2,312.1c1.8,0.4,3.6-0.6,4-2.3c0.4-1.8-0.6-3.6-2.4-4c-1.7-0.4-3.5,0.7-3.9,2.4C490.4,309.9,491.5,311.7,493.2,312.1
		L493.2,312.1z M468.8,302l9.9,7.5l-12.2,1.8L468.8,302 M463.3,272.3l0.2-5.5l24.9,0.9l-0.3,9.5l-3.6-0.1l-0.1,2.4l7.5,0.3l0.1-2.4
		l-1.3,0l0.8-23.8l1.3,0l0.1-2.3l-7.5-0.3l-0.1,2.3l3.6,0.1l-0.3,9.4l-24.9-0.9l0.2-5.5l-2.4-0.1l-0.6,15.9L463.3,272.3
		 M462.5,234.6l-0.7-4.8l24.7-3.5l0.7,4.8l2.6-0.4l-2-14.5l-2.6,0.4l0.7,4.8l-24.7,3.5l-0.7-4.8l-2.4,0.3l2,14.5L462.5,234.6
		 M450.4,186.4c-0.6,2.8-0.5,5.3,0.2,7.6c1.7,5.1,6.4,7.8,11,6.3c4-1.3,5.5-3.4,6.7-9.7c0.3-1.5,0.7-3.3,1.1-5.2
		c0.6-2.5,1.2-3.5,2.8-4c2.5-0.8,4.7,0.6,5.7,3.5c0.5,1.7,0.6,2.9,0.1,5.7l-3.1,1l0.7,2.3l7.4-2.4l-0.7-2.3l-1.5,0.5
		c0.4-2.1,0.3-4-0.4-6.1c-1.6-4.9-6.4-7.7-10.8-6.2c-3.6,1.2-5.2,3.7-6.1,10c-0.9,6-2,8.1-4.3,8.9c-2.4,0.8-4.8-0.9-5.8-4
		c-0.7-2.1-0.7-4,0-6.9l3.2-1l-0.7-2.3l-7.7,2.5l0.7,2.3L450.4,186.4 M444.9,168.7l-0.9-1.6c-0.7-1.2-0.6-2.7,0.3-4.4l4.8-9.5
		c2.8,3.4,6.8,4.1,10.6,2c4.6-2.5,5.4-6.8,2.3-12.3l-7.4-13.4l-2.3,1.3l2.4,4.2l-21.8,12.1l-2.4-4.2l-2.1,1.2l7.1,12.8l2.1-1.2
		l-2.4-4.2l9.4-5.2l1.5,2.8l-5.8,11.1c-1.4,2.6-1.3,3.2,0,5.7l2.3,4.1L444.9,168.7L444.9,168.7z M457.1,139.3l2.2,4
		c1.6,2.9,0.8,5.5-2.4,7.3c-3.1,1.7-6.2,1.1-7.7-1.6l-2.2-4L457.1,139.3 M422.1,124.4l-1.6-1.8l-2.5,2.3l-7.4-8.2l8.4-7.6l5.5,6.2
		l-2.4,2.2l1.6,1.8l6.7-6l-1.7-1.7l-2.3,2.1l-5.5-6.2l8-7.2l7.1,7.9l-2.5,2.3l1.6,1.7l5.4-4.9l-1.6-1.8l-1,0.9l-13.6-15.1l-1.8,1.6
		l3.3,3.6l-18.7,16.8l-3.3-3.6l-1.8,1.6l15.5,17.2L422.1,124.4 M119.1,93.5l-1.7,1.6l2.7,2.8l-7.8,7.6L95.2,87.8l3.5-3.4l-1.8-1.9
		L86.3,92.7l1.8,1.9l3.5-3.4l17.3,17.9l-3.5,3.4l1.7,1.7l16.5-16L119.1,93.5 M86.9,140.9c4.7-6.7,2.7-16.8-4.2-21.6
		c-6.8-4.8-16.9-3.2-21.6,3.5c-4.8,6.8-2.9,16.8,4,21.6C72,149.3,82.1,147.7,86.9,140.9L86.9,140.9z M63.2,124.4
		c3.1-4.5,10.4-4.8,16.3-0.6c6,4.2,8.2,11.1,5.1,15.6c-3.1,4.5-10.4,4.7-16.4,0.5C62.3,135.7,60.1,128.9,63.2,124.4 M66,177.7
		c2.2-5.7,0.8-10.1-3.8-11.9c-4.5-1.7-8.5,0.5-10.9,6.3c1.7-4.4,0.3-8.6-3.3-10c-4.2-1.6-8.2,0.6-10.2,5.7L32,182.5l2.2,0.9l1.7-4.5
		l23.5,9l-1.7,4.5l2.2,0.9L66,177.7L66,177.7z M50.2,179l1.7-4.4c1.5-4,4.2-5.2,8-3.8c3.4,1.3,4.4,4,2.9,8l-1.6,4.3L50.2,179
		L50.2,179z M38,174.3l1.6-4.3c1.1-3,3.4-3.9,6.5-2.7c3.1,1.2,4.3,3.9,3.2,6.9l-1.5,3.9L38,174.3 M52.2,211.8l-0.6,4.8l-24.7-3
		l0.6-4.8l-2.6-0.3l-1.2,10l20.5,13l-23,7.5l-1.2,9.6l2.6,0.3l0.6-4.8l24.8,3l-0.6,4.8l2.4,0.3l1.6-12.9l-2.4-0.3l-0.6,4.8
		l-20.2-2.5l24.3-7.9l-22.9-14.6l21.5,2.6l-0.6,4.8l2.4,0.3l1.8-14.5L52.2,211.8 M20.8,274.6l2,12.9l2.6-0.4l-0.8-4.8l16-2.5
		c5.2-0.8,9.4,2,10.2,6.8c0.7,4.7-2.3,8.4-7.6,9.2l-16.1,2.5l-0.8-4.9l-2.6,0.4l2.3,14.5l2.6-0.4l-0.8-4.9l17.4-2.8
		c6-1,9.6-6.6,8.6-13.5c-1.2-7.3-6.7-11.5-13.6-10.4L24.2,279l-0.8-4.8L20.8,274.6 M58.2,322.7l2,4.4l-23,10.2l-2-4.4l-2.2,1l6,13.4
		l2.2-1l-1.9-4.4l10.1-4.5l7.2,16.1l-10.1,4.5l-2-4.4l-2.2,1l6,13.4l2.2-1l-2-4.4l23-10.2l2,4.4l2.2-1l-6-13.4l-2.2,1l2,4.4
		l-10.5,4.7l-7.2-16.2l10.5-4.7l1.9,4.4l2.2-1l-6-13.4L58.2,322.7 M82.2,390c1.7-1.2,2-3.7,0.8-5.4c-1.3-1.7-3.7-2-5.4-0.8
		c-1.7,1.3-2,3.6-0.8,5.4C78,390.9,80.4,391.3,82.2,390 M434.7,382.5c-1.7-1.2-4.1-0.8-5.3,0.8c-1.3,1.7-0.8,4.1,0.8,5.3
		c1.7,1.3,4.1,0.9,5.3-0.8C436.8,386.2,436.5,383.8,434.7,382.5 M405.3,76.9l2.2,1.6l1.6-2.1l-7.5-5.6l-1.6,2.1l2.9,2.2l-18.6,11.1
		l5.4-21l3.3,2.5l1.6-2.1l-10-7.6l-1.6,2.1l2.5,1.9l-7.6,29.5l1.2,0.9L405.3,76.9 M357.2,74.3l-4.3-2.3l11.7-22l4.3,2.3l1.2-2.3
		l-12.9-6.9l-1.2,2.3l4.3,2.3l-11.7,22l-4.3-2.3l-1.1,2.1l12.9,6.9L357.2,74.3 M327.9,34.2l4.7,1.3l0.7-2.5l-12.6-3.4l-0.7,2.5
		l4.8,1.3L320,51.2l-12.1-25.1l-8.1-2.2l-0.7,2.5l4.4,1.2l0.8,2l-6,22.5l-4.7-1.3l-0.6,2.3l12.6,3.4l0.6-2.3l-4.8-1.3l4.9-18.5
		l12.4,26.1l1.9,0.5L327.9,34.2 M275,20.9l-13-0.2l0,2.6l4.9,0.1l-0.3,16.2c-0.1,5.2-3.7,8.9-8.5,8.9c-4.7-0.1-7.8-3.8-7.7-9.1
		l0.3-16.3l4.9,0.1l0-2.6l-14.7-0.3l0,2.6l4.9,0.1l-0.3,17.6c-0.1,6.1,4.9,10.6,11.8,10.8c7.4,0.1,12.5-4.6,12.6-11.6l0.3-16.4
		l4.9,0.1L275,20.9 M220.4,35.8l-12.1,2.4l0.9,4.8l12.1-2.4L220.4,35.8 M193.6,57.4l-5.2,1.8l-8.1-23.6l8.9-3.1l1.2,3.4l2.3-0.8
		l-2.4-7.1l-2.3,0.8l0.4,1.2l-22.5,7.8l-0.4-1.2l-2.2,0.8l2.4,7.1l2.2-0.8l-1.2-3.4l8.9-3.1l8.1,23.6l-5.2,1.8l0.8,2.3l15.1-5.2
		L193.6,57.4 M134.1,89.4l13-8.1c7.6-4.7,9.9-13.7,5.4-21c-4.4-7.1-13.8-9.1-21.2-4.4l-13,8.1l1.3,2l4.1-2.6L137,84.8l-4.1,2.6
		L134.1,89.4L134.1,89.4z M141,82l-13.1-21l4.3-2.7c5.1-3.2,11.8-1,15.5,5c3.7,5.9,2.6,12.9-2.5,16.1L141,82 M404.9,399.4l3.6-3.3
		l-1.8-1.9l-9.5,8.9l1.8,1.9l3.6-3.4l12.6,13.5l-27.7-3l-6.1,5.7l1.8,1.9l3.3-3.1l2.1,0.3l15.9,17l-3.6,3.3l1.6,1.8l9.5-8.9
		l-1.6-1.8l-3.6,3.4l-13-14l28.8,3.3l1.4-1.3L404.9,399.4 M380.2,451.2l-4.2,2.5l-12.8-21.4l4.2-2.5l-1.3-2.2l-12.5,7.5l1.3,2.2
		l4.2-2.5l12.8,21.4l-4.2,2.5l1.2,2.1l12.5-7.5L380.2,451.2 M350.2,463l-2.2,0.8l1.4,3.7l-10.2,3.9l-8.9-23.1l4.5-1.7l-0.9-2.4
		l-13.7,5.2l0.9,2.4l4.5-1.7l8.9,23.3l-4.5,1.7l0.9,2.2l21.5-8.2L350.2,463 M310.8,481.9l-1.8,0.3c-1.4,0.2-2.7-0.3-4.1-1.8
		l-7.3-7.8c4.1-1.4,6.2-5,5.5-9.3c-0.8-5.2-4.6-7.4-10.8-6.4l-15.1,2.4l0.4,2.6l4.8-0.8l3.9,24.6l-4.8,0.8l0.4,2.4l14.5-2.3
		l-0.4-2.4l-4.8,0.8l-1.7-10.6l3.1-0.5l8.5,9.2c2,2.2,2.5,2.4,5.4,1.9l4.7-0.7L310.8,481.9L310.8,481.9z M287.3,460.3l4.5-0.7
		c3.3-0.5,5.4,1.2,6,4.8c0.6,3.5-1.1,6.2-4.1,6.7l-4.5,0.7L287.3,460.3 M258.7,484.3l-2.4-0.1l-0.1,3.4l-11-0.4l0.4-11.3l8.3,0.3
		l-0.1,3.2l2.4,0.1l0.3-9l-2.4,0l-0.1,3.1l-8.3-0.3l0.4-10.8l10.6,0.4l-0.1,3.4l2.3,0.1l0.3-7.3l-2.4-0.1l0,1.3l-20.3-0.7l-0.1,2.4
		l4.9,0.2l-0.9,25.1l-4.9-0.2l-0.1,2.4l23.2,0.8L258.7,484.3 M202.6,484.3c6,1.5,10.1-0.4,11.3-5.3c1.2-4.7-1.6-8.4-7.6-10.1
		c4.6,1.1,8.6-0.7,9.5-4.5c1.1-4.4-1.6-8.1-6.9-9.4l-15.3-3.8l-0.6,2.3l4.7,1.2l-6.1,24.4l-4.7-1.2l-0.6,2.3L202.6,484.3
		L202.6,484.3z M199.3,468.8l4.5,1.1c4.2,1,5.7,3.6,4.8,7.5c-0.9,3.6-3.5,4.9-7.6,3.8l-4.5-1.1L199.3,468.8L199.3,468.8z
		 M202.5,456.1l4.5,1.1c3.1,0.8,4.3,2.9,3.5,6.1c-0.8,3.2-3.3,4.8-6.5,4l-4-1.6l2.5-10.2 M171.6,442.6l-11.4-6.3l-1.3,2.3l4.2,2.4
		l-7.8,14.2c-2.5,4.6-7.4,6.2-11.7,3.8c-4.1-2.3-5.2-7-2.6-11.6L149,433l4.3,2.4l1.3-2.3l-12.9-7.1l-1.3,2.3l4.3,2.4l-8.5,15.4
		c-3,5.3-0.7,11.7,5.4,15c6.5,3.6,13.2,1.8,16.6-4.3l7.9-14.3l4.2,2.4L171.6,442.6 M116.3,435.5l-1.8-1.5l-2.8,3.4l-13.2-11.1
		l30.9-7.9l0.9-1.1l-17.6-14.8l0.8-1l-1.8-1.5l-4.7,5.6l1.8,1.5l2.2-2.6l12.4,10.4l-30.9,8l-0.9,1l20.1,16.9l4.6-5.1"/>
</g>
</svg>
